NimbusSanL-Regu.ufo
<glyph name="exclam" format="1">
  <advance width="278"/>
  <unicode hex="0021"/>
  <outline>
    <contour>
      <point x="208" y="729" type="line"/>
      <point x="125" y="729" type="line"/>
      <point x="125" y="391" type="line"/>
      <point x="147" y="168" type="line"/>
      <point x="186" y="168" type="line"/>
      <point x="208" y="391" type="line"/>
    </contour>
    <contour>
      <point x="208" y="104" type="line"/>
      <point x="124" y="104" type="line"/>
      <point x="124" y="0" type="line"/>
      <point x="208" y="0" type="line"/>
    </contour>
  </outline>
</glyph>
<glyph name="quotedbl" format="1">
  <advance width="355"/>
  <unicode hex="0022"/>
  <outline>
    <contour>
      <point x="52" y="709" type="line"/>
      <point x="52" y="598" type="line"/>
      <point x="79" y="464" type="line"/>
      <point x="118" y="464" type="line"/>
      <point x="145" y="598" type="line"/>
      <point x="145" y="709" type="line"/>
    </contour>
    <contour>
      <point x="212" y="709" type="line"/>
      <point x="212" y="598" type="line"/>
      <point x="239" y="464" type="line"/>
      <point x="278" y="464" type="line"/>
      <point x="305" y="598" type="line"/>
      <point x="305" y="709" type="line"/>
    </contour>
  </outline>
</glyph>
<glyph name="numbersign" format="1">
  <advance width="556"/>
  <unicode hex="0023"/>
  <outline>
    <contour>
      <point x="485" y="697" type="line"/>
      <point x="408" y="697" type="line"/>
      <point x="373" y="501" type="line"/>
      <point x="248" y="501" type="line"/>
      <point x="284" y="697" type="line"/>
      <point x="208" y="697" type="line"/>
      <point x="172" y="501" type="line"/>
      <point x="51" y="501" type="line"/>
      <point x="51" y="433" type="line"/>
      <point x="159" y="433" type="line"/>
      <point x="128" y="259" type="line"/>
      <point x="14" y="259" type="line"/>
      <point x="14" y="191" type="line"/>
      <point x="115" y="191" type="line"/>
      <point x="77" y="-20" type="line"/>
      <point x="153" y="-20" type="line"/>
      <point x="192" y="191" type="line"/>
      <point x="316" y="191" type="line"/>
      <point x="278" y="-20" type="line"/>
      <point x="354" y="-20" type="line"/>
      <point x="393" y="191" type="line"/>
      <point x="510" y="191" type="line"/>
      <point x="510" y="259" type="line"/>
      <point x="405" y="259" type="line"/>
      <point x="436" y="433" type="line"/>
      <point x="542" y="433" type="line"/>
      <point x="542" y="501" type="line"/>
      <point x="449" y="501" type="line"/>
    </contour>
    <contour>
      <point x="360" y="433" type="line"/>
      <point x="329" y="259" type="line"/>
      <point x="204" y="259" type="line"/>
      <point x="236" y="433" type="line"/>
    </contour>
  </outline>
</glyph>
<glyph name="dollar" format="1">
  <advance width="556"/>
  <unicode hex="0024"/>
  <outline>
    <contour>
      <point x="243" y="770" type="line"/>
      <point x="243" y="716" type="line"/>
      <point x="115" y="700"/>
      <point x="46" y="630"/>
      <point x="46" y="516" type="curve" smooth="yes"/>
      <point x="46" y="453"/>
      <point x="70" y="404"/>
      <point x="117" y="370" type="curve" smooth="yes"/>
      <point x="143" y="351"/>
      <point x="170" y="340"/>
      <point x="243" y="318" type="curve"/>
      <point x="243" y="46" type="line"/>
      <point x="198" y="52"/>
      <point x="160" y="72"/>
      <point x="137" y="103" type="curve"/>
      <point x="122" y="126"/>
      <point x="118" y="143"/>
      <point x="112" y="208" type="curve"/>
      <point x="33" y="208" type="line"/>
      <point x="26" y="69"/>
      <point x="102" y="-14"/>
      <point x="243" y="-23" type="curve"/>
      <point x="243" y="-126" type="line"/>
      <point x="302" y="-126" type="line"/>
      <point x="302" y="-23" type="line"/>
      <point x="356" y="-19"/>
      <point x="393" y="-8"/>
      <point x="426" y="12" type="curve" smooth="yes"/>
      <point x="484" y="48"/>
      <point x="518" y="117"/>
      <point x="518" y="195" type="curve" smooth="yes"/>
      <point x="518" y="266"/>
      <point x="491" y="316"/>
      <point x="433" y="349" type="curve" smooth="yes"/>
      <point x="407" y="364"/>
      <point x="394" y="369"/>
      <point x="302" y="397" type="curve"/>
      <point x="302" y="646" type="line"/>
      <point x="369" y="643"/>
      <point x="416" y="592"/>
      <point x="417" y="519" type="curve"/>
      <point x="496" y="519" type="line"/>
      <point x="496" y="633"/>
      <point x="423" y="707"/>
      <point x="302" y="716" type="curve"/>
      <point x="302" y="770" type="line"/>
    </contour>
    <contour>
      <point x="243" y="405" type="line"/>
      <point x="164" y="426"/>
      <point x="127" y="465"/>
      <point x="127" y="526" type="curve" smooth="yes"/>
      <point x="127" y="592"/>
      <point x="169" y="635"/>
      <point x="243" y="645" type="curve"/>
    </contour>
    <contour>
      <point x="302" y="309" type="line"/>
      <point x="404" y="279"/>
      <point x="436" y="249"/>
      <point x="436" y="183" type="curve" smooth="yes"/>
      <point x="436" y="144"/>
      <point x="421" y="109"/>
      <point x="394" y="83" type="curve" smooth="yes"/>
      <point x="370" y="60"/>
      <point x="345" y="51"/>
      <point x="302" y="46" type="curve"/>
    </contour>
  </outline>
</glyph>
<glyph name="percent" format="1">
  <advance width="889"/>
  <unicode hex="0025"/>
  <outline>
    <contour>
      <point x="199" y="685" type="curve" smooth="yes"/>
      <point x="106" y="685"/>
      <point x="29" y="608"/>
      <point x="29" y="514" type="curve" smooth="yes"/>
      <point x="29" y="420"/>
      <point x="106" y="343"/>
      <point x="200" y="343" type="curve" smooth="yes"/>
      <point x="293" y="343"/>
      <point x="370" y="420"/>
      <point x="370" y="512" type="curve" smooth="yes"/>
      <point x="370" y="609"/>
      <point x="295" y="685"/>
    </contour>
    <contour>
      <point x="199" y="615" type="curve" smooth="yes"/>
      <point x="256" y="615"/>
      <point x="301" y="570"/>
      <point x="301" y="513" type="curve" smooth="yes"/>
      <point x="301" y="458"/>
      <point x="255" y="413"/>
      <point x="200" y="413" type="curve" smooth="yes"/>
      <point x="144" y="413"/>
      <point x="98" y="459"/>
      <point x="98" y="514" type="curve" smooth="yes"/>
      <point x="98" y="570"/>
      <point x="144" y="615"/>
    </contour>
    <contour>
      <point x="609" y="709" type="line"/>
      <point x="214" y="-20" type="line"/>
      <point x="280" y="-20" type="line"/>
      <point x="675" y="709" type="line"/>
    </contour>
    <contour>
      <point x="688" y="322" type="curve" smooth="yes"/>
      <point x="595" y="322"/>
      <point x="518" y="245"/>
      <point x="518" y="152" type="curve" smooth="yes"/>
      <point x="518" y="58"/>
      <point x="595" y="-19"/>
      <point x="689" y="-19" type="curve" smooth="yes"/>
      <point x="781" y="-19"/>
      <point x="859" y="58"/>
      <point x="859" y="150" type="curve" smooth="yes"/>
      <point x="859" y="246"/>
      <point x="784" y="322"/>
    </contour>
    <contour>
      <point x="688" y="252" type="curve" smooth="yes"/>
      <point x="745" y="252"/>
      <point x="790" y="207"/>
      <point x="790" y="150" type="curve" smooth="yes"/>
      <point x="790" y="96"/>
      <point x="744" y="51"/>
      <point x="689" y="51" type="curve" smooth="yes"/>
      <point x="633" y="51"/>
      <point x="587" y="96"/>
      <point x="587" y="152" type="curve" smooth="yes"/>
      <point x="587" y="207"/>
      <point x="633" y="252"/>
    </contour>
  </outline>
</glyph>
<glyph name="ampersand" format="1">
  <advance width="667"/>
  <unicode hex="0026"/>
  <outline>
    <contour>
      <point x="493" y="334" type="line"/>
      <point x="494" y="298"/>
      <point x="482" y="250"/>
      <point x="462" y="215" type="curve"/>
      <point x="329" y="378" type="line"/>
      <point x="433" y="437"/>
      <point x="467" y="480"/>
      <point x="467" y="552" type="curve" smooth="yes"/>
      <point x="467" y="644"/>
      <point x="399" y="709"/>
      <point x="304" y="709" type="curve" smooth="yes"/>
      <point x="209" y="709"/>
      <point x="133" y="640"/>
      <point x="133" y="552" type="curve" smooth="yes"/>
      <point x="133" y="505"/>
      <point x="152" y="467"/>
      <point x="214" y="389" type="curve"/>
      <point x="90" y="317"/>
      <point x="52" y="267"/>
      <point x="52" y="176" type="curve" smooth="yes"/>
      <point x="52" y="56"/>
      <point x="134" y="-23"/>
      <point x="257" y="-23" type="curve" smooth="yes"/>
      <point x="306" y="-23"/>
      <point x="353" y="-10"/>
      <point x="389" y="13" type="curve" smooth="yes"/>
      <point x="410" y="26"/>
      <point x="428" y="41"/>
      <point x="466" y="78" type="curve"/>
      <point x="528" y="0" type="line"/>
      <point x="637" y="0" type="line"/>
      <point x="515" y="151" type="line"/>
      <point x="552" y="208"/>
      <point x="573" y="274"/>
      <point x="573" y="334" type="curve"/>
    </contour>
    <contour>
      <point x="285" y="431" type="curve"/>
      <point x="224" y="501"/>
      <point x="215" y="518"/>
      <point x="215" y="553" type="curve" smooth="yes"/>
      <point x="215" y="605"/>
      <point x="249" y="639"/>
      <point x="301" y="639" type="curve" smooth="yes"/>
      <point x="351" y="639"/>
      <point x="388" y="603"/>
      <point x="388" y="554" type="curve" smooth="yes"/>
      <point x="388" y="509"/>
      <point x="363" y="480"/>
    </contour>
    <contour>
      <point x="418" y="137" type="line"/>
      <point x="362" y="78"/>
      <point x="319" y="55"/>
      <point x="267" y="55" type="curve" smooth="yes"/>
      <point x="195" y="55"/>
      <point x="136" y="113"/>
      <point x="136" y="183" type="curve" smooth="yes"/>
      <point x="136" y="239"/>
      <point x="167" y="279"/>
      <point x="258" y="337" type="curve"/>
    </contour>
  </outline>
</glyph>
<glyph name="quotesingle" format="1">
  <advance width="191"/>
  <unicode hex="0027"/>
  <outline>
    <contour>
      <point x="48" y="709" type="line"/>
      <point x="48" y="598" type="line"/>
      <point x="75" y="464" type="line"/>
      <point x="115" y="464" type="line"/>
      <point x="142" y="598" type="line"/>
      <point x="142" y="709" type="line"/>
    </contour>
  </outline>
</glyph>
<glyph name="parenleft" format="1">
  <advance width="333"/>
  <unicode hex="0028"/>
  <outline>
    <contour>
      <point x="236" y="729" type="line"/>
      <point x="136" y="598"/>
      <point x="73" y="416"/>
      <point x="73" y="259" type="curve" smooth="yes"/>
      <point x="73" y="101"/>
      <point x="136" y="-81"/>
      <point x="236" y="-212" type="curve"/>
      <point x="291" y="-212" type="line"/>
      <point x="203" y="-69"/>
      <point x="154" y="99"/>
      <point x="154" y="259" type="curve" smooth="yes"/>
      <point x="154" y="418"/>
      <point x="203" y="587"/>
      <point x="291" y="729" type="curve"/>
    </contour>
  </outline>
</glyph>
<glyph name="parenright" format="1">
  <advance width="333"/>
  <unicode hex="0029"/>
  <outline>
    <contour>
      <point x="93" y="-212" type="line"/>
      <point x="193" y="-81"/>
      <point x="256" y="101"/>
      <point x="256" y="258" type="curve" smooth="yes"/>
      <point x="256" y="416"/>
      <point x="193" y="598"/>
      <point x="93" y="729" type="curve"/>
      <point x="38" y="729" type="line"/>
      <point x="126" y="586"/>
      <point x="175" y="418"/>
      <point x="175" y="258" type="curve" smooth="yes"/>
      <point x="175" y="99"/>
      <point x="126" y="-70"/>
      <point x="38" y="-212" type="curve"/>
    </contour>
  </outline>
</glyph>
<glyph name="asterisk" format="1">
  <advance width="389"/>
  <unicode hex="002A"/>
  <outline>
    <contour>
      <point x="160" y="729" type="line"/>
      <point x="165" y="617" type="line"/>
      <point x="59" y="655" type="line"/>
      <point x="40" y="596" type="line"/>
      <point x="148" y="566" type="line"/>
      <point x="79" y="477" type="line"/>
      <point x="129" y="441" type="line"/>
      <point x="192" y="534" type="line"/>
      <point x="254" y="441" type="line"/>
      <point x="305" y="477" type="line"/>
      <point x="235" y="566" type="line"/>
      <point x="343" y="596" type="line"/>
      <point x="324" y="655" type="line"/>
      <point x="218" y="617" type="line"/>
      <point x="223" y="729" type="line"/>
    </contour>
  </outline>
</glyph>
<glyph name="plus" format="1">
  <advance width="584"/>
  <unicode hex="002B"/>
  <outline>
    <contour>
      <point x="534" y="267" type="line"/>
      <point x="327" y="267" type="line"/>
      <point x="327" y="474" type="line"/>
      <point x="257" y="474" type="line"/>
      <point x="257" y="267" type="line"/>
      <point x="50" y="267" type="line"/>
      <point x="50" y="197" type="line"/>
      <point x="257" y="197" type="line"/>
      <point x="257" y="-10" type="line"/>
      <point x="327" y="-10" type="line"/>
      <point x="327" y="197" type="line"/>
      <point x="534" y="197" type="line"/>
    </contour>
  </outline>
</glyph>
<glyph name="comma" format="1">
  <advance width="278"/>
  <unicode hex="002C"/>
  <outline>
    <contour>
      <point x="87" y="104" type="line"/>
      <point x="87" y="0" type="line"/>
      <point x="147" y="0" type="line"/>
      <point x="147" y="-18" type="line" smooth="yes"/>
      <point x="147" y="-87"/>
      <point x="134" y="-107"/>
      <point x="87" y="-109" type="curve"/>
      <point x="87" y="-147" type="line"/>
      <point x="157" y="-147"/>
      <point x="192" y="-102"/>
      <point x="192" y="-16" type="curve" smooth="yes"/>
      <point x="192" y="104" type="line"/>
    </contour>
  </outline>
</glyph>
<glyph name="hyphen" format="1">
  <advance width="333"/>
  <unicode hex="002D"/>
  <outline>
    <contour>
      <point x="284" y="312" type="line"/>
      <point x="46" y="312" type="line"/>
      <point x="46" y="240" type="line"/>
      <point x="284" y="240" type="line"/>
    </contour>
  </outline>
</glyph>
<glyph name="slash" format="1">
  <advance width="278"/>
  <unicode hex="002F"/>
  <outline>
    <contour>
      <point x="229" y="729" type="line"/>
      <point x="-8" y="-20" type="line"/>
      <point x="47" y="-20" type="line"/>
      <point x="284" y="729" type="line"/>
    </contour>
  </outline>
</glyph>
<glyph name="zero" format="1">
  <advance width="556"/>
  <unicode hex="0030"/>
  <outline>
    <contour>
      <point x="275" y="709" type="curve" smooth="yes"/>
      <point x="209" y="709"/>
      <point x="149" y="680"/>
      <point x="112" y="631" type="curve" smooth="yes"/>
      <point x="66" y="569"/>
      <point x="43" y="474"/>
      <point x="43" y="343" type="curve" smooth="yes"/>
      <point x="43" y="104"/>
      <point x="123" y="-23"/>
      <point x="275" y="-23" type="curve" smooth="yes"/>
      <point x="425" y="-23"/>
      <point x="507" y="104"/>
      <point x="507" y="337" type="curve" smooth="yes"/>
      <point x="507" y="475"/>
      <point x="485" y="567"/>
      <point x="438" y="631" type="curve" smooth="yes"/>
      <point x="401" y="681"/>
      <point x="342" y="709"/>
    </contour>
    <contour>
      <point x="275" y="631" type="curve" smooth="yes"/>
      <point x="370" y="631"/>
      <point x="417" y="535"/>
      <point x="417" y="345" type="curve" smooth="yes"/>
      <point x="417" y="144"/>
      <point x="371" y="50"/>
      <point x="273" y="50" type="curve" smooth="yes"/>
      <point x="180" y="50"/>
      <point x="133" y="148"/>
      <point x="133" y="342" type="curve" smooth="yes"/>
      <point x="133" y="536"/>
      <point x="180" y="631"/>
    </contour>
  </outline>
</glyph>
<glyph name="one" format="1">
  <advance width="556"/>
  <unicode hex="0031"/>
  <outline>
    <contour>
      <point x="259" y="505" type="line"/>
      <point x="259" y="0" type="line"/>
      <point x="347" y="0" type="line"/>
      <point x="347" y="709" type="line"/>
      <point x="289" y="709" type="line"/>
      <point x="258" y="600"/>
      <point x="238" y="585"/>
      <point x="102" y="568" type="curve"/>
      <point x="102" y="505" type="line"/>
    </contour>
  </outline>
</glyph>
<glyph name="two" format="1">
  <advance width="556"/>
  <unicode hex="0032"/>
  <outline>
    <contour>
      <point x="506" y="87" type="line"/>
      <point x="133" y="87" type="line"/>
      <point x="142" y="145"/>
      <point x="174" y="182"/>
      <point x="261" y="233" type="curve" smooth="yes"/>
      <point x="361" y="287" type="line" smooth="yes"/>
      <point x="460" y="341"/>
      <point x="511" y="414"/>
      <point x="511" y="501" type="curve" smooth="yes"/>
      <point x="511" y="560"/>
      <point x="487" y="615"/>
      <point x="445" y="653" type="curve" smooth="yes"/>
      <point x="403" y="691"/>
      <point x="351" y="709"/>
      <point x="284" y="709" type="curve" smooth="yes"/>
      <point x="194" y="709"/>
      <point x="127" y="677"/>
      <point x="88" y="617" type="curve" smooth="yes"/>
      <point x="63" y="579"/>
      <point x="52" y="535"/>
      <point x="50" y="463" type="curve"/>
      <point x="138" y="463" type="line"/>
      <point x="141" y="511"/>
      <point x="147" y="540"/>
      <point x="159" y="563" type="curve" smooth="yes"/>
      <point x="182" y="606"/>
      <point x="228" y="632"/>
      <point x="281" y="632" type="curve" smooth="yes"/>
      <point x="361" y="632"/>
      <point x="421" y="575"/>
      <point x="421" y="499" type="curve" smooth="yes"/>
      <point x="421" y="443"/>
      <point x="388" y="395"/>
      <point x="325" y="359" type="curve" smooth="yes"/>
      <point x="233" y="307" type="line" smooth="yes"/>
      <point x="85" y="223"/>
      <point x="42" y="156"/>
      <point x="34" y="0" type="curve"/>
      <point x="506" y="0" type="line"/>
    </contour>
  </outline>
</glyph>
<glyph name="three" format="1">
  <advance width="556"/>
  <unicode hex="0033"/>
  <outline>
    <contour>
      <point x="221" y="325" type="line"/>
      <point x="232" y="325" type="line"/>
      <point x="269" y="326" type="line" smooth="yes"/>
      <point x="366" y="326"/>
      <point x="416" y="282"/>
      <point x="416" y="197" type="curve" smooth="yes"/>
      <point x="416" y="108"/>
      <point x="361" y="55"/>
      <point x="269" y="55" type="curve" smooth="yes"/>
      <point x="173" y="55"/>
      <point x="126" y="103"/>
      <point x="120" y="206" type="curve"/>
      <point x="32" y="206" type="line"/>
      <point x="36" y="149"/>
      <point x="46" y="112"/>
      <point x="63" y="80" type="curve" smooth="yes"/>
      <point x="99" y="12"/>
      <point x="169" y="-23"/>
      <point x="266" y="-23" type="curve" smooth="yes"/>
      <point x="412" y="-23"/>
      <point x="506" y="64"/>
      <point x="506" y="198" type="curve" smooth="yes"/>
      <point x="506" y="288"/>
      <point x="471" y="338"/>
      <point x="386" y="367" type="curve"/>
      <point x="452" y="393"/>
      <point x="485" y="443"/>
      <point x="485" y="514" type="curve" smooth="yes"/>
      <point x="485" y="636"/>
      <point x="404" y="709"/>
      <point x="269" y="709" type="curve" smooth="yes"/>
      <point x="126" y="709"/>
      <point x="50" y="631"/>
      <point x="47" y="480" type="curve"/>
      <point x="135" y="480" type="line"/>
      <point x="136" y="523"/>
      <point x="140" y="547"/>
      <point x="151" y="569" type="curve" smooth="yes"/>
      <point x="171" y="608"/>
      <point x="215" y="632"/>
      <point x="270" y="632" type="curve" smooth="yes"/>
      <point x="348" y="632"/>
      <point x="395" y="586"/>
      <point x="395" y="511" type="curve" smooth="yes"/>
      <point x="395" y="461"/>
      <point x="377" y="431"/>
      <point x="338" y="415" type="curve" smooth="yes"/>
      <point x="314" y="405"/>
      <point x="283" y="401"/>
      <point x="221" y="400" type="curve"/>
    </contour>
  </outline>
</glyph>
<glyph name="four" format="1">
  <advance width="556"/>
  <unicode hex="0034"/>
  <outline>
    <contour>
      <point x="327" y="170" type="line"/>
      <point x="327" y="0" type="line"/>
      <point x="415" y="0" type="line"/>
      <point x="415" y="170" type="line"/>
      <point x="520" y="170" type="line"/>
      <point x="520" y="249" type="line"/>
      <point x="415" y="249" type="line"/>
      <point x="415" y="709" type="line"/>
      <point x="350" y="709" type="line"/>
      <point x="28" y="263" type="line"/>
      <point x="28" y="170" type="line"/>
    </contour>
    <contour>
      <point x="327" y="249" type="line"/>
      <point x="105" y="249" type="line"/>
      <point x="327" y="559" type="line"/>
    </contour>
  </outline>
</glyph>
<glyph name="five" format="1">
  <advance width="556"/>
  <unicode hex="0035"/>
  <outline>
    <contour>
      <point x="476" y="709" type="line"/>
      <point x="110" y="709" type="line"/>
      <point x="57" y="323" type="line"/>
      <point x="138" y="323" type="line"/>
      <point x="179" y="372"/>
      <point x="213" y="389"/>
      <point x="268" y="389" type="curve" smooth="yes"/>
      <point x="363" y="389"/>
      <point x="423" y="324"/>
      <point x="423" y="219" type="curve" smooth="yes"/>
      <point x="423" y="117"/>
      <point x="364" y="55"/>
      <point x="268" y="55" type="curve" smooth="yes"/>
      <point x="191" y="55"/>
      <point x="144" y="94"/>
      <point x="123" y="174" type="curve"/>
      <point x="35" y="174" type="line"/>
      <point x="47" y="116"/>
      <point x="57" y="88"/>
      <point x="78" y="62" type="curve" smooth="yes"/>
      <point x="118" y="8"/>
      <point x="190" y="-23"/>
      <point x="270" y="-23" type="curve" smooth="yes"/>
      <point x="413" y="-23"/>
      <point x="513" y="81"/>
      <point x="513" y="231" type="curve" smooth="yes"/>
      <point x="513" y="371"/>
      <point x="420" y="467"/>
      <point x="284" y="467" type="curve" smooth="yes"/>
      <point x="234" y="467"/>
      <point x="194" y="454"/>
      <point x="153" y="424" type="curve"/>
      <point x="181" y="622" type="line"/>
      <point x="476" y="622" type="line"/>
    </contour>
  </outline>
</glyph>
<glyph name="six" format="1">
  <advance width="556"/>
  <unicode hex="0036"/>
  <outline>
    <contour>
      <point x="498" y="524" type="line"/>
      <point x="481" y="640"/>
      <point x="405" y="709"/>
      <point x="297" y="709" type="curve" smooth="yes"/>
      <point x="219" y="709"/>
      <point x="149" y="671"/>
      <point x="107" y="608" type="curve" smooth="yes"/>
      <point x="63" y="539"/>
      <point x="43" y="452"/>
      <point x="43" y="323" type="curve" smooth="yes"/>
      <point x="43" y="204"/>
      <point x="61" y="128"/>
      <point x="103" y="65" type="curve" smooth="yes"/>
      <point x="141" y="8"/>
      <point x="203" y="-23"/>
      <point x="281" y="-23" type="curve" smooth="yes"/>
      <point x="416" y="-23"/>
      <point x="513" y="77"/>
      <point x="513" y="216" type="curve" smooth="yes"/>
      <point x="513" y="348"/>
      <point x="423" y="441"/>
      <point x="296" y="441" type="curve" smooth="yes"/>
      <point x="226" y="441"/>
      <point x="171" y="414"/>
      <point x="133" y="362" type="curve"/>
      <point x="134" y="535"/>
      <point x="190" y="631"/>
      <point x="291" y="631" type="curve" smooth="yes"/>
      <point x="353" y="631"/>
      <point x="396" y="592"/>
      <point x="410" y="524" type="curve"/>
    </contour>
    <contour>
      <point x="285" y="363" type="curve" smooth="yes"/>
      <point x="370" y="363"/>
      <point x="423" y="304"/>
      <point x="423" y="209" type="curve" smooth="yes"/>
      <point x="423" y="120"/>
      <point x="363" y="55"/>
      <point x="282" y="55" type="curve" smooth="yes"/>
      <point x="200" y="55"/>
      <point x="138" y="123"/>
      <point x="138" y="214" type="curve" smooth="yes"/>
      <point x="138" y="302"/>
      <point x="198" y="363"/>
    </contour>
  </outline>
</glyph>
<glyph name="seven" format="1">
  <advance width="556"/>
  <unicode hex="0037"/>
  <outline>
    <contour>
      <point x="520" y="709" type="line"/>
      <point x="46" y="709" type="line"/>
      <point x="46" y="622" type="line"/>
      <point x="429" y="622" type="line"/>
      <point x="260" y="381"/>
      <point x="191" y="233"/>
      <point x="138" y="0" type="curve"/>
      <point x="232" y="0" type="line"/>
      <point x="271" y="227"/>
      <point x="360" y="422"/>
      <point x="520" y="635" type="curve"/>
    </contour>
  </outline>
</glyph>
<glyph name="eight" format="1">
  <advance width="556"/>
  <unicode hex="0038"/>
  <outline>
    <contour>
      <point x="391" y="373" type="curve"/>
      <point x="464" y="417"/>
      <point x="488" y="453"/>
      <point x="488" y="520" type="curve" smooth="yes"/>
      <point x="488" y="631"/>
      <point x="401" y="709"/>
      <point x="275" y="709" type="curve" smooth="yes"/>
      <point x="150" y="709"/>
      <point x="62" y="631"/>
      <point x="62" y="520" type="curve" smooth="yes"/>
      <point x="62" y="454"/>
      <point x="86" y="418"/>
      <point x="158" y="373" type="curve"/>
      <point x="77" y="334"/>
      <point x="37" y="275"/>
      <point x="37" y="197" type="curve" smooth="yes"/>
      <point x="37" y="67"/>
      <point x="135" y="-23"/>
      <point x="275" y="-23" type="curve" smooth="yes"/>
      <point x="415" y="-23"/>
      <point x="513" y="67"/>
      <point x="513" y="196" type="curve" smooth="yes"/>
      <point x="513" y="275"/>
      <point x="473" y="334"/>
    </contour>
    <contour>
      <point x="275" y="631" type="curve" smooth="yes"/>
      <point x="350" y="631"/>
      <point x="398" y="587"/>
      <point x="398" y="518" type="curve" smooth="yes"/>
      <point x="398" y="452"/>
      <point x="349" y="408"/>
      <point x="275" y="408" type="curve" smooth="yes"/>
      <point x="201" y="408"/>
      <point x="152" y="452"/>
      <point x="152" y="519" type="curve" smooth="yes"/>
      <point x="152" y="587"/>
      <point x="201" y="631"/>
    </contour>
    <contour>
      <point x="275" y="334" type="curve" smooth="yes"/>
      <point x="363" y="334"/>
      <point x="423" y="278"/>
      <point x="423" y="195" type="curve" smooth="yes"/>
      <point x="423" y="111"/>
      <point x="363" y="55"/>
      <point x="273" y="55" type="curve" smooth="yes"/>
      <point x="187" y="55"/>
      <point x="127" y="112"/>
      <point x="127" y="195" type="curve" smooth="yes"/>
      <point x="127" y="278"/>
      <point x="187" y="334"/>
    </contour>
  </outline>
</glyph>
<glyph name="nine" format="1">
  <advance width="556"/>
  <unicode hex="0039"/>
  <outline>
    <contour>
      <point x="53" y="162" type="line"/>
      <point x="70" y="46"/>
      <point x="146" y="-23"/>
      <point x="254" y="-23" type="curve" smooth="yes"/>
      <point x="332" y="-23"/>
      <point x="403" y="15"/>
      <point x="444" y="78" type="curve" smooth="yes"/>
      <point x="489" y="147"/>
      <point x="509" y="234"/>
      <point x="509" y="363" type="curve" smooth="yes"/>
      <point x="509" y="482"/>
      <point x="491" y="558"/>
      <point x="449" y="621" type="curve" smooth="yes"/>
      <point x="410" y="678"/>
      <point x="348" y="709"/>
      <point x="270" y="709" type="curve" smooth="yes"/>
      <point x="135" y="709"/>
      <point x="38" y="609"/>
      <point x="38" y="470" type="curve" smooth="yes"/>
      <point x="38" y="338"/>
      <point x="128" y="245"/>
      <point x="256" y="245" type="curve" smooth="yes"/>
      <point x="323" y="245"/>
      <point x="372" y="269"/>
      <point x="418" y="324" type="curve"/>
      <point x="417" y="151"/>
      <point x="361" y="55"/>
      <point x="260" y="55" type="curve" smooth="yes"/>
      <point x="198" y="55"/>
      <point x="155" y="94"/>
      <point x="141" y="162" type="curve"/>
    </contour>
    <contour>
      <point x="269" y="632" type="curve" smooth="yes"/>
      <point x="351" y="632"/>
      <point x="413" y="564"/>
      <point x="413" y="472" type="curve" smooth="yes"/>
      <point x="413" y="385"/>
      <point x="352" y="323"/>
      <point x="266" y="323" type="curve" smooth="yes"/>
      <point x="181" y="323"/>
      <point x="128" y="382"/>
      <point x="128" y="477" type="curve" smooth="yes"/>
      <point x="128" y="567"/>
      <point x="188" y="632"/>
    </contour>
  </outline>
</glyph>
<glyph name="colon" format="1">
  <advance width="278"/>
  <unicode hex="003A"/>
  <outline>
    <contour>
      <point x="214" y="104" type="line"/>
      <point x="110" y="104" type="line"/>
      <point x="110" y="0" type="line"/>
      <point x="214" y="0" type="line"/>
    </contour>
    <contour>
      <point x="214" y="524" type="line"/>
      <point x="110" y="524" type="line"/>
      <point x="110" y="420" type="line"/>
      <point x="214" y="420" type="line"/>
    </contour>
  </outline>
</glyph>
<glyph name="semicolon" format="1">
  <advance width="278"/>
  <unicode hex="003B"/>
  <outline>
    <contour>
      <point x="215" y="524" type="line"/>
      <point x="111" y="524" type="line"/>
      <point x="111" y="420" type="line"/>
      <point x="215" y="420" type="line"/>
    </contour>
    <contour>
      <point x="110" y="104" type="line"/>
      <point x="110" y="0" type="line"/>
      <point x="170" y="0" type="line"/>
      <point x="170" y="-18" type="line" smooth="yes"/>
      <point x="170" y="-87"/>
      <point x="157" y="-107"/>
      <point x="110" y="-109" type="curve"/>
      <point x="110" y="-147" type="line"/>
      <point x="180" y="-147"/>
      <point x="215" y="-102"/>
      <point x="215" y="-16" type="curve" smooth="yes"/>
      <point x="215" y="104" type="line"/>
    </contour>
  </outline>
</glyph>
<glyph name="less" format="1">
  <advance width="584"/>
  <unicode hex="003C"/>
  <outline>
    <contour>
      <point x="45" y="198" type="line"/>
      <point x="534" y="-9" type="line"/>
      <point x="534" y="70" type="line"/>
      <point x="140" y="234" type="line"/>
      <point x="534" y="395" type="line"/>
      <point x="534" y="474" type="line"/>
      <point x="45" y="267" type="line"/>
    </contour>
  </outline>
</glyph>
<glyph name="equal" format="1">
  <advance width="584"/>
  <unicode hex="003D"/>
  <outline>
    <contour>
      <point x="534" y="353" type="line"/>
      <point x="50" y="353" type="line"/>
      <point x="50" y="283" type="line"/>
      <point x="534" y="283" type="line"/>
    </contour>
    <contour>
      <point x="534" y="181" type="line"/>
      <point x="50" y="181" type="line"/>
      <point x="50" y="111" type="line"/>
      <point x="534" y="111" type="line"/>
    </contour>
  </outline>
</glyph>
<glyph name="greater" format="1">
  <advance width="584"/>
  <unicode hex="003E"/>
  <outline>
    <contour>
      <point x="539" y="267" type="line"/>
      <point x="50" y="474" type="line"/>
      <point x="50" y="395" type="line"/>
      <point x="444" y="231" type="line"/>
      <point x="50" y="70" type="line"/>
      <point x="50" y="-9" type="line"/>
      <point x="539" y="198" type="line"/>
    </contour>
  </outline>
</glyph>
<glyph name="question" format="1">
  <advance width="556"/>
  <unicode hex="003F"/>
  <outline>
    <contour>
      <point x="330" y="199" type="line"/>
      <point x="330" y="246" type="line" smooth="yes"/>
      <point x="330" y="290"/>
      <point x="341" y="307"/>
      <point x="409" y="370" type="curve" smooth="yes"/>
      <point x="484" y="438"/>
      <point x="509" y="483"/>
      <point x="509" y="549" type="curve" smooth="yes"/>
      <point x="509" y="666"/>
      <point x="426" y="741"/>
      <point x="296" y="741" type="curve" smooth="yes"/>
      <point x="152" y="741"/>
      <point x="77" y="661"/>
      <point x="77" y="507" type="curve"/>
      <point x="162" y="507" type="line"/>
      <point x="162" y="553"/>
      <point x="167" y="581"/>
      <point x="179" y="605" type="curve" smooth="yes"/>
      <point x="198" y="642"/>
      <point x="238" y="663"/>
      <point x="291" y="663" type="curve" smooth="yes"/>
      <point x="368" y="663"/>
      <point x="419" y="617"/>
      <point x="419" y="549" type="curve" smooth="yes"/>
      <point x="419" y="503"/>
      <point x="397" y="464"/>
      <point x="344" y="417" type="curve" smooth="yes"/>
      <point x="285" y="364"/>
      <point x="285" y="364"/>
      <point x="268" y="341" type="curve" smooth="yes"/>
      <point x="247" y="313"/>
      <point x="240" y="290"/>
      <point x="240" y="254" type="curve" smooth="yes"/>
      <point x="240" y="199" type="line"/>
    </contour>
    <contour>
      <point x="330" y="104" type="line"/>
      <point x="240" y="104" type="line"/>
      <point x="240" y="0" type="line"/>
      <point x="330" y="0" type="line"/>
    </contour>
  </outline>
</glyph>
<glyph name="at" format="1">
  <advance width="1015"/>
  <unicode hex="0040"/>
  <outline>
    <contour>
      <point x="665" y="501" type="line"/>
      <point x="643" y="435" type="line"/>
      <point x="618" y="492"/>
      <point x="576" y="522"/>
      <point x="521" y="522" type="curve" smooth="yes"/>
      <point x="387" y="522"/>
      <point x="264" y="390"/>
      <point x="264" y="245" type="curve" smooth="yes"/>
      <point x="264" y="141"/>
      <point x="334" y="62"/>
      <point x="427" y="62" type="curve" smooth="yes"/>
      <point x="480" y="62"/>
      <point x="523" y="84"/>
      <point x="569" y="134" type="curve"/>
      <point x="578" y="83"/>
      <point x="616" y="57"/>
      <point x="679" y="57" type="curve" smooth="yes"/>
      <point x="753" y="57"/>
      <point x="814" y="86"/>
      <point x="865" y="146" type="curve" smooth="yes"/>
      <point x="920" y="210"/>
      <point x="951" y="291"/>
      <point x="951" y="369" type="curve" smooth="yes"/>
      <point x="951" y="572"/>
      <point x="758" y="741"/>
      <point x="525" y="741" type="curve" smooth="yes"/>
      <point x="406" y="741"/>
      <point x="280" y="692"/>
      <point x="192" y="612" type="curve" smooth="yes"/>
      <point x="94" y="523"/>
      <point x="34" y="389"/>
      <point x="34" y="258" type="curve" smooth="yes"/>
      <point x="34" y="36"/>
      <point x="236" y="-142"/>
      <point x="489" y="-142" type="curve" smooth="yes"/>
      <point x="563" y="-142"/>
      <point x="643" y="-127"/>
      <point x="715" y="-100" type="curve"/>
      <point x="687" y="-33" type="line"/>
      <point x="605" y="-56"/>
      <point x="548" y="-65"/>
      <point x="494" y="-65" type="curve" smooth="yes"/>
      <point x="282" y="-65"/>
      <point x="119" y="82"/>
      <point x="119" y="273" type="curve" smooth="yes"/>
      <point x="119" y="483"/>
      <point x="301" y="664"/>
      <point x="512" y="664" type="curve" smooth="yes"/>
      <point x="703" y="664"/>
      <point x="864" y="524"/>
      <point x="864" y="357" type="curve" smooth="yes"/>
      <point x="864" y="240"/>
      <point x="781" y="127"/>
      <point x="696" y="127" type="curve" smooth="yes"/>
      <point x="669" y="127"/>
      <point x="646" y="147"/>
      <point x="646" y="171" type="curve" smooth="yes"/>
      <point x="646" y="180"/>
      <point x="650" y="198"/>
      <point x="658" y="221" type="curve" smooth="yes"/>
      <point x="748" y="501" type="line"/>
    </contour>
    <contour>
      <point x="515" y="458" type="curve" smooth="yes"/>
      <point x="571" y="458"/>
      <point x="612" y="416"/>
      <point x="609" y="362" type="curve" smooth="yes"/>
      <point x="607" y="312"/>
      <point x="580" y="228"/>
      <point x="555" y="191" type="curve" smooth="yes"/>
      <point x="527" y="150"/>
      <point x="490" y="126"/>
      <point x="453" y="126" type="curve" smooth="yes"/>
      <point x="398" y="126"/>
      <point x="354" y="178"/>
      <point x="354" y="244" type="curve" smooth="yes"/>
      <point x="354" y="356"/>
      <point x="431" y="458"/>
    </contour>
  </outline>
</glyph>
<glyph name="A" format="1">
  <advance width="667"/>
  <unicode hex="0041"/>
  <outline>
    <contour>
      <point x="474" y="219" type="line"/>
      <point x="549" y="0" type="line"/>
      <point x="653" y="0" type="line"/>
      <point x="397" y="729" type="line"/>
      <point x="277" y="729" type="line"/>
      <point x="17" y="0" type="line"/>
      <point x="116" y="0" type="line"/>
      <point x="193" y="219" type="line"/>
    </contour>
    <contour>
      <point x="448" y="297" type="line"/>
      <point x="216" y="297" type="line"/>
      <point x="336" y="629" type="line"/>
    </contour>
  </outline>
</glyph>
<glyph name="B" format="1">
  <advance width="667"/>
  <unicode hex="0042"/>
  <outline>
    <contour>
      <point x="79" y="0" type="line"/>
      <point x="408" y="0" type="line" smooth="yes"/>
      <point x="477" y="0"/>
      <point x="528" y="19"/>
      <point x="567" y="61" type="curve" smooth="yes"/>
      <point x="603" y="99"/>
      <point x="623" y="151"/>
      <point x="623" y="208" type="curve" smooth="yes"/>
      <point x="623" y="296"/>
      <point x="583" y="349"/>
      <point x="490" y="385" type="curve"/>
      <point x="556" y="416"/>
      <point x="591" y="470"/>
      <point x="591" y="544" type="curve" smooth="yes"/>
      <point x="591" y="597"/>
      <point x="571" y="644"/>
      <point x="533" y="678" type="curve" smooth="yes"/>
      <point x="495" y="713"/>
      <point x="445" y="729"/>
      <point x="375" y="729" type="curve" smooth="yes"/>
      <point x="79" y="729" type="line"/>
    </contour>
    <contour>
      <point x="172" y="415" type="line"/>
      <point x="172" y="647" type="line"/>
      <point x="352" y="647" type="line" smooth="yes"/>
      <point x="404" y="647"/>
      <point x="433" y="640"/>
      <point x="458" y="621" type="curve" smooth="yes"/>
      <point x="484" y="601"/>
      <point x="498" y="571"/>
      <point x="498" y="531" type="curve" smooth="yes"/>
      <point x="498" y="492"/>
      <point x="484" y="461"/>
      <point x="458" y="441" type="curve" smooth="yes"/>
      <point x="433" y="422"/>
      <point x="404" y="415"/>
      <point x="352" y="415" type="curve" smooth="yes"/>
    </contour>
    <contour>
      <point x="172" y="82" type="line"/>
      <point x="172" y="333" type="line"/>
      <point x="399" y="333" type="line" smooth="yes"/>
      <point x="444" y="333"/>
      <point x="474" y="322"/>
      <point x="496" y="298" type="curve" smooth="yes"/>
      <point x="518" y="275"/>
      <point x="530" y="243"/>
      <point x="530" y="207" type="curve" smooth="yes"/>
      <point x="530" y="172"/>
      <point x="518" y="140"/>
      <point x="496" y="117" type="curve" smooth="yes"/>
      <point x="474" y="93"/>
      <point x="444" y="82"/>
      <point x="399" y="82" type="curve" smooth="yes"/>
    </contour>
  </outline>
</glyph>
<glyph name="D" format="1">
  <advance width="722"/>
  <unicode hex="0044"/>
  <outline>
    <contour>
      <point x="89" y="0" type="line"/>
      <point x="370" y="0" type="line" smooth="yes"/>
      <point x="554" y="0"/>
      <point x="667" y="138"/>
      <point x="667" y="365" type="curve" smooth="yes"/>
      <point x="667" y="591"/>
      <point x="555" y="729"/>
      <point x="370" y="729" type="curve" smooth="yes"/>
      <point x="89" y="729" type="line"/>
    </contour>
    <contour>
      <point x="182" y="82" type="line"/>
      <point x="182" y="647" type="line"/>
      <point x="354" y="647" type="line" smooth="yes"/>
      <point x="498" y="647"/>
      <point x="574" y="550"/>
      <point x="574" y="364" type="curve" smooth="yes"/>
      <point x="574" y="180"/>
      <point x="498" y="82"/>
      <point x="354" y="82" type="curve" smooth="yes"/>
    </contour>
  </outline>
</glyph>
<glyph name="F" format="1">
  <advance width="611"/>
  <unicode hex="0046"/>
  <outline>
    <contour>
      <point x="183" y="332" type="line"/>
      <point x="531" y="332" type="line"/>
      <point x="531" y="414" type="line"/>
      <point x="183" y="414" type="line"/>
      <point x="183" y="647" type="line"/>
      <point x="579" y="647" type="line"/>
      <point x="579" y="729" type="line"/>
      <point x="90" y="729" type="line"/>
      <point x="90" y="0" type="line"/>
      <point x="183" y="0" type="line"/>
    </contour>
  </outline>
</glyph>
<glyph name="G" format="1">
  <advance width="778"/>
  <unicode hex="0047"/>
  <outline>
    <contour>
      <point x="709" y="385" type="line"/>
      <point x="405" y="385" type="line"/>
      <point x="405" y="303" type="line"/>
      <point x="627" y="303" type="line"/>
      <point x="627" y="283" type="line" smooth="yes"/>
      <point x="627" y="153"/>
      <point x="531" y="59"/>
      <point x="398" y="59" type="curve" smooth="yes"/>
      <point x="324" y="59"/>
      <point x="257" y="86"/>
      <point x="214" y="133" type="curve" smooth="yes"/>
      <point x="166" y="185"/>
      <point x="137" y="272"/>
      <point x="137" y="362" type="curve" smooth="yes"/>
      <point x="137" y="541"/>
      <point x="239" y="659"/>
      <point x="393" y="659" type="curve" smooth="yes"/>
      <point x="504" y="659"/>
      <point x="584" y="602"/>
      <point x="604" y="508" type="curve"/>
      <point x="699" y="508" type="line"/>
      <point x="673" y="656"/>
      <point x="561" y="741"/>
      <point x="394" y="741" type="curve" smooth="yes"/>
      <point x="305" y="741"/>
      <point x="233" y="718"/>
      <point x="176" y="671" type="curve" smooth="yes"/>
      <point x="92" y="601"/>
      <point x="44" y="488"/>
      <point x="44" y="357" type="curve" smooth="yes"/>
      <point x="44" y="133"/>
      <point x="181" y="-23"/>
      <point x="378" y="-23" type="curve" smooth="yes"/>
      <point x="477" y="-23"/>
      <point x="556" y="14"/>
      <point x="627" y="93" type="curve"/>
      <point x="650" y="-4" type="line"/>
      <point x="709" y="-4" type="line"/>
    </contour>
  </outline>
</glyph>
<glyph name="H" format="1">
  <advance width="722"/>
  <unicode hex="0048"/>
  <outline>
    <contour>
      <point x="551" y="332" type="line"/>
      <point x="551" y="0" type="line"/>
      <point x="644" y="0" type="line"/>
      <point x="644" y="729" type="line"/>
      <point x="551" y="729" type="line"/>
      <point x="551" y="414" type="line"/>
      <point x="176" y="414" type="line"/>
      <point x="176" y="729" type="line"/>
      <point x="83" y="729" type="line"/>
      <point x="83" y="0" type="line"/>
      <point x="177" y="0" type="line"/>
      <point x="177" y="332" type="line"/>
    </contour>
  </outline>
</glyph>
<glyph name="I" format="1">
  <advance width="278"/>
  <unicode hex="0049"/>
  <outline>
    <contour>
      <point x="194" y="729" type="line"/>
      <point x="100" y="729" type="line"/>
      <point x="100" y="0" type="line"/>
      <point x="194" y="0" type="line"/>
    </contour>
  </outline>
</glyph>
<glyph name="J" format="1">
  <advance width="500"/>
  <unicode hex="004A"/>
  <outline>
    <contour>
      <point x="333" y="729" type="line"/>
      <point x="333" y="216" type="line" smooth="yes"/>
      <point x="333" y="158"/>
      <point x="327" y="125"/>
      <point x="310" y="100" type="curve" smooth="yes"/>
      <point x="292" y="72"/>
      <point x="258" y="55"/>
      <point x="221" y="55" type="curve" smooth="yes"/>
      <point x="151" y="55"/>
      <point x="112" y="102"/>
      <point x="112" y="187" type="curve" smooth="yes"/>
      <point x="112" y="234" type="line"/>
      <point x="17" y="234" type="line"/>
      <point x="17" y="170" type="line" smooth="yes"/>
      <point x="17" y="52"/>
      <point x="95" y="-23"/>
      <point x="220" y="-23" type="curve" smooth="yes"/>
      <point x="347" y="-23"/>
      <point x="426" y="56"/>
      <point x="426" y="182" type="curve" smooth="yes"/>
      <point x="426" y="729" type="line"/>
    </contour>
  </outline>
</glyph>
<glyph name="K" format="1">
  <advance width="667"/>
  <unicode hex="004B"/>
  <outline>
    <contour>
      <point x="172" y="255" type="line"/>
      <point x="291" y="374" type="line"/>
      <point x="548" y="0" type="line"/>
      <point x="658" y="0" type="line"/>
      <point x="358" y="432" type="line"/>
      <point x="655" y="729" type="line"/>
      <point x="535" y="729" type="line"/>
      <point x="172" y="360" type="line"/>
      <point x="172" y="729" type="line"/>
      <point x="79" y="729" type="line"/>
      <point x="79" y="0" type="line"/>
      <point x="172" y="0" type="line"/>
    </contour>
  </outline>
</glyph>
<glyph name="L" format="1">
  <advance width="556"/>
  <unicode hex="004C"/>
  <outline>
    <contour>
      <point x="173" y="729" type="line"/>
      <point x="80" y="729" type="line"/>
      <point x="80" y="0" type="line"/>
      <point x="533" y="0" type="line"/>
      <point x="533" y="82" type="line"/>
      <point x="173" y="82" type="line"/>
    </contour>
  </outline>
</glyph>
<glyph name="M" format="1">
  <advance width="833"/>
  <unicode hex="004D"/>
  <outline>
    <contour>
      <point x="468" y="0" type="line"/>
      <point x="673" y="611" type="line"/>
      <point x="673" y="0" type="line"/>
      <point x="761" y="0" type="line"/>
      <point x="761" y="729" type="line"/>
      <point x="632" y="729" type="line"/>
      <point x="420" y="94" type="line"/>
      <point x="204" y="729" type="line"/>
      <point x="75" y="729" type="line"/>
      <point x="75" y="0" type="line"/>
      <point x="163" y="0" type="line"/>
      <point x="163" y="611" type="line"/>
      <point x="370" y="0" type="line"/>
    </contour>
  </outline>
</glyph>
<glyph name="P" format="1">
  <advance width="667"/>
  <unicode hex="0050"/>
  <outline>
    <contour>
      <point x="184" y="309" type="line"/>
      <point x="413" y="309" type="line" smooth="yes"/>
      <point x="470" y="309"/>
      <point x="515" y="326"/>
      <point x="554" y="361" type="curve" smooth="yes"/>
      <point x="598" y="401"/>
      <point x="617" y="448"/>
      <point x="617" y="515" type="curve" smooth="yes"/>
      <point x="617" y="652"/>
      <point x="536" y="729"/>
      <point x="392" y="729" type="curve" smooth="yes"/>
      <point x="91" y="729" type="line"/>
      <point x="91" y="0" type="line"/>
      <point x="184" y="0" type="line"/>
    </contour>
    <contour>
      <point x="184" y="391" type="line"/>
      <point x="184" y="647" type="line"/>
      <point x="378" y="647" type="line" smooth="yes"/>
      <point x="467" y="647"/>
      <point x="520" y="599"/>
      <point x="520" y="519" type="curve" smooth="yes"/>
      <point x="520" y="439"/>
      <point x="467" y="391"/>
      <point x="378" y="391" type="curve" smooth="yes"/>
    </contour>
  </outline>
</glyph>
<glyph name="Q" format="1">
  <advance width="778"/>
  <unicode hex="0051"/>
  <outline>
    <contour>
      <point x="733" y="-1" type="line"/>
      <point x="639" y="76" type="line"/>
      <point x="708" y="152"/>
      <point x="742" y="246"/>
      <point x="742" y="361" type="curve" smooth="yes"/>
      <point x="742" y="587"/>
      <point x="600" y="741"/>
      <point x="390" y="741" type="curve" smooth="yes"/>
      <point x="180" y="741"/>
      <point x="38" y="587"/>
      <point x="38" y="359" type="curve" smooth="yes"/>
      <point x="38" y="131"/>
      <point x="180" y="-23"/>
      <point x="390" y="-23" type="curve" smooth="yes"/>
      <point x="462" y="-23"/>
      <point x="522" y="-7"/>
      <point x="581" y="28" type="curve"/>
      <point x="686" y="-59" type="line"/>
    </contour>
    <contour>
      <point x="481" y="205" type="line"/>
      <point x="435" y="149" type="line"/>
      <point x="509" y="87" type="line"/>
      <point x="466" y="67"/>
      <point x="433" y="59"/>
      <point x="389" y="59" type="curve" smooth="yes"/>
      <point x="234" y="59"/>
      <point x="131" y="179"/>
      <point x="131" y="359" type="curve" smooth="yes"/>
      <point x="131" y="539"/>
      <point x="235" y="659"/>
      <point x="390" y="659" type="curve" smooth="yes"/>
      <point x="545" y="659"/>
      <point x="649" y="539"/>
      <point x="649" y="360" type="curve" smooth="yes"/>
      <point x="649" y="266"/>
      <point x="624" y="193"/>
      <point x="570" y="132" type="curve"/>
    </contour>
  </outline>
</glyph>
<glyph name="R" format="1">
  <advance width="722"/>
  <unicode hex="0052"/>
  <outline>
    <contour>
      <point x="186" y="314" type="line"/>
      <point x="426" y="314" type="line" smooth="yes"/>
      <point x="509" y="314"/>
      <point x="546" y="274"/>
      <point x="546" y="184" type="curve"/>
      <point x="545" y="119" type="line"/>
      <point x="545" y="74"/>
      <point x="553" y="30"/>
      <point x="566" y="0" type="curve"/>
      <point x="679" y="0" type="line"/>
      <point x="679" y="23" type="line"/>
      <point x="644" y="47"/>
      <point x="637" y="73"/>
      <point x="635" y="170" type="curve" smooth="yes"/>
      <point x="634" y="290"/>
      <point x="615" y="326"/>
      <point x="536" y="360" type="curve"/>
      <point x="618" y="400"/>
      <point x="651" y="451"/>
      <point x="651" y="534" type="curve" smooth="yes"/>
      <point x="651" y="660"/>
      <point x="572" y="729"/>
      <point x="429" y="729" type="curve" smooth="yes"/>
      <point x="93" y="729" type="line"/>
      <point x="93" y="0" type="line"/>
      <point x="186" y="0" type="line"/>
    </contour>
    <contour>
      <point x="186" y="396" type="line"/>
      <point x="186" y="647" type="line"/>
      <point x="411" y="647" type="line" smooth="yes"/>
      <point x="463" y="647"/>
      <point x="493" y="639"/>
      <point x="516" y="619" type="curve" smooth="yes"/>
      <point x="541" y="598"/>
      <point x="554" y="565"/>
      <point x="554" y="521" type="curve" smooth="yes"/>
      <point x="554" y="435"/>
      <point x="510" y="396"/>
      <point x="411" y="396" type="curve" smooth="yes"/>
    </contour>
  </outline>
</glyph>
<glyph name="T" format="1">
  <advance width="611"/>
  <unicode hex="0054"/>
  <outline>
    <contour>
      <point x="354" y="647" type="line"/>
      <point x="593" y="647" type="line"/>
      <point x="593" y="729" type="line"/>
      <point x="21" y="729" type="line"/>
      <point x="21" y="647" type="line"/>
      <point x="261" y="647" type="line"/>
      <point x="261" y="0" type="line"/>
      <point x="354" y="0" type="line"/>
    </contour>
  </outline>
</glyph>
<glyph name="V" format="1">
  <advance width="667"/>
  <unicode hex="0056"/>
  <outline>
    <contour>
      <point x="392" y="0" type="line"/>
      <point x="645" y="729" type="line"/>
      <point x="546" y="729" type="line"/>
      <point x="344" y="112" type="line"/>
      <point x="130" y="729" type="line"/>
      <point x="30" y="729" type="line"/>
      <point x="292" y="0" type="line"/>
    </contour>
  </outline>
</glyph>
<glyph name="W" format="1">
  <advance width="944"/>
  <unicode hex="0057"/>
  <outline>
    <contour>
      <point x="744" y="0" type="line"/>
      <point x="929" y="729" type="line"/>
      <point x="825" y="729" type="line"/>
      <point x="691" y="137" type="line"/>
      <point x="525" y="729" type="line"/>
      <point x="425" y="729" type="line"/>
      <point x="263" y="137" type="line"/>
      <point x="126" y="729" type="line"/>
      <point x="22" y="729" type="line"/>
      <point x="209" y="0" type="line"/>
      <point x="311" y="0" type="line"/>
      <point x="474" y="599" type="line"/>
      <point x="642" y="0" type="line"/>
    </contour>
  </outline>
</glyph>
<glyph name="X" format="1">
  <advance width="667"/>
  <unicode hex="0058"/>
  <outline>
    <contour>
      <point x="391" y="374" type="line"/>
      <point x="637" y="729" type="line"/>
      <point x="526" y="729" type="line"/>
      <point x="338" y="443" type="line"/>
      <point x="151" y="729" type="line"/>
      <point x="38" y="729" type="line"/>
      <point x="280" y="374" type="line"/>
      <point x="22" y="0" type="line"/>
      <point x="135" y="0" type="line"/>
      <point x="335" y="304" type="line"/>
      <point x="534" y="0" type="line"/>
      <point x="649" y="0" type="line"/>
    </contour>
  </outline>
</glyph>
<glyph name="Y" format="1">
  <advance width="667"/>
  <unicode hex="0059"/>
  <outline>
    <contour>
      <point x="387" y="286" type="line"/>
      <point x="661" y="729" type="line"/>
      <point x="550" y="729" type="line"/>
      <point x="342" y="374" type="line"/>
      <point x="128" y="729" type="line"/>
      <point x="13" y="729" type="line"/>
      <point x="294" y="286" type="line"/>
      <point x="294" y="0" type="line"/>
      <point x="387" y="0" type="line"/>
    </contour>
  </outline>
</glyph>
<glyph name="Z" format="1">
  <advance width="611"/>
  <unicode hex="005A"/>
  <outline>
    <contour>
      <point x="581" y="729" type="line"/>
      <point x="56" y="729" type="line"/>
      <point x="56" y="647" type="line"/>
      <point x="466" y="647" type="line"/>
      <point x="28" y="82" type="line"/>
      <point x="28" y="0" type="line"/>
      <point x="583" y="0" type="line"/>
      <point x="583" y="82" type="line"/>
      <point x="145" y="82" type="line"/>
      <point x="581" y="645" type="line"/>
    </contour>
  </outline>
</glyph>
<glyph name="bracketleft" format="1">
  <advance width="278"/>
  <unicode hex="005B"/>
  <outline>
    <contour>
      <point x="250" y="729" type="line"/>
      <point x="64" y="729" type="line"/>
      <point x="64" y="-212" type="line"/>
      <point x="250" y="-212" type="line"/>
      <point x="250" y="-140" type="line"/>
      <point x="147" y="-140" type="line"/>
      <point x="147" y="657" type="line"/>
      <point x="250" y="657" type="line"/>
    </contour>
  </outline>
</glyph>
<glyph name="backslash" format="1">
  <advance width="278"/>
  <unicode hex="005C"/>
  <outline>
    <contour>
      <point x="47" y="729" type="line"/>
      <point x="-8" y="729" type="line"/>
      <point x="229" y="-20" type="line"/>
      <point x="284" y="-20" type="line"/>
    </contour>
  </outline>
</glyph>
<glyph name="bracketright" format="1">
  <advance width="278"/>
  <unicode hex="005D"/>
  <outline>
    <contour>
      <point x="23" y="-212" type="line"/>
      <point x="209" y="-212" type="line"/>
      <point x="209" y="729" type="line"/>
      <point x="23" y="729" type="line"/>
      <point x="23" y="657" type="line"/>
      <point x="126" y="657" type="line"/>
      <point x="126" y="-140" type="line"/>
      <point x="23" y="-140" type="line"/>
    </contour>
  </outline>
</glyph>
<glyph name="asciicircum" format="1">
  <advance width="469"/>
  <unicode hex="005E"/>
  <outline>
    <contour>
      <point x="197" y="709" type="line"/>
      <point x="44" y="329" type="line"/>
      <point x="113" y="329" type="line"/>
      <point x="234" y="629" type="line"/>
      <point x="356" y="329" type="line"/>
      <point x="425" y="329" type="line"/>
      <point x="270" y="709" type="line"/>
    </contour>
  </outline>
</glyph>
<glyph name="underscore" format="1">
  <advance width="556"/>
  <unicode hex="005F"/>
  <outline>
    <contour>
      <point x="578" y="-126" type="line"/>
      <point x="-22" y="-126" type="line"/>
      <point x="-22" y="-176" type="line"/>
      <point x="578" y="-176" type="line"/>
    </contour>
  </outline>
</glyph>
<glyph name="grave" format="1">
  <advance width="333"/>
  <unicode hex="0060"/>
  <outline>
    <contour>
      <point x="135" y="740" type="line"/>
      <point x="22" y="740" type="line"/>
      <point x="171" y="592" type="line"/>
      <point x="231" y="592" type="line"/>
    </contour>
  </outline>
</glyph>
<glyph name="b" format="1">
  <advance width="556"/>
  <unicode hex="0062"/>
  <outline>
    <contour>
      <point x="54" y="729" type="line"/>
      <point x="54" y="0" type="line"/>
      <point x="129" y="0" type="line"/>
      <point x="129" y="67" type="line"/>
      <point x="169" y="6"/>
      <point x="222" y="-23"/>
      <point x="295" y="-23" type="curve" smooth="yes"/>
      <point x="433" y="-23"/>
      <point x="523" y="90"/>
      <point x="523" y="264" type="curve" smooth="yes"/>
      <point x="523" y="434"/>
      <point x="437" y="539"/>
      <point x="299" y="539" type="curve" smooth="yes"/>
      <point x="227" y="539"/>
      <point x="176" y="512"/>
      <point x="137" y="453" type="curve"/>
      <point x="137" y="729" type="line"/>
    </contour>
    <contour>
      <point x="283" y="461" type="curve" smooth="yes"/>
      <point x="376" y="461"/>
      <point x="436" y="380"/>
      <point x="436" y="255" type="curve" smooth="yes"/>
      <point x="436" y="136"/>
      <point x="374" y="55"/>
      <point x="283" y="55" type="curve" smooth="yes"/>
      <point x="195" y="55"/>
      <point x="137" y="135"/>
      <point x="137" y="258" type="curve" smooth="yes"/>
      <point x="137" y="381"/>
      <point x="195" y="461"/>
    </contour>
  </outline>
</glyph>
<glyph name="e" format="1">
  <advance width="556"/>
  <unicode hex="0065"/>
  <outline>
    <contour>
      <point x="513" y="234" type="line"/>
      <point x="513" y="314"/>
      <point x="507" y="362"/>
      <point x="492" y="401" type="curve" smooth="yes"/>
      <point x="458" y="487"/>
      <point x="378" y="539"/>
      <point x="280" y="539" type="curve" smooth="yes"/>
      <point x="134" y="539"/>
      <point x="40" y="427"/>
      <point x="40" y="255" type="curve" smooth="yes"/>
      <point x="40" y="83"/>
      <point x="131" y="-23"/>
      <point x="278" y="-23" type="curve" smooth="yes"/>
      <point x="398" y="-23"/>
      <point x="481" y="45"/>
      <point x="502" y="159" type="curve"/>
      <point x="418" y="159" type="line"/>
      <point x="395" y="90"/>
      <point x="348" y="54"/>
      <point x="281" y="54" type="curve" smooth="yes"/>
      <point x="228" y="54"/>
      <point x="183" y="78"/>
      <point x="155" y="122" type="curve" smooth="yes"/>
      <point x="135" y="152"/>
      <point x="128" y="182"/>
      <point x="127" y="234" type="curve"/>
    </contour>
    <contour>
      <point x="129" y="302" type="line"/>
      <point x="136" y="399"/>
      <point x="195" y="462"/>
      <point x="279" y="462" type="curve" smooth="yes"/>
      <point x="361" y="462"/>
      <point x="424" y="394"/>
      <point x="424" y="308" type="curve" smooth="yes"/>
      <point x="424" y="306"/>
      <point x="424" y="304"/>
      <point x="423" y="302" type="curve"/>
    </contour>
  </outline>
</glyph>
<glyph name="g" format="1">
  <advance width="556"/>
  <unicode hex="0067"/>
  <outline>
    <contour>
      <point x="412" y="524" type="line"/>
      <point x="412" y="448" type="line"/>
      <point x="370" y="510"/>
      <point x="319" y="539"/>
      <point x="252" y="539" type="curve" smooth="yes"/>
      <point x="119" y="539"/>
      <point x="29" y="423"/>
      <point x="29" y="253" type="curve" smooth="yes"/>
      <point x="29" y="167"/>
      <point x="52" y="97"/>
      <point x="95" y="47" type="curve" smooth="yes"/>
      <point x="134" y="3"/>
      <point x="190" y="-23"/>
      <point x="245" y="-23" type="curve" smooth="yes"/>
      <point x="311" y="-23"/>
      <point x="357" y="5"/>
      <point x="404" y="71" type="curve"/>
      <point x="404" y="44" type="line" smooth="yes"/>
      <point x="404" y="-27"/>
      <point x="395" y="-70"/>
      <point x="374" y="-99" type="curve" smooth="yes"/>
      <point x="352" y="-130"/>
      <point x="309" y="-148"/>
      <point x="258" y="-148" type="curve" smooth="yes"/>
      <point x="220" y="-148"/>
      <point x="186" y="-138"/>
      <point x="163" y="-120" type="curve" smooth="yes"/>
      <point x="144" y="-105"/>
      <point x="136" y="-91"/>
      <point x="131" y="-60" type="curve"/>
      <point x="46" y="-60" type="line"/>
      <point x="55" y="-159"/>
      <point x="132" y="-218"/>
      <point x="255" y="-218" type="curve" smooth="yes"/>
      <point x="333" y="-218"/>
      <point x="400" y="-193"/>
      <point x="434" y="-151" type="curve" smooth="yes"/>
      <point x="474" y="-103"/>
      <point x="489" y="-37"/>
      <point x="489" y="86" type="curve" smooth="yes"/>
      <point x="489" y="524" type="line"/>
    </contour>
    <contour>
      <point x="261" y="462" type="curve" smooth="yes"/>
      <point x="351" y="462"/>
      <point x="404" y="386"/>
      <point x="404" y="255" type="curve" smooth="yes"/>
      <point x="404" y="130"/>
      <point x="350" y="54"/>
      <point x="262" y="54" type="curve" smooth="yes"/>
      <point x="171" y="54"/>
      <point x="116" y="131"/>
      <point x="116" y="258" type="curve" smooth="yes"/>
      <point x="116" y="384"/>
      <point x="172" y="462"/>
    </contour>
  </outline>
</glyph>
<glyph name="i" format="1">
  <advance width="222"/>
  <unicode hex="0069"/>
  <outline>
    <contour>
      <point x="150" y="524" type="line"/>
      <point x="67" y="524" type="line"/>
      <point x="67" y="0" type="line"/>
      <point x="150" y="0" type="line"/>
    </contour>
    <contour>
      <point x="150" y="729" type="line"/>
      <point x="66" y="729" type="line"/>
      <point x="66" y="624" type="line"/>
      <point x="150" y="624" type="line"/>
    </contour>
  </outline>
</glyph>
<glyph name="j" format="1">
  <advance width="222"/>
  <unicode hex="006A"/>
  <outline>
    <contour>
      <point x="70" y="524" type="line"/>
      <point x="70" y="-76" type="line" smooth="yes"/>
      <point x="70" y="-128"/>
      <point x="53" y="-145"/>
      <point x="2" y="-145" type="curve" smooth="yes"/>
      <point x="-1" y="-145"/>
      <point x="-1" y="-145"/>
      <point x="-18" y="-144" type="curve"/>
      <point x="-18" y="-215" type="line"/>
      <point x="-8" y="-217"/>
      <point x="-3" y="-218"/>
      <point x="10" y="-218" type="curve" smooth="yes"/>
      <point x="104" y="-218"/>
      <point x="153" y="-180"/>
      <point x="153" y="-109" type="curve" smooth="yes"/>
      <point x="153" y="524" type="line"/>
    </contour>
    <contour>
      <point x="153" y="729" type="line"/>
      <point x="70" y="729" type="line"/>
      <point x="70" y="624" type="line"/>
      <point x="153" y="624" type="line"/>
    </contour>
  </outline>
</glyph>
<glyph name="k" format="1">
  <advance width="500"/>
  <unicode hex="006B"/>
  <outline>
    <contour>
      <point x="141" y="729" type="line"/>
      <point x="58" y="729" type="line"/>
      <point x="58" y="0" type="line"/>
      <point x="141" y="0" type="line"/>
      <point x="141" y="204" type="line"/>
      <point x="222" y="284" type="line"/>
      <point x="399" y="0" type="line"/>
      <point x="502" y="0" type="line"/>
      <point x="288" y="343" type="line"/>
      <point x="470" y="524" type="line"/>
      <point x="363" y="524" type="line"/>
      <point x="141" y="302" type="line"/>
    </contour>
  </outline>
</glyph>
<glyph name="l" format="1">
  <advance width="222"/>
  <unicode hex="006C"/>
  <outline>
    <contour>
      <point x="152" y="729" type="line"/>
      <point x="68" y="729" type="line"/>
      <point x="68" y="0" type="line"/>
      <point x="152" y="0" type="line"/>
    </contour>
  </outline>
</glyph>
<glyph name="m" format="1">
  <advance width="833"/>
  <unicode hex="006D"/>
  <outline>
    <contour>
      <point x="70" y="524" type="line"/>
      <point x="70" y="0" type="line"/>
      <point x="154" y="0" type="line"/>
      <point x="154" y="329" type="line" smooth="yes"/>
      <point x="154" y="405"/>
      <point x="209" y="466"/>
      <point x="277" y="466" type="curve" smooth="yes"/>
      <point x="339" y="466"/>
      <point x="374" y="428"/>
      <point x="374" y="361" type="curve" smooth="yes"/>
      <point x="374" y="0" type="line"/>
      <point x="458" y="0" type="line"/>
      <point x="458" y="329" type="line" smooth="yes"/>
      <point x="458" y="405"/>
      <point x="513" y="466"/>
      <point x="581" y="466" type="curve" smooth="yes"/>
      <point x="642" y="466"/>
      <point x="678" y="427"/>
      <point x="678" y="361" type="curve" smooth="yes"/>
      <point x="678" y="0" type="line"/>
      <point x="762" y="0" type="line"/>
      <point x="762" y="393" type="line" smooth="yes"/>
      <point x="762" y="487"/>
      <point x="708" y="539"/>
      <point x="610" y="539" type="curve" smooth="yes"/>
      <point x="540" y="539"/>
      <point x="498" y="518"/>
      <point x="449" y="459" type="curve"/>
      <point x="418" y="515"/>
      <point x="376" y="539"/>
      <point x="308" y="539" type="curve" smooth="yes"/>
      <point x="238" y="539"/>
      <point x="192" y="513"/>
      <point x="147" y="450" type="curve"/>
      <point x="147" y="524" type="line"/>
    </contour>
  </outline>
</glyph>
<glyph name="n" format="1">
  <advance width="556"/>
  <unicode hex="006E"/>
  <outline>
    <contour>
      <point x="70" y="524" type="line"/>
      <point x="70" y="0" type="line"/>
      <point x="154" y="0" type="line"/>
      <point x="154" y="289" type="line" smooth="yes"/>
      <point x="154" y="396"/>
      <point x="210" y="466"/>
      <point x="296" y="466" type="curve" smooth="yes"/>
      <point x="362" y="466"/>
      <point x="404" y="426"/>
      <point x="404" y="363" type="curve" smooth="yes"/>
      <point x="404" y="0" type="line"/>
      <point x="487" y="0" type="line"/>
      <point x="487" y="396" type="line" smooth="yes"/>
      <point x="487" y="483"/>
      <point x="422" y="539"/>
      <point x="321" y="539" type="curve" smooth="yes"/>
      <point x="243" y="539"/>
      <point x="193" y="509"/>
      <point x="147" y="436" type="curve"/>
      <point x="147" y="524" type="line"/>
    </contour>
  </outline>
</glyph>
<glyph name="p" format="1">
  <advance width="556"/>
  <unicode hex="0070"/>
  <outline>
    <contour>
      <point x="54" y="-218" type="line"/>
      <point x="138" y="-218" type="line"/>
      <point x="138" y="55" type="line"/>
      <point x="182" y="1"/>
      <point x="231" y="-23"/>
      <point x="299" y="-23" type="curve" smooth="yes"/>
      <point x="434" y="-23"/>
      <point x="523" y="86"/>
      <point x="523" y="253" type="curve" smooth="yes"/>
      <point x="523" y="429"/>
      <point x="437" y="539"/>
      <point x="298" y="539" type="curve" smooth="yes"/>
      <point x="227" y="539"/>
      <point x="170" y="507"/>
      <point x="131" y="445" type="curve"/>
      <point x="131" y="524" type="line"/>
      <point x="54" y="524" type="line"/>
    </contour>
    <contour>
      <point x="284" y="461" type="curve" smooth="yes"/>
      <point x="376" y="461"/>
      <point x="436" y="380"/>
      <point x="436" y="255" type="curve" smooth="yes"/>
      <point x="436" y="136"/>
      <point x="375" y="55"/>
      <point x="284" y="55" type="curve" smooth="yes"/>
      <point x="196" y="55"/>
      <point x="138" y="135"/>
      <point x="138" y="258" type="curve" smooth="yes"/>
      <point x="138" y="381"/>
      <point x="196" y="461"/>
    </contour>
  </outline>
</glyph>
<glyph name="q" format="1">
  <advance width="556"/>
  <unicode hex="0071"/>
  <outline>
    <contour>
      <point x="495" y="-218" type="line"/>
      <point x="495" y="524" type="line"/>
      <point x="421" y="524" type="line"/>
      <point x="421" y="454" type="line"/>
      <point x="382" y="509"/>
      <point x="323" y="539"/>
      <point x="254" y="539" type="curve" smooth="yes"/>
      <point x="116" y="539"/>
      <point x="26" y="426"/>
      <point x="26" y="252" type="curve" smooth="yes"/>
      <point x="26" y="82"/>
      <point x="112" y="-23"/>
      <point x="250" y="-23" type="curve" smooth="yes"/>
      <point x="323" y="-23"/>
      <point x="373" y="3"/>
      <point x="412" y="60" type="curve"/>
      <point x="412" y="-218" type="line"/>
    </contour>
    <contour>
      <point x="266" y="461" type="curve" smooth="yes"/>
      <point x="355" y="461"/>
      <point x="412" y="381"/>
      <point x="412" y="255" type="curve" smooth="yes"/>
      <point x="412" y="135"/>
      <point x="354" y="55"/>
      <point x="266" y="55" type="curve" smooth="yes"/>
      <point x="174" y="55"/>
      <point x="113" y="136"/>
      <point x="113" y="258" type="curve" smooth="yes"/>
      <point x="113" y="379"/>
      <point x="174" y="461"/>
    </contour>
  </outline>
</glyph>
<glyph name="s" format="1">
  <advance width="500"/>
  <unicode hex="0073"/>
  <outline>
    <contour>
      <point x="438" y="378" type="line"/>
      <point x="437" y="481"/>
      <point x="369" y="539"/>
      <point x="248" y="539" type="curve" smooth="yes"/>
      <point x="126" y="539"/>
      <point x="47" y="476"/>
      <point x="47" y="379" type="curve" smooth="yes"/>
      <point x="47" y="297"/>
      <point x="89" y="258"/>
      <point x="213" y="228" type="curve" smooth="yes"/>
      <point x="291" y="209" type="line" smooth="yes"/>
      <point x="349" y="195"/>
      <point x="372" y="174"/>
      <point x="372" y="136" type="curve" smooth="yes"/>
      <point x="372" y="87"/>
      <point x="323" y="54"/>
      <point x="250" y="54" type="curve" smooth="yes"/>
      <point x="205" y="54"/>
      <point x="167" y="67"/>
      <point x="146" y="89" type="curve" smooth="yes"/>
      <point x="133" y="104"/>
      <point x="127" y="119"/>
      <point x="122" y="156" type="curve"/>
      <point x="34" y="156" type="line"/>
      <point x="38" y="35"/>
      <point x="106" y="-23"/>
      <point x="243" y="-23" type="curve" smooth="yes"/>
      <point x="375" y="-23"/>
      <point x="459" y="42"/>
      <point x="459" y="143" type="curve" smooth="yes"/>
      <point x="459" y="221"/>
      <point x="415" y="264"/>
      <point x="311" y="289" type="curve" smooth="yes"/>
      <point x="231" y="308" type="line" smooth="yes"/>
      <point x="163" y="324"/>
      <point x="134" y="346"/>
      <point x="134" y="383" type="curve" smooth="yes"/>
      <point x="134" y="431"/>
      <point x="177" y="462"/>
      <point x="245" y="462" type="curve" smooth="yes"/>
      <point x="312" y="462"/>
      <point x="348" y="433"/>
      <point x="350" y="378" type="curve"/>
    </contour>
  </outline>
</glyph>
<glyph name="t" format="1">
  <advance width="278"/>
  <unicode hex="0074"/>
  <outline>
    <contour>
      <point x="254" y="524" type="line"/>
      <point x="168" y="524" type="line"/>
      <point x="168" y="668" type="line"/>
      <point x="85" y="668" type="line"/>
      <point x="85" y="524" type="line"/>
      <point x="14" y="524" type="line"/>
      <point x="14" y="456" type="line"/>
      <point x="85" y="456" type="line"/>
      <point x="85" y="60" type="line" smooth="yes"/>
      <point x="85" y="7"/>
      <point x="121" y="-23"/>
      <point x="186" y="-23" type="curve" smooth="yes"/>
      <point x="206" y="-23"/>
      <point x="226" y="-21"/>
      <point x="254" y="-16" type="curve"/>
      <point x="254" y="54" type="line"/>
      <point x="243" y="51"/>
      <point x="230" y="50"/>
      <point x="214" y="50" type="curve" smooth="yes"/>
      <point x="178" y="50"/>
      <point x="168" y="60"/>
      <point x="168" y="97" type="curve" smooth="yes"/>
      <point x="168" y="456" type="line"/>
      <point x="254" y="456" type="line"/>
    </contour>
  </outline>
</glyph>
<glyph name="v" format="1">
  <advance width="500"/>
  <unicode hex="0076"/>
  <outline>
    <contour>
      <point x="285" y="0" type="line"/>
      <point x="486" y="524" type="line"/>
      <point x="392" y="524" type="line"/>
      <point x="244" y="99" type="line"/>
      <point x="104" y="524" type="line"/>
      <point x="10" y="524" type="line"/>
      <point x="194" y="0" type="line"/>
    </contour>
  </outline>
</glyph>
<glyph name="w" format="1">
  <advance width="722"/>
  <unicode hex="0077"/>
  <outline>
    <contour>
      <point x="554" y="0" type="line"/>
      <point x="708" y="524" type="line"/>
      <point x="614" y="524" type="line"/>
      <point x="510" y="116" type="line"/>
      <point x="407" y="524" type="line"/>
      <point x="305" y="524" type="line"/>
      <point x="205" y="116" type="line"/>
      <point x="98" y="524" type="line"/>
      <point x="6" y="524" type="line"/>
      <point x="158" y="0" type="line"/>
      <point x="252" y="0" type="line"/>
      <point x="353" y="411" type="line"/>
      <point x="459" y="0" type="line"/>
    </contour>
  </outline>
</glyph>
<glyph name="x" format="1">
  <advance width="500"/>
  <unicode hex="0078"/>
  <outline>
    <contour>
      <point x="292" y="271" type="line"/>
      <point x="468" y="524" type="line"/>
      <point x="374" y="524" type="line"/>
      <point x="248" y="334" type="line"/>
      <point x="122" y="524" type="line"/>
      <point x="27" y="524" type="line"/>
      <point x="202" y="267" type="line"/>
      <point x="17" y="0" type="line"/>
      <point x="112" y="0" type="line"/>
      <point x="245" y="201" type="line"/>
      <point x="376" y="0" type="line"/>
      <point x="473" y="0" type="line"/>
    </contour>
  </outline>
</glyph>
<glyph name="z" format="1">
  <advance width="500"/>
  <unicode hex="007A"/>
  <outline>
    <contour>
      <point x="443" y="524" type="line"/>
      <point x="52" y="524" type="line"/>
      <point x="52" y="451" type="line"/>
      <point x="344" y="451" type="line"/>
      <point x="31" y="75" type="line"/>
      <point x="31" y="0" type="line"/>
      <point x="457" y="0" type="line"/>
      <point x="457" y="73" type="line"/>
      <point x="132" y="73" type="line"/>
      <point x="443" y="450" type="line"/>
    </contour>
  </outline>
</glyph>
<glyph name="braceleft" format="1">
  <advance width="334"/>
  <unicode hex="007B"/>
  <outline>
    <contour>
      <point x="276" y="729" type="line"/>
      <point x="230" y="729" type="line" smooth="yes"/>
      <point x="161" y="729"/>
      <point x="121" y="681"/>
      <point x="121" y="598" type="curve" smooth="yes"/>
      <point x="121" y="431" type="line" smooth="yes"/>
      <point x="121" y="338"/>
      <point x="102" y="305"/>
      <point x="43" y="293" type="curve"/>
      <point x="43" y="224" type="line"/>
      <point x="102" y="212"/>
      <point x="121" y="178"/>
      <point x="121" y="86" type="curve" smooth="yes"/>
      <point x="121" y="-81" type="line" smooth="yes"/>
      <point x="121" y="-164"/>
      <point x="161" y="-212"/>
      <point x="230" y="-212" type="curve" smooth="yes"/>
      <point x="276" y="-212" type="line"/>
      <point x="276" y="-147" type="line"/>
      <point x="261" y="-147" type="line" smooth="yes"/>
      <point x="212" y="-147"/>
      <point x="198" y="-132"/>
      <point x="198" y="-80" type="curve" smooth="yes"/>
      <point x="198" y="101" type="line" smooth="yes"/>
      <point x="198" y="184"/>
      <point x="172" y="233"/>
      <point x="116" y="259" type="curve"/>
      <point x="177" y="283"/>
      <point x="198" y="324"/>
      <point x="198" y="416" type="curve" smooth="yes"/>
      <point x="198" y="597" type="line" smooth="yes"/>
      <point x="198" y="649"/>
      <point x="212" y="664"/>
      <point x="261" y="664" type="curve" smooth="yes"/>
      <point x="276" y="664" type="line"/>
    </contour>
  </outline>
</glyph>
<glyph name="braceright" format="1">
  <advance width="334"/>
  <unicode hex="007D"/>
  <outline>
    <contour>
      <point x="29" y="-212" type="line"/>
      <point x="76" y="-212" type="line" smooth="yes"/>
      <point x="146" y="-212"/>
      <point x="186" y="-164"/>
      <point x="186" y="-81" type="curve" smooth="yes"/>
      <point x="186" y="86" type="line" smooth="yes"/>
      <point x="186" y="178"/>
      <point x="205" y="212"/>
      <point x="262" y="224" type="curve"/>
      <point x="262" y="293" type="line"/>
      <point x="205" y="305"/>
      <point x="186" y="339"/>
      <point x="186" y="431" type="curve" smooth="yes"/>
      <point x="186" y="598" type="line" smooth="yes"/>
      <point x="186" y="681"/>
      <point x="146" y="729"/>
      <point x="76" y="729" type="curve" smooth="yes"/>
      <point x="29" y="729" type="line"/>
      <point x="29" y="664" type="line"/>
      <point x="45" y="664" type="line" smooth="yes"/>
      <point x="95" y="664"/>
      <point x="109" y="649"/>
      <point x="109" y="597" type="curve" smooth="yes"/>
      <point x="109" y="416" type="line" smooth="yes"/>
      <point x="109" y="334"/>
      <point x="135" y="284"/>
      <point x="191" y="258" type="curve"/>
      <point x="135" y="233"/>
      <point x="109" y="184"/>
      <point x="109" y="101" type="curve" smooth="yes"/>
      <point x="109" y="-80" type="line" smooth="yes"/>
      <point x="109" y="-132"/>
      <point x="95" y="-147"/>
      <point x="45" y="-147" type="curve" smooth="yes"/>
      <point x="29" y="-147" type="line"/>
    </contour>
  </outline>
</glyph>
<glyph name="asciitilde" format="1">
  <advance width="584"/>
  <unicode hex="007E"/>
  <outline>
    <contour>
      <point x="455" y="411" type="line"/>
      <point x="456" y="358"/>
      <point x="441" y="336"/>
      <point x="404" y="336" type="curve" smooth="yes"/>
      <point x="390" y="336"/>
      <point x="374" y="341"/>
      <point x="354" y="353" type="curve" smooth="yes"/>
      <point x="237" y="422" type="line" smooth="yes"/>
      <point x="220" y="432"/>
      <point x="201" y="438"/>
      <point x="183" y="438" type="curve" smooth="yes"/>
      <point x="118" y="438"/>
      <point x="80" y="387"/>
      <point x="75" y="293" type="curve"/>
      <point x="128" y="293" type="line"/>
      <point x="130" y="316"/>
      <point x="132" y="326"/>
      <point x="136" y="336" type="curve" smooth="yes"/>
      <point x="146" y="358"/>
      <point x="163" y="371"/>
      <point x="181" y="371" type="curve" smooth="yes"/>
      <point x="191" y="371"/>
      <point x="214" y="363"/>
      <point x="224" y="357" type="curve" smooth="yes"/>
      <point x="322" y="294" type="line" smooth="yes"/>
      <point x="348" y="278"/>
      <point x="378" y="268"/>
      <point x="403" y="268" type="curve" smooth="yes"/>
      <point x="467" y="268"/>
      <point x="508" y="318"/>
      <point x="508" y="395" type="curve" smooth="yes"/>
      <point x="508" y="411" type="line"/>
    </contour>
  </outline>
</glyph>
<glyph name="exclamdown" format="1">
  <advance width="333"/>
  <unicode hex="00A1"/>
  <outline>
    <contour>
      <point x="122" y="-205" type="line"/>
      <point x="205" y="-205" type="line"/>
      <point x="205" y="133" type="line"/>
      <point x="183" y="356" type="line"/>
      <point x="144" y="356" type="line"/>
      <point x="122" y="133" type="line"/>
    </contour>
    <contour>
      <point x="121" y="420" type="line"/>
      <point x="205" y="420" type="line"/>
      <point x="205" y="524" type="line"/>
      <point x="121" y="524" type="line"/>
    </contour>
  </outline>
</glyph>
<glyph name="cent" format="1">
  <advance width="556"/>
  <unicode hex="00A2"/>
  <outline>
    <contour>
      <point x="312" y="462" type="line"/>
      <point x="373" y="457"/>
      <point x="413" y="415"/>
      <point x="420" y="348" type="curve"/>
      <point x="504" y="348" type="line"/>
      <point x="498" y="462"/>
      <point x="429" y="531"/>
      <point x="312" y="539" type="curve"/>
      <point x="312" y="628" type="line"/>
      <point x="270" y="628" type="line"/>
      <point x="270" y="538" type="line"/>
      <point x="135" y="524"/>
      <point x="52" y="416"/>
      <point x="52" y="253" type="curve" smooth="yes"/>
      <point x="52" y="94"/>
      <point x="135" y="-10"/>
      <point x="270" y="-22" type="curve"/>
      <point x="270" y="-120" type="line"/>
      <point x="312" y="-120" type="line"/>
      <point x="312" y="-23" type="line"/>
      <point x="428" y="-17"/>
      <point x="503" y="60"/>
      <point x="510" y="180" type="curve"/>
      <point x="426" y="180" type="line"/>
      <point x="414" y="101"/>
      <point x="376" y="60"/>
      <point x="312" y="53" type="curve"/>
    </contour>
    <contour>
      <point x="270" y="55" type="line"/>
      <point x="187" y="68"/>
      <point x="139" y="140"/>
      <point x="139" y="253" type="curve" smooth="yes"/>
      <point x="139" y="374"/>
      <point x="184" y="445"/>
      <point x="270" y="461" type="curve"/>
    </contour>
  </outline>
</glyph>
<glyph name="sterling" format="1">
  <advance width="556"/>
  <unicode hex="00A3"/>
  <outline>
    <contour>
      <point x="366" y="376" type="line"/>
      <point x="206" y="376" type="line"/>
      <point x="200" y="388"/>
      <point x="193" y="401"/>
      <point x="190" y="404" type="curve"/>
      <point x="153" y="469"/>
      <point x="147" y="486"/>
      <point x="147" y="523" type="curve" smooth="yes"/>
      <point x="147" y="600"/>
      <point x="203" y="651"/>
      <point x="288" y="651" type="curve" smooth="yes"/>
      <point x="375" y="651"/>
      <point x="421" y="600"/>
      <point x="424" y="497" type="curve"/>
      <point x="512" y="497" type="line"/>
      <point x="511" y="558"/>
      <point x="503" y="597"/>
      <point x="484" y="630" type="curve" smooth="yes"/>
      <point x="448" y="692"/>
      <point x="377" y="729"/>
      <point x="292" y="729" type="curve" smooth="yes"/>
      <point x="158" y="729"/>
      <point x="54" y="636"/>
      <point x="54" y="515" type="curve" smooth="yes"/>
      <point x="54" y="471"/>
      <point x="61" y="452"/>
      <point x="107" y="376" type="curve"/>
      <point x="26" y="376" type="line"/>
      <point x="26" y="321" type="line"/>
      <point x="136" y="321" type="line"/>
      <point x="151" y="296"/>
      <point x="160" y="268"/>
      <point x="160" y="243" type="curve" smooth="yes"/>
      <point x="160" y="182"/>
      <point x="127" y="131"/>
      <point x="35" y="52" type="curve"/>
      <point x="83" y="-14" type="line"/>
      <point x="121" y="11"/>
      <point x="157" y="23"/>
      <point x="192" y="23" type="curve" smooth="yes"/>
      <point x="213" y="23"/>
      <point x="237" y="19"/>
      <point x="258" y="12" type="curve" smooth="yes"/>
      <point x="341" y="-17"/>
      <point x="367" y="-23"/>
      <point x="404" y="-23" type="curve" smooth="yes"/>
      <point x="456" y="-23"/>
      <point x="495" y="-6"/>
      <point x="535" y="33" type="curve"/>
      <point x="493" y="99" type="line"/>
      <point x="464" y="79"/>
      <point x="436" y="69"/>
      <point x="410" y="69" type="curve" smooth="yes"/>
      <point x="392" y="69"/>
      <point x="372" y="73"/>
      <point x="331" y="85" type="curve" smooth="yes"/>
      <point x="293" y="97"/>
      <point x="275" y="100"/>
      <point x="249" y="100" type="curve" smooth="yes"/>
      <point x="206" y="100"/>
      <point x="166" y="87"/>
      <point x="127" y="61" type="curve"/>
      <point x="217" y="152"/>
      <point x="245" y="198"/>
      <point x="245" y="250" type="curve" smooth="yes"/>
      <point x="245" y="269"/>
      <point x="240" y="292"/>
      <point x="230" y="321" type="curve"/>
      <point x="366" y="321" type="line"/>
    </contour>
  </outline>
</glyph>
<glyph name="currency" format="1">
  <advance width="556"/>
  <unicode hex="00A4"/>
  <outline>
    <contour>
      <point x="485" y="190" type="line"/>
      <point x="431" y="244" type="line"/>
      <point x="450" y="275"/>
      <point x="460" y="307"/>
      <point x="460" y="341" type="curve" smooth="yes"/>
      <point x="460" y="373"/>
      <point x="450" y="409"/>
      <point x="434" y="434" type="curve"/>
      <point x="489" y="489" type="line"/>
      <point x="432" y="547" type="line"/>
      <point x="373" y="494" type="line"/>
      <point x="347" y="512"/>
      <point x="312" y="522"/>
      <point x="275" y="522" type="curve" smooth="yes"/>
      <point x="239" y="522"/>
      <point x="207" y="513"/>
      <point x="178" y="496" type="curve"/>
      <point x="123" y="551" type="line"/>
      <point x="67" y="498" type="line"/>
      <point x="121" y="443" type="line"/>
      <point x="101" y="415"/>
      <point x="89" y="377"/>
      <point x="89" y="341" type="curve" smooth="yes"/>
      <point x="89" y="305"/>
      <point x="101" y="266"/>
      <point x="121" y="239" type="curve"/>
      <point x="73" y="190" type="line"/>
      <point x="129" y="133" type="line"/>
      <point x="180" y="184" type="line"/>
      <point x="206" y="168"/>
      <point x="241" y="159"/>
      <point x="274" y="159" type="curve" smooth="yes"/>
      <point x="313" y="159"/>
      <point x="347" y="169"/>
      <point x="374" y="189" type="curve"/>
      <point x="427" y="136" type="line"/>
    </contour>
    <contour>
      <point x="274" y="445" type="curve" smooth="yes"/>
      <point x="334" y="445"/>
      <point x="381" y="398"/>
      <point x="381" y="339" type="curve" smooth="yes"/>
      <point x="381" y="283"/>
      <point x="332" y="236"/>
      <point x="275" y="236" type="curve" smooth="yes"/>
      <point x="216" y="236"/>
      <point x="168" y="283"/>
      <point x="168" y="340" type="curve" smooth="yes"/>
      <point x="168" y="398"/>
      <point x="216" y="445"/>
    </contour>
  </outline>
</glyph>
<glyph name="yen" format="1">
  <advance width="556"/>
  <unicode hex="00A5"/>
  <outline>
    <contour>
      <point x="495" y="354" type="line"/>
      <point x="344" y="354" type="line"/>
      <point x="545" y="709" type="line"/>
      <point x="460" y="709" type="line"/>
      <point x="281" y="387" type="line"/>
      <point x="96" y="709" type="line"/>
      <point x="11" y="709" type="line"/>
      <point x="216" y="354" type="line"/>
      <point x="65" y="354" type="line"/>
      <point x="65" y="303" type="line"/>
      <point x="237" y="303" type="line"/>
      <point x="237" y="226" type="line"/>
      <point x="65" y="226" type="line"/>
      <point x="65" y="175" type="line"/>
      <point x="237" y="175" type="line"/>
      <point x="237" y="0" type="line"/>
      <point x="325" y="0" type="line"/>
      <point x="325" y="175" type="line"/>
      <point x="495" y="175" type="line"/>
      <point x="495" y="226" type="line"/>
      <point x="325" y="226" type="line"/>
      <point x="325" y="303" type="line"/>
      <point x="495" y="303" type="line"/>
    </contour>
  </outline>
</glyph>
<glyph name="brokenbar" format="1">
  <advance width="260"/>
  <unicode hex="00A6"/>
  <outline>
    <contour>
      <point x="100" y="729" type="line"/>
      <point x="100" y="328" type="line"/>
      <point x="160" y="328" type="line"/>
      <point x="160" y="729" type="line"/>
    </contour>
    <contour>
      <point x="100" y="189" type="line"/>
      <point x="100" y="-212" type="line"/>
      <point x="160" y="-212" type="line"/>
      <point x="160" y="189" type="line"/>
    </contour>
  </outline>
</glyph>
<glyph name="section" format="1">
  <advance width="556"/>
  <unicode hex="00A7"/>
  <outline>
    <contour>
      <point x="464" y="524" type="line"/>
      <point x="464" y="532" type="line"/>
      <point x="464" y="552" type="line" smooth="yes"/>
      <point x="464" y="658"/>
      <point x="393" y="729"/>
      <point x="289" y="729" type="curve" smooth="yes"/>
      <point x="185" y="729"/>
      <point x="104" y="656"/>
      <point x="104" y="564" type="curve" smooth="yes"/>
      <point x="104" y="526"/>
      <point x="117" y="498"/>
      <point x="148" y="462" type="curve"/>
      <point x="74" y="423"/>
      <point x="43" y="378"/>
      <point x="43" y="312" type="curve" smooth="yes"/>
      <point x="43" y="247"/>
      <point x="70" y="200"/>
      <point x="135" y="155" type="curve" smooth="yes"/>
      <point x="305" y="38" type="line" smooth="yes"/>
      <point x="344" y="11"/>
      <point x="360" y="-15"/>
      <point x="360" y="-50" type="curve" smooth="yes"/>
      <point x="360" y="-101"/>
      <point x="321" y="-136"/>
      <point x="264" y="-136" type="curve" smooth="yes"/>
      <point x="228" y="-136"/>
      <point x="199" y="-121"/>
      <point x="180" y="-92" type="curve"/>
      <point x="166" y="-73"/>
      <point x="162" y="-53"/>
      <point x="162" y="-14" type="curve"/>
      <point x="77" y="-14" type="line"/>
      <point x="77" y="-61"/>
      <point x="79" y="-73"/>
      <point x="88" y="-100" type="curve" smooth="yes"/>
      <point x="112" y="-170"/>
      <point x="179" y="-213"/>
      <point x="263" y="-213" type="curve" smooth="yes"/>
      <point x="370" y="-213"/>
      <point x="450" y="-141"/>
      <point x="450" y="-45" type="curve" smooth="yes"/>
      <point x="450" y="-2"/>
      <point x="437" y="28"/>
      <point x="397" y="73" type="curve"/>
      <point x="469" y="100"/>
      <point x="506" y="153"/>
      <point x="506" y="229" type="curve" smooth="yes"/>
      <point x="506" y="301"/>
      <point x="478" y="344"/>
      <point x="397" y="396" type="curve" smooth="yes"/>
      <point x="251" y="490" type="line" smooth="yes"/>
      <point x="209" y="518"/>
      <point x="194" y="538"/>
      <point x="194" y="567" type="curve" smooth="yes"/>
      <point x="194" y="616"/>
      <point x="232" y="652"/>
      <point x="283" y="652" type="curve" smooth="yes"/>
      <point x="342" y="652"/>
      <point x="380" y="612"/>
      <point x="380" y="550" type="curve" smooth="yes"/>
      <point x="380" y="533" type="line"/>
      <point x="380" y="524" type="line"/>
    </contour>
    <contour>
      <point x="188" y="229" type="line" smooth="yes"/>
      <point x="135" y="268"/>
      <point x="122" y="288"/>
      <point x="122" y="328" type="curve" smooth="yes"/>
      <point x="122" y="368"/>
      <point x="141" y="395"/>
      <point x="193" y="429" type="curve"/>
      <point x="354" y="320" type="line" smooth="yes"/>
      <point x="403" y="286"/>
      <point x="427" y="249"/>
      <point x="427" y="208" type="curve" smooth="yes"/>
      <point x="427" y="168"/>
      <point x="401" y="131"/>
      <point x="354" y="106" type="curve"/>
    </contour>
  </outline>
</glyph>
<glyph name="dieresis" format="1">
  <advance width="333"/>
  <unicode hex="00A8"/>
  <outline>
    <contour>
      <point x="134" y="715" type="line"/>
      <point x="30" y="715" type="line"/>
      <point x="30" y="612" type="line"/>
      <point x="134" y="612" type="line"/>
    </contour>
    <contour>
      <point x="296" y="715" type="line"/>
      <point x="192" y="715" type="line"/>
      <point x="192" y="612" type="line"/>
      <point x="296" y="612" type="line"/>
    </contour>
  </outline>
</glyph>
<glyph name="copyright" format="1">
  <advance width="737"/>
  <unicode hex="00A9"/>
  <outline>
    <contour>
      <point x="544" y="437" type="line"/>
      <point x="520" y="543"/>
      <point x="467" y="592"/>
      <point x="378" y="592" type="curve" smooth="yes"/>
      <point x="260" y="592"/>
      <point x="181" y="497"/>
      <point x="181" y="357" type="curve" smooth="yes"/>
      <point x="181" y="221"/>
      <point x="260" y="126"/>
      <point x="375" y="126" type="curve" smooth="yes"/>
      <point x="432" y="126"/>
      <point x="478" y="149"/>
      <point x="511" y="196" type="curve" smooth="yes"/>
      <point x="530" y="224"/>
      <point x="540" y="252"/>
      <point x="552" y="312" type="curve"/>
      <point x="481" y="312" type="line"/>
      <point x="468" y="231"/>
      <point x="431" y="188"/>
      <point x="375" y="188" type="curve" smooth="yes"/>
      <point x="343" y="188"/>
      <point x="307" y="206"/>
      <point x="286" y="234" type="curve" smooth="yes"/>
      <point x="263" y="263"/>
      <point x="250" y="307"/>
      <point x="250" y="358" type="curve" smooth="yes"/>
      <point x="250" y="463"/>
      <point x="299" y="530"/>
      <point x="375" y="530" type="curve" smooth="yes"/>
      <point x="428" y="530"/>
      <point x="456" y="503"/>
      <point x="473" y="437" type="curve"/>
    </contour>
    <contour>
      <point x="369" y="742" type="curve" smooth="yes"/>
      <point x="158" y="742"/>
      <point x="-13" y="571"/>
      <point x="-13" y="360" type="curve" smooth="yes"/>
      <point x="-13" y="152"/>
      <point x="159" y="-22"/>
      <point x="364" y="-22" type="curve" smooth="yes"/>
      <point x="580" y="-22"/>
      <point x="751" y="147"/>
      <point x="751" y="361" type="curve" smooth="yes"/>
      <point x="751" y="571"/>
      <point x="580" y="742"/>
    </contour>
    <contour>
      <point x="369" y="680" type="curve" smooth="yes"/>
      <point x="542" y="680"/>
      <point x="683" y="536"/>
      <point x="683" y="361" type="curve" smooth="yes"/>
      <point x="683" y="182"/>
      <point x="543" y="40"/>
      <point x="365" y="40" type="curve" smooth="yes"/>
      <point x="196" y="40"/>
      <point x="55" y="186"/>
      <point x="55" y="360" type="curve" smooth="yes"/>
      <point x="55" y="536"/>
      <point x="196" y="680"/>
    </contour>
  </outline>
</glyph>
<glyph name="ordfeminine" format="1">
  <advance width="370"/>
  <unicode hex="00AA"/>
  <outline>
    <contour>
      <point x="320" y="354" type="line"/>
      <point x="43" y="354" type="line"/>
      <point x="43" y="303" type="line"/>
      <point x="320" y="303" type="line"/>
    </contour>
    <contour>
      <point x="333" y="449" type="line"/>
      <point x="329" y="447"/>
      <point x="326" y="446"/>
      <point x="323" y="446" type="curve" smooth="yes"/>
      <point x="308" y="446"/>
      <point x="300" y="454"/>
      <point x="300" y="469" type="curve" smooth="yes"/>
      <point x="300" y="648" type="line" smooth="yes"/>
      <point x="300" y="711"/>
      <point x="259" y="742"/>
      <point x="178" y="742" type="curve" smooth="yes"/>
      <point x="96" y="742"/>
      <point x="51" y="705"/>
      <point x="49" y="634" type="curve"/>
      <point x="108" y="634" type="line"/>
      <point x="115" y="677"/>
      <point x="131" y="690"/>
      <point x="176" y="690" type="curve" smooth="yes"/>
      <point x="219" y="690"/>
      <point x="243" y="674"/>
      <point x="243" y="646" type="curve" smooth="yes"/>
      <point x="243" y="633" type="line" smooth="yes"/>
      <point x="243" y="611"/>
      <point x="232" y="603"/>
      <point x="194" y="600" type="curve" smooth="yes"/>
      <point x="152" y="597"/>
      <point x="111" y="589"/>
      <point x="94" y="582" type="curve" smooth="yes"/>
      <point x="57" y="566"/>
      <point x="37" y="537"/>
      <point x="37" y="495" type="curve" smooth="yes"/>
      <point x="37" y="436"/>
      <point x="77" y="399"/>
      <point x="141" y="399" type="curve" smooth="yes"/>
      <point x="180" y="399"/>
      <point x="213" y="413"/>
      <point x="246" y="442" type="curve"/>
      <point x="252" y="411"/>
      <point x="268" y="399"/>
      <point x="301" y="399" type="curve" smooth="yes"/>
      <point x="313" y="399"/>
      <point x="320" y="400"/>
      <point x="333" y="405" type="curve"/>
    </contour>
    <contour>
      <point x="243" y="517" type="line" smooth="yes"/>
      <point x="243" y="482"/>
      <point x="201" y="451"/>
      <point x="152" y="451" type="curve" smooth="yes"/>
      <point x="116" y="451"/>
      <point x="95" y="468"/>
      <point x="95" y="498" type="curve" smooth="yes"/>
      <point x="95" y="530"/>
      <point x="115" y="545"/>
      <point x="167" y="552" type="curve" smooth="yes"/>
      <point x="216" y="560"/>
      <point x="229" y="562"/>
      <point x="243" y="568" type="curve"/>
    </contour>
  </outline>
</glyph>
<glyph name="guillemotleft" format="1">
  <advance width="556"/>
  <unicode hex="00AB"/>
  <outline>
    <contour>
      <point x="98" y="227" type="line"/>
      <point x="250" y="106" type="line"/>
      <point x="250" y="189" type="line"/>
      <point x="144" y="272" type="line"/>
      <point x="250" y="355" type="line"/>
      <point x="250" y="438" type="line"/>
      <point x="98" y="316" type="line"/>
    </contour>
    <contour>
      <point x="303" y="227" type="line"/>
      <point x="455" y="106" type="line"/>
      <point x="455" y="189" type="line"/>
      <point x="349" y="272" type="line"/>
      <point x="455" y="355" type="line"/>
      <point x="455" y="438" type="line"/>
      <point x="303" y="316" type="line"/>
    </contour>
  </outline>
</glyph>
<glyph name="logicalnot" format="1">
  <advance width="584"/>
  <unicode hex="00AC"/>
  <outline>
    <contour>
      <point x="40" y="375" type="line"/>
      <point x="40" y="305" type="line"/>
      <point x="474" y="305" type="line"/>
      <point x="474" y="86" type="line"/>
      <point x="544" y="86" type="line"/>
      <point x="544" y="375" type="line"/>
    </contour>
  </outline>
</glyph>
<glyph name="registered" format="1">
  <advance width="737"/>
  <unicode hex="00AE"/>
  <outline>
    <contour>
      <point x="272" y="325" type="line"/>
      <point x="406" y="325" type="line" smooth="yes"/>
      <point x="451" y="325"/>
      <point x="470" y="305"/>
      <point x="470" y="257" type="curve"/>
      <point x="469" y="217" type="line"/>
      <point x="469" y="189"/>
      <point x="475" y="161"/>
      <point x="484" y="140" type="curve"/>
      <point x="563" y="140" type="line"/>
      <point x="563" y="165" type="line"/>
      <point x="545" y="178"/>
      <point x="541" y="190"/>
      <point x="540" y="248" type="curve" smooth="yes"/>
      <point x="539" y="319"/>
      <point x="532" y="336"/>
      <point x="495" y="360" type="curve"/>
      <point x="536" y="390"/>
      <point x="549" y="413"/>
      <point x="549" y="459" type="curve" smooth="yes"/>
      <point x="549" y="544"/>
      <point x="503" y="585"/>
      <point x="408" y="585" type="curve" smooth="yes"/>
      <point x="202" y="585" type="line"/>
      <point x="202" y="140" type="line"/>
      <point x="272" y="140" type="line"/>
    </contour>
    <contour>
      <point x="272" y="388" type="line"/>
      <point x="272" y="522" type="line"/>
      <point x="401" y="522" type="line" smooth="yes"/>
      <point x="454" y="522"/>
      <point x="476" y="502"/>
      <point x="476" y="455" type="curve" smooth="yes"/>
      <point x="476" y="409"/>
      <point x="453" y="388"/>
      <point x="401" y="388" type="curve" smooth="yes"/>
    </contour>
    <contour>
      <point x="369" y="742" type="curve" smooth="yes"/>
      <point x="158" y="742"/>
      <point x="-13" y="571"/>
      <point x="-13" y="360" type="curve" smooth="yes"/>
      <point x="-13" y="152"/>
      <point x="159" y="-22"/>
      <point x="364" y="-22" type="curve" smooth="yes"/>
      <point x="580" y="-22"/>
      <point x="751" y="147"/>
      <point x="751" y="361" type="curve" smooth="yes"/>
      <point x="751" y="571"/>
      <point x="580" y="742"/>
    </contour>
    <contour>
      <point x="369" y="680" type="curve" smooth="yes"/>
      <point x="542" y="680"/>
      <point x="683" y="536"/>
      <point x="683" y="361" type="curve" smooth="yes"/>
      <point x="683" y="182"/>
      <point x="543" y="40"/>
      <point x="365" y="40" type="curve" smooth="yes"/>
      <point x="196" y="40"/>
      <point x="55" y="186"/>
      <point x="55" y="360" type="curve" smooth="yes"/>
      <point x="55" y="536"/>
      <point x="196" y="680"/>
    </contour>
  </outline>
</glyph>
<glyph name="degree" format="1">
  <advance width="606"/>
  <unicode hex="00B0"/>
  <outline>
    <contour>
      <point x="303" y="686" type="curve" smooth="yes"/>
      <point x="219" y="686"/>
      <point x="151" y="618"/>
      <point x="151" y="535" type="curve" smooth="yes"/>
      <point x="151" y="452"/>
      <point x="219" y="383"/>
      <point x="301" y="383" type="curve" smooth="yes"/>
      <point x="386" y="383"/>
      <point x="454" y="450"/>
      <point x="454" y="535" type="curve" smooth="yes"/>
      <point x="454" y="618"/>
      <point x="386" y="686"/>
    </contour>
    <contour>
      <point x="303" y="629" type="curve" smooth="yes"/>
      <point x="355" y="629"/>
      <point x="397" y="587"/>
      <point x="397" y="535" type="curve" smooth="yes"/>
      <point x="397" y="482"/>
      <point x="355" y="440"/>
      <point x="301" y="440" type="curve" smooth="yes"/>
      <point x="251" y="440"/>
      <point x="208" y="483"/>
      <point x="208" y="535" type="curve" smooth="yes"/>
      <point x="208" y="586"/>
      <point x="251" y="629"/>
    </contour>
  </outline>
</glyph>
<glyph name="plusminus" format="1">
  <advance width="584"/>
  <unicode hex="00B1"/>
  <outline>
    <contour>
      <point x="534" y="416" type="line"/>
      <point x="327" y="416" type="line"/>
      <point x="327" y="623" type="line"/>
      <point x="257" y="623" type="line"/>
      <point x="257" y="416" type="line"/>
      <point x="50" y="416" type="line"/>
      <point x="50" y="346" type="line"/>
      <point x="257" y="346" type="line"/>
      <point x="257" y="139" type="line"/>
      <point x="327" y="139" type="line"/>
      <point x="327" y="346" type="line"/>
      <point x="534" y="346" type="line"/>
    </contour>
    <contour>
      <point x="534" y="59" type="line"/>
      <point x="50" y="59" type="line"/>
      <point x="50" y="-11" type="line"/>
      <point x="534" y="-11" type="line"/>
    </contour>
  </outline>
</glyph>
<glyph name="acute" format="1">
  <advance width="333"/>
  <unicode hex="00B4"/>
  <outline>
    <contour>
      <point x="188" y="740" type="line"/>
      <point x="92" y="592" type="line"/>
      <point x="152" y="592" type="line"/>
      <point x="301" y="740" type="line"/>
    </contour>
  </outline>
</glyph>
<glyph name="paragraph" format="1">
  <advance width="537"/>
  <unicode hex="00B6"/>
  <outline>
    <contour>
      <point x="522" y="729" type="line"/>
      <point x="272" y="729" type="line" smooth="yes"/>
      <point x="146" y="729"/>
      <point x="48" y="624"/>
      <point x="48" y="489" type="curve" smooth="yes"/>
      <point x="48" y="415"/>
      <point x="78" y="346"/>
      <point x="130" y="303" type="curve" smooth="yes"/>
      <point x="165" y="274"/>
      <point x="200" y="262"/>
      <point x="255" y="259" type="curve"/>
      <point x="255" y="-177" type="line"/>
      <point x="319" y="-177" type="line"/>
      <point x="319" y="665" type="line"/>
      <point x="401" y="665" type="line"/>
      <point x="401" y="-177" type="line"/>
      <point x="465" y="-177" type="line"/>
      <point x="465" y="665" type="line"/>
      <point x="522" y="665" type="line"/>
    </contour>
  </outline>
</glyph>
<glyph name="periodcentered" format="1">
  <advance width="278"/>
  <unicode hex="00B7"/>
  <outline>
    <contour>
      <point x="211" y="427" type="line"/>
      <point x="87" y="427" type="line"/>
      <point x="87" y="302" type="line"/>
      <point x="211" y="302" type="line"/>
    </contour>
  </outline>
</glyph>
<glyph name="cedilla" format="1">
  <advance width="333"/>
  <unicode hex="00B8"/>
  <outline>
    <contour>
      <point x="165" y="0" type="line"/>
      <point x="123" y="-92" type="line"/>
      <point x="135" y="-99" type="line"/>
      <point x="147" y="-93"/>
      <point x="154" y="-91"/>
      <point x="166" y="-91" type="curve" smooth="yes"/>
      <point x="195" y="-91"/>
      <point x="212" y="-105"/>
      <point x="212" y="-128" type="curve" smooth="yes"/>
      <point x="212" y="-154"/>
      <point x="189" y="-173"/>
      <point x="158" y="-173" type="curve" smooth="yes"/>
      <point x="132" y="-173"/>
      <point x="115" y="-167"/>
      <point x="69" y="-144" type="curve" smooth="yes"/>
      <point x="60" y="-140" type="line"/>
      <point x="39" y="-180" type="line"/>
      <point x="101" y="-207"/>
      <point x="125" y="-214"/>
      <point x="164" y="-214" type="curve" smooth="yes"/>
      <point x="240" y="-214"/>
      <point x="287" y="-178"/>
      <point x="287" y="-121" type="curve" smooth="yes"/>
      <point x="287" y="-78"/>
      <point x="258" y="-54"/>
      <point x="208" y="-54" type="curve" smooth="yes"/>
      <point x="200" y="-54"/>
      <point x="193" y="-54"/>
      <point x="180" y="-56" type="curve"/>
      <point x="203" y="0" type="line"/>
    </contour>
  </outline>
</glyph>
<glyph name="ordmasculine" format="1">
  <advance width="365"/>
  <unicode hex="00BA"/>
  <outline>
    <contour>
      <point x="314" y="354" type="line"/>
      <point x="51" y="354" type="line"/>
      <point x="51" y="303" type="line"/>
      <point x="314" y="303" type="line"/>
    </contour>
    <contour>
      <point x="182" y="742" type="curve" smooth="yes"/>
      <point x="92" y="742"/>
      <point x="40" y="679"/>
      <point x="40" y="571" type="curve" smooth="yes"/>
      <point x="40" y="462"/>
      <point x="92" y="399"/>
      <point x="182" y="399" type="curve" smooth="yes"/>
      <point x="271" y="399"/>
      <point x="324" y="462"/>
      <point x="324" y="568" type="curve" smooth="yes"/>
      <point x="324" y="680"/>
      <point x="273" y="742"/>
    </contour>
    <contour>
      <point x="182" y="690" type="curve" smooth="yes"/>
      <point x="235" y="690"/>
      <point x="266" y="645"/>
      <point x="266" y="569" type="curve" smooth="yes"/>
      <point x="266" y="496"/>
      <point x="234" y="451"/>
      <point x="182" y="451" type="curve" smooth="yes"/>
      <point x="130" y="451"/>
      <point x="98" y="496"/>
      <point x="98" y="571" type="curve" smooth="yes"/>
      <point x="98" y="645"/>
      <point x="130" y="690"/>
    </contour>
  </outline>
</glyph>
<glyph name="guillemotright" format="1">
  <advance width="556"/>
  <unicode hex="00BB"/>
  <outline>
    <contour>
      <point x="252" y="317" type="line"/>
      <point x="98" y="438" type="line"/>
      <point x="98" y="355" type="line"/>
      <point x="206" y="272" type="line"/>
      <point x="98" y="189" type="line"/>
      <point x="98" y="106" type="line"/>
      <point x="252" y="228" type="line"/>
    </contour>
    <contour>
      <point x="451" y="317" type="line"/>
      <point x="297" y="438" type="line"/>
      <point x="297" y="355" type="line"/>
      <point x="405" y="272" type="line"/>
      <point x="297" y="189" type="line"/>
      <point x="297" y="106" type="line"/>
      <point x="451" y="228" type="line"/>
    </contour>
  </outline>
</glyph>
<glyph name="onequarter" format="1">
  <advance width="869"/>
  <unicode hex="00BC"/>
  <outline>
    <contour>
      <point x="160" y="580" type="line"/>
      <point x="160" y="284" type="line"/>
      <point x="222" y="284" type="line"/>
      <point x="222" y="709" type="line"/>
      <point x="179" y="709" type="line"/>
      <point x="162" y="645"/>
      <point x="148" y="634"/>
      <point x="76" y="627" type="curve" smooth="yes"/>
      <point x="61" y="626" type="line"/>
      <point x="61" y="580" type="line"/>
    </contour>
    <contour>
      <point x="643" y="709" type="line"/>
      <point x="191" y="-20" type="line"/>
      <point x="249" y="-20" type="line"/>
      <point x="701" y="709" type="line"/>
    </contour>
    <contour>
      <point x="720" y="100" type="line"/>
      <point x="720" y="0" type="line"/>
      <point x="782" y="0" type="line"/>
      <point x="782" y="100" type="line"/>
      <point x="849" y="100" type="line"/>
      <point x="849" y="153" type="line"/>
      <point x="782" y="153" type="line"/>
      <point x="782" y="425" type="line"/>
      <point x="736" y="425" type="line"/>
      <point x="532" y="159" type="line"/>
      <point x="532" y="100" type="line"/>
    </contour>
    <contour>
      <point x="720" y="153" type="line"/>
      <point x="591" y="153" type="line"/>
      <point x="720" y="323" type="line"/>
    </contour>
  </outline>
</glyph>
<glyph name="onehalf" format="1">
  <advance width="869"/>
  <unicode hex="00BD"/>
  <outline>
    <contour>
      <point x="160" y="580" type="line"/>
      <point x="160" y="284" type="line"/>
      <point x="222" y="284" type="line"/>
      <point x="222" y="709" type="line"/>
      <point x="179" y="709" type="line"/>
      <point x="162" y="645"/>
      <point x="148" y="634"/>
      <point x="76" y="627" type="curve" smooth="yes"/>
      <point x="61" y="626" type="line"/>
      <point x="61" y="580" type="line"/>
    </contour>
    <contour>
      <point x="619" y="709" type="line"/>
      <point x="167" y="-20" type="line"/>
      <point x="225" y="-20" type="line"/>
      <point x="677" y="709" type="line"/>
    </contour>
    <contour>
      <point x="841" y="58" type="line"/>
      <point x="612" y="58" type="line"/>
      <point x="624" y="96"/>
      <point x="642" y="115"/>
      <point x="685" y="138" type="curve" smooth="yes"/>
      <point x="748" y="170" type="line" smooth="yes"/>
      <point x="811" y="201"/>
      <point x="844" y="246"/>
      <point x="844" y="299" type="curve" smooth="yes"/>
      <point x="844" y="373"/>
      <point x="784" y="425"/>
      <point x="698" y="425" type="curve" smooth="yes"/>
      <point x="599" y="425"/>
      <point x="550" y="376"/>
      <point x="547" y="273" type="curve"/>
      <point x="609" y="273" type="line"/>
      <point x="611" y="304"/>
      <point x="614" y="320"/>
      <point x="622" y="333" type="curve" smooth="yes"/>
      <point x="636" y="357"/>
      <point x="664" y="372"/>
      <point x="696" y="372" type="curve" smooth="yes"/>
      <point x="744" y="372"/>
      <point x="781" y="340"/>
      <point x="781" y="297" type="curve" smooth="yes"/>
      <point x="781" y="266"/>
      <point x="761" y="239"/>
      <point x="722" y="218" type="curve" smooth="yes"/>
      <point x="664" y="187" type="line" smooth="yes"/>
      <point x="568" y="136"/>
      <point x="542" y="97"/>
      <point x="537" y="0" type="curve"/>
      <point x="841" y="0" type="line"/>
    </contour>
  </outline>
</glyph>
<glyph name="questiondown" format="1">
  <advance width="611"/>
  <unicode hex="00BF"/>
  <outline>
    <contour>
      <point x="275" y="325" type="line"/>
      <point x="275" y="278" type="line" smooth="yes"/>
      <point x="275" y="233"/>
      <point x="265" y="217"/>
      <point x="195" y="154" type="curve" smooth="yes"/>
      <point x="120" y="86"/>
      <point x="95" y="42"/>
      <point x="95" y="-25" type="curve" smooth="yes"/>
      <point x="95" y="-142"/>
      <point x="178" y="-217"/>
      <point x="309" y="-217" type="curve" smooth="yes"/>
      <point x="453" y="-217"/>
      <point x="528" y="-137"/>
      <point x="528" y="17" type="curve"/>
      <point x="443" y="17" type="line"/>
      <point x="443" y="-29"/>
      <point x="438" y="-57"/>
      <point x="426" y="-81" type="curve" smooth="yes"/>
      <point x="407" y="-118"/>
      <point x="367" y="-139"/>
      <point x="314" y="-139" type="curve" smooth="yes"/>
      <point x="237" y="-139"/>
      <point x="185" y="-93"/>
      <point x="185" y="-25" type="curve" smooth="yes"/>
      <point x="185" y="21"/>
      <point x="207" y="60"/>
      <point x="260" y="107" type="curve" smooth="yes"/>
      <point x="319" y="160"/>
      <point x="319" y="160"/>
      <point x="337" y="183" type="curve" smooth="yes"/>
      <point x="358" y="211"/>
      <point x="365" y="234"/>
      <point x="365" y="270" type="curve" smooth="yes"/>
      <point x="365" y="325" type="line"/>
    </contour>
    <contour>
      <point x="275" y="420" type="line"/>
      <point x="365" y="420" type="line"/>
      <point x="365" y="524" type="line"/>
      <point x="275" y="524" type="line"/>
    </contour>
  </outline>
</glyph>
<glyph name="Agrave" format="1">
  <advance width="667"/>
  <unicode hex="00C0"/>
  <outline>
    <contour>
      <point x="474" y="219" type="line"/>
      <point x="549" y="0" type="line"/>
      <point x="653" y="0" type="line"/>
      <point x="397" y="729" type="line"/>
      <point x="277" y="729" type="line"/>
      <point x="17" y="0" type="line"/>
      <point x="116" y="0" type="line"/>
      <point x="193" y="219" type="line"/>
    </contour>
    <contour>
      <point x="448" y="297" type="line"/>
      <point x="216" y="297" type="line"/>
      <point x="336" y="629" type="line"/>
    </contour>
    <contour>
      <point x="304" y="939" type="line"/>
      <point x="191" y="939" type="line"/>
      <point x="340" y="791" type="line"/>
      <point x="400" y="791" type="line"/>
    </contour>
  </outline>
</glyph>
<glyph name="Atilde" format="1">
  <advance width="667"/>
  <unicode hex="00C3"/>
  <outline>
    <contour>
      <point x="474" y="219" type="line"/>
      <point x="549" y="0" type="line"/>
      <point x="653" y="0" type="line"/>
      <point x="397" y="729" type="line"/>
      <point x="277" y="729" type="line"/>
      <point x="17" y="0" type="line"/>
      <point x="116" y="0" type="line"/>
      <point x="193" y="219" type="line"/>
    </contour>
    <contour>
      <point x="448" y="297" type="line"/>
      <point x="216" y="297" type="line"/>
      <point x="336" y="629" type="line"/>
    </contour>
    <contour>
      <point x="434" y="916" type="line"/>
      <point x="426" y="891"/>
      <point x="415" y="879"/>
      <point x="397" y="879" type="curve" smooth="yes"/>
      <point x="385" y="879"/>
      <point x="358" y="886"/>
      <point x="334" y="897" type="curve" smooth="yes"/>
      <point x="292" y="914"/>
      <point x="285" y="916"/>
      <point x="264" y="916" type="curve" smooth="yes"/>
      <point x="220" y="916"/>
      <point x="189" y="879"/>
      <point x="178" y="813" type="curve"/>
      <point x="236" y="813" type="line"/>
      <point x="242" y="836"/>
      <point x="254" y="850"/>
      <point x="269" y="850" type="curve" smooth="yes"/>
      <point x="280" y="850"/>
      <point x="294" y="846"/>
      <point x="318" y="837" type="curve" smooth="yes"/>
      <point x="372" y="816"/>
      <point x="384" y="812"/>
      <point x="403" y="812" type="curve" smooth="yes"/>
      <point x="452" y="812"/>
      <point x="482" y="847"/>
      <point x="492" y="916" type="curve"/>
    </contour>
  </outline>
</glyph>
<glyph name="Adieresis" format="1">
  <advance width="667"/>
  <unicode hex="00C4"/>
  <outline>
    <contour>
      <point x="474" y="219" type="line"/>
      <point x="549" y="0" type="line"/>
      <point x="653" y="0" type="line"/>
      <point x="397" y="729" type="line"/>
      <point x="277" y="729" type="line"/>
      <point x="17" y="0" type="line"/>
      <point x="116" y="0" type="line"/>
      <point x="193" y="219" type="line"/>
    </contour>
    <contour>
      <point x="448" y="297" type="line"/>
      <point x="216" y="297" type="line"/>
      <point x="336" y="629" type="line"/>
    </contour>
    <contour>
      <point x="306" y="914" type="line"/>
      <point x="202" y="914" type="line"/>
      <point x="202" y="811" type="line"/>
      <point x="306" y="811" type="line"/>
    </contour>
    <contour>
      <point x="468" y="914" type="line"/>
      <point x="364" y="914" type="line"/>
      <point x="364" y="811" type="line"/>
      <point x="468" y="811" type="line"/>
    </contour>
  </outline>
</glyph>
<glyph name="Aring" format="1">
  <advance width="667"/>
  <unicode hex="00C5"/>
  <outline>
    <contour>
      <point x="474" y="219" type="line"/>
      <point x="549" y="0" type="line"/>
      <point x="653" y="0" type="line"/>
      <point x="397" y="729" type="line"/>
      <point x="277" y="729" type="line"/>
      <point x="17" y="0" type="line"/>
      <point x="116" y="0" type="line"/>
      <point x="193" y="219" type="line"/>
    </contour>
    <contour>
      <point x="448" y="297" type="line"/>
      <point x="216" y="297" type="line"/>
      <point x="336" y="629" type="line"/>
    </contour>
    <contour>
      <point x="335" y="953" type="curve" smooth="yes"/>
      <point x="287" y="953"/>
      <point x="247" y="913"/>
      <point x="247" y="866" type="curve" smooth="yes"/>
      <point x="247" y="818"/>
      <point x="287" y="778"/>
      <point x="335" y="778" type="curve" smooth="yes"/>
      <point x="383" y="778"/>
      <point x="423" y="817"/>
      <point x="423" y="865" type="curve" smooth="yes"/>
      <point x="423" y="914"/>
      <point x="384" y="953"/>
    </contour>
    <contour>
      <point x="335" y="909" type="curve" smooth="yes"/>
      <point x="360" y="909"/>
      <point x="379" y="890"/>
      <point x="379" y="865" type="curve" smooth="yes"/>
      <point x="379" y="842"/>
      <point x="359" y="822"/>
      <point x="335" y="822" type="curve" smooth="yes"/>
      <point x="311" y="822"/>
      <point x="291" y="842"/>
      <point x="291" y="866" type="curve" smooth="yes"/>
      <point x="291" y="889"/>
      <point x="311" y="909"/>
    </contour>
  </outline>
</glyph>
<glyph name="AE" format="1">
  <advance width="1000"/>
  <unicode hex="00C6"/>
  <outline>
    <contour>
      <point x="468" y="214" type="line"/>
      <point x="468" y="0" type="line"/>
      <point x="950" y="0" type="line"/>
      <point x="950" y="82" type="line"/>
      <point x="561" y="82" type="line"/>
      <point x="561" y="332" type="line"/>
      <point x="913" y="332" type="line"/>
      <point x="913" y="414" type="line"/>
      <point x="561" y="414" type="line"/>
      <point x="561" y="647" type="line"/>
      <point x="932" y="647" type="line"/>
      <point x="932" y="729" type="line"/>
      <point x="310" y="729" type="line"/>
      <point x="11" y="0" type="line"/>
      <point x="114" y="0" type="line"/>
      <point x="199" y="214" type="line"/>
    </contour>
    <contour>
      <point x="468" y="296" type="line"/>
      <point x="230" y="296" type="line"/>
      <point x="368" y="647" type="line"/>
      <point x="468" y="647" type="line"/>
    </contour>
  </outline>
</glyph>
<glyph name="Ccedilla" format="1">
  <advance width="722"/>
  <unicode hex="00C7"/>
  <outline>
    <contour>
      <point x="379" y="-23" type="line"/>
      <point x="555" y="-23"/>
      <point x="655" y="75"/>
      <point x="677" y="266" type="curve"/>
      <point x="581" y="266" type="line"/>
      <point x="573" y="216"/>
      <point x="563" y="182"/>
      <point x="548" y="152" type="curve" smooth="yes"/>
      <point x="518" y="92"/>
      <point x="456" y="58"/>
      <point x="378" y="58" type="curve" smooth="yes"/>
      <point x="233" y="58"/>
      <point x="141" y="174"/>
      <point x="141" y="357" type="curve" smooth="yes"/>
      <point x="141" y="544"/>
      <point x="229" y="659"/>
      <point x="371" y="659" type="curve" smooth="yes"/>
      <point x="429" y="659"/>
      <point x="484" y="641"/>
      <point x="514" y="613" type="curve" smooth="yes"/>
      <point x="541" y="588"/>
      <point x="556" y="557"/>
      <point x="567" y="503" type="curve"/>
      <point x="662" y="503" type="line"/>
      <point x="633" y="663"/>
      <point x="541" y="741"/>
      <point x="381" y="741" type="curve" smooth="yes"/>
      <point x="283" y="741"/>
      <point x="204" y="710"/>
      <point x="150" y="650" type="curve" smooth="yes"/>
      <point x="84" y="578"/>
      <point x="48" y="473"/>
      <point x="48" y="356" type="curve" smooth="yes"/>
      <point x="48" y="214"/>
      <point x="101" y="94"/>
      <point x="192" y="29" type="curve" smooth="yes"/>
      <point x="235" y="-1"/>
      <point x="265" y="-12"/>
      <point x="341" y="-23" type="curve"/>
      <point x="310" y="-92" type="line"/>
      <point x="321" y="-99" type="line"/>
      <point x="333" y="-93"/>
      <point x="340" y="-91"/>
      <point x="352" y="-91" type="curve" smooth="yes"/>
      <point x="381" y="-91"/>
      <point x="398" y="-105"/>
      <point x="398" y="-128" type="curve" smooth="yes"/>
      <point x="398" y="-154"/>
      <point x="375" y="-173"/>
      <point x="344" y="-173" type="curve" smooth="yes"/>
      <point x="319" y="-173"/>
      <point x="300" y="-167"/>
      <point x="255" y="-144" type="curve"/>
      <point x="246" y="-140" type="line"/>
      <point x="225" y="-180" type="line"/>
      <point x="286" y="-207"/>
      <point x="312" y="-214"/>
      <point x="350" y="-214" type="curve" smooth="yes"/>
      <point x="426" y="-214"/>
      <point x="473" y="-178"/>
      <point x="473" y="-121" type="curve" smooth="yes"/>
      <point x="473" y="-78"/>
      <point x="444" y="-54"/>
      <point x="394" y="-54" type="curve" smooth="yes"/>
      <point x="386" y="-54"/>
      <point x="379" y="-54"/>
      <point x="366" y="-56" type="curve"/>
    </contour>
  </outline>
</glyph>
<glyph name="Egrave" format="1">
  <advance width="667"/>
  <unicode hex="00C8"/>
  <outline>
    <contour>
      <point x="183" y="332" type="line"/>
      <point x="580" y="332" type="line"/>
      <point x="580" y="414" type="line"/>
      <point x="183" y="414" type="line"/>
      <point x="183" y="647" type="line"/>
      <point x="595" y="647" type="line"/>
      <point x="595" y="729" type="line"/>
      <point x="90" y="729" type="line"/>
      <point x="90" y="0" type="line"/>
      <point x="613" y="0" type="line"/>
      <point x="613" y="82" type="line"/>
      <point x="183" y="82" type="line"/>
    </contour>
    <contour>
      <point x="320" y="939" type="line"/>
      <point x="207" y="939" type="line"/>
      <point x="356" y="791" type="line"/>
      <point x="416" y="791" type="line"/>
    </contour>
  </outline>
</glyph>
<glyph name="Eacute" format="1">
  <advance width="667"/>
  <unicode hex="00C9"/>
  <outline>
    <contour>
      <point x="183" y="332" type="line"/>
      <point x="580" y="332" type="line"/>
      <point x="580" y="414" type="line"/>
      <point x="183" y="414" type="line"/>
      <point x="183" y="647" type="line"/>
      <point x="595" y="647" type="line"/>
      <point x="595" y="729" type="line"/>
      <point x="90" y="729" type="line"/>
      <point x="90" y="0" type="line"/>
      <point x="613" y="0" type="line"/>
      <point x="613" y="82" type="line"/>
      <point x="183" y="82" type="line"/>
    </contour>
    <contour>
      <point x="366" y="939" type="line"/>
      <point x="270" y="791" type="line"/>
      <point x="330" y="791" type="line"/>
      <point x="479" y="939" type="line"/>
    </contour>
  </outline>
</glyph>
<glyph name="Ecircumflex" format="1">
  <advance width="667"/>
  <unicode hex="00CA"/>
  <outline>
    <contour>
      <point x="183" y="332" type="line"/>
      <point x="580" y="332" type="line"/>
      <point x="580" y="414" type="line"/>
      <point x="183" y="414" type="line"/>
      <point x="183" y="647" type="line"/>
      <point x="595" y="647" type="line"/>
      <point x="595" y="729" type="line"/>
      <point x="90" y="729" type="line"/>
      <point x="90" y="0" type="line"/>
      <point x="613" y="0" type="line"/>
      <point x="613" y="82" type="line"/>
      <point x="183" y="82" type="line"/>
    </contour>
    <contour>
      <point x="297" y="940" type="line"/>
      <point x="201" y="790" type="line"/>
      <point x="265" y="790" type="line"/>
      <point x="344" y="886" type="line"/>
      <point x="425" y="790" type="line"/>
      <point x="488" y="790" type="line"/>
      <point x="392" y="940" type="line"/>
    </contour>
  </outline>
</glyph>
<glyph name="Edieresis" format="1">
  <advance width="667"/>
  <unicode hex="00CB"/>
  <outline>
    <contour>
      <point x="183" y="332" type="line"/>
      <point x="580" y="332" type="line"/>
      <point x="580" y="414" type="line"/>
      <point x="183" y="414" type="line"/>
      <point x="183" y="647" type="line"/>
      <point x="595" y="647" type="line"/>
      <point x="595" y="729" type="line"/>
      <point x="90" y="729" type="line"/>
      <point x="90" y="0" type="line"/>
      <point x="613" y="0" type="line"/>
      <point x="613" y="82" type="line"/>
      <point x="183" y="82" type="line"/>
    </contour>
    <contour>
      <point x="315" y="914" type="line"/>
      <point x="211" y="914" type="line"/>
      <point x="211" y="811" type="line"/>
      <point x="315" y="811" type="line"/>
    </contour>
    <contour>
      <point x="477" y="914" type="line"/>
      <point x="373" y="914" type="line"/>
      <point x="373" y="811" type="line"/>
      <point x="477" y="811" type="line"/>
    </contour>
  </outline>
</glyph>
<glyph name="Igrave" format="1">
  <advance width="278"/>
  <unicode hex="00CC"/>
  <outline>
    <contour>
      <point x="193" y="729" type="line"/>
      <point x="100" y="729" type="line"/>
      <point x="100" y="0" type="line"/>
      <point x="193" y="0" type="line"/>
    </contour>
    <contour>
      <point x="114" y="939" type="line"/>
      <point x="1" y="939" type="line"/>
      <point x="150" y="791" type="line"/>
      <point x="210" y="791" type="line"/>
    </contour>
  </outline>
</glyph>
<glyph name="Iacute" format="1">
  <advance width="278"/>
  <unicode hex="00CD"/>
  <outline>
    <contour>
      <point x="193" y="729" type="line"/>
      <point x="100" y="729" type="line"/>
      <point x="100" y="0" type="line"/>
      <point x="193" y="0" type="line"/>
    </contour>
    <contour>
      <point x="167" y="939" type="line"/>
      <point x="71" y="791" type="line"/>
      <point x="131" y="791" type="line"/>
      <point x="280" y="939" type="line"/>
    </contour>
  </outline>
</glyph>
<glyph name="Icircumflex" format="1">
  <advance width="278"/>
  <unicode hex="00CE"/>
  <outline>
    <contour>
      <point x="193" y="729" type="line"/>
      <point x="100" y="729" type="line"/>
      <point x="100" y="0" type="line"/>
      <point x="193" y="0" type="line"/>
    </contour>
    <contour>
      <point x="95" y="940" type="line"/>
      <point x="-1" y="790" type="line"/>
      <point x="63" y="790" type="line"/>
      <point x="142" y="886" type="line"/>
      <point x="223" y="790" type="line"/>
      <point x="286" y="790" type="line"/>
      <point x="190" y="940" type="line"/>
    </contour>
  </outline>
</glyph>
<glyph name="Idieresis" format="1">
  <advance width="278"/>
  <unicode hex="00CF"/>
  <outline>
    <contour>
      <point x="193" y="729" type="line"/>
      <point x="100" y="729" type="line"/>
      <point x="100" y="0" type="line"/>
      <point x="193" y="0" type="line"/>
    </contour>
    <contour>
      <point x="113" y="907" type="line"/>
      <point x="9" y="907" type="line"/>
      <point x="9" y="804" type="line"/>
      <point x="113" y="804" type="line"/>
    </contour>
    <contour>
      <point x="275" y="907" type="line"/>
      <point x="171" y="907" type="line"/>
      <point x="171" y="804" type="line"/>
      <point x="275" y="804" type="line"/>
    </contour>
  </outline>
</glyph>
<glyph name="Eth" format="1">
  <advance width="722"/>
  <unicode hex="00D0"/>
  <outline>
    <contour>
      <point x="89" y="339" type="line"/>
      <point x="89" y="0" type="line"/>
      <point x="371" y="0" type="line" smooth="yes"/>
      <point x="555" y="0"/>
      <point x="667" y="138"/>
      <point x="667" y="365" type="curve" smooth="yes"/>
      <point x="667" y="591"/>
      <point x="555" y="729"/>
      <point x="371" y="729" type="curve" smooth="yes"/>
      <point x="89" y="729" type="line"/>
      <point x="89" y="406" type="line"/>
      <point x="20" y="406" type="line"/>
      <point x="20" y="339" type="line"/>
    </contour>
    <contour>
      <point x="182" y="339" type="line"/>
      <point x="353" y="339" type="line"/>
      <point x="353" y="406" type="line"/>
      <point x="182" y="406" type="line"/>
      <point x="182" y="647" type="line"/>
      <point x="355" y="647" type="line" smooth="yes"/>
      <point x="498" y="647"/>
      <point x="574" y="550"/>
      <point x="574" y="365" type="curve" smooth="yes"/>
      <point x="574" y="179"/>
      <point x="498" y="82"/>
      <point x="355" y="82" type="curve" smooth="yes"/>
      <point x="182" y="82" type="line"/>
    </contour>
  </outline>
</glyph>
<glyph name="Ntilde" format="1">
  <advance width="722"/>
  <unicode hex="00D1"/>
  <outline>
    <contour>
      <point x="646" y="729" type="line"/>
      <point x="558" y="729" type="line"/>
      <point x="558" y="133" type="line"/>
      <point x="177" y="729" type="line"/>
      <point x="76" y="729" type="line"/>
      <point x="76" y="0" type="line"/>
      <point x="164" y="0" type="line"/>
      <point x="164" y="591" type="line"/>
      <point x="541" y="0" type="line"/>
      <point x="646" y="0" type="line"/>
    </contour>
    <contour>
      <point x="467" y="916" type="line"/>
      <point x="459" y="891"/>
      <point x="448" y="879"/>
      <point x="430" y="879" type="curve" smooth="yes"/>
      <point x="418" y="879"/>
      <point x="391" y="886"/>
      <point x="367" y="897" type="curve" smooth="yes"/>
      <point x="325" y="914"/>
      <point x="318" y="916"/>
      <point x="297" y="916" type="curve" smooth="yes"/>
      <point x="253" y="916"/>
      <point x="222" y="879"/>
      <point x="211" y="813" type="curve"/>
      <point x="269" y="813" type="line"/>
      <point x="275" y="836"/>
      <point x="287" y="850"/>
      <point x="302" y="850" type="curve" smooth="yes"/>
      <point x="313" y="850"/>
      <point x="327" y="846"/>
      <point x="351" y="837" type="curve" smooth="yes"/>
      <point x="405" y="816"/>
      <point x="417" y="812"/>
      <point x="436" y="812" type="curve" smooth="yes"/>
      <point x="485" y="812"/>
      <point x="515" y="847"/>
      <point x="525" y="916" type="curve"/>
    </contour>
  </outline>
</glyph>
<glyph name="Ograve" format="1">
  <advance width="778"/>
  <unicode hex="00D2"/>
  <outline>
    <contour>
      <point x="389" y="741" type="curve" smooth="yes"/>
      <point x="180" y="741"/>
      <point x="38" y="587"/>
      <point x="38" y="359" type="curve" smooth="yes"/>
      <point x="38" y="131"/>
      <point x="180" y="-23"/>
      <point x="390" y="-23" type="curve" smooth="yes"/>
      <point x="478" y="-23"/>
      <point x="557" y="4"/>
      <point x="616" y="54" type="curve" smooth="yes"/>
      <point x="695" y="121"/>
      <point x="742" y="234"/>
      <point x="742" y="353" type="curve" smooth="yes"/>
      <point x="742" y="588"/>
      <point x="603" y="741"/>
    </contour>
    <contour>
      <point x="389" y="659" type="curve" smooth="yes"/>
      <point x="547" y="659"/>
      <point x="649" y="539"/>
      <point x="649" y="355" type="curve" smooth="yes"/>
      <point x="649" y="179"/>
      <point x="544" y="59"/>
      <point x="390" y="59" type="curve" smooth="yes"/>
      <point x="235" y="59"/>
      <point x="131" y="179"/>
      <point x="131" y="359" type="curve" smooth="yes"/>
      <point x="131" y="539"/>
      <point x="235" y="659"/>
    </contour>
    <contour>
      <point x="359" y="939" type="line"/>
      <point x="246" y="939" type="line"/>
      <point x="395" y="791" type="line"/>
      <point x="455" y="791" type="line"/>
    </contour>
  </outline>
</glyph>
<glyph name="Otilde" format="1">
  <advance width="778"/>
  <unicode hex="00D5"/>
  <outline>
    <contour>
      <point x="389" y="741" type="curve" smooth="yes"/>
      <point x="180" y="741"/>
      <point x="38" y="587"/>
      <point x="38" y="359" type="curve" smooth="yes"/>
      <point x="38" y="131"/>
      <point x="180" y="-23"/>
      <point x="390" y="-23" type="curve" smooth="yes"/>
      <point x="478" y="-23"/>
      <point x="557" y="4"/>
      <point x="616" y="54" type="curve" smooth="yes"/>
      <point x="695" y="121"/>
      <point x="742" y="234"/>
      <point x="742" y="353" type="curve" smooth="yes"/>
      <point x="742" y="588"/>
      <point x="603" y="741"/>
    </contour>
    <contour>
      <point x="389" y="659" type="curve" smooth="yes"/>
      <point x="547" y="659"/>
      <point x="649" y="539"/>
      <point x="649" y="355" type="curve" smooth="yes"/>
      <point x="649" y="179"/>
      <point x="544" y="59"/>
      <point x="390" y="59" type="curve" smooth="yes"/>
      <point x="235" y="59"/>
      <point x="131" y="179"/>
      <point x="131" y="359" type="curve" smooth="yes"/>
      <point x="131" y="539"/>
      <point x="235" y="659"/>
    </contour>
    <contour>
      <point x="492" y="916" type="line"/>
      <point x="484" y="891"/>
      <point x="473" y="879"/>
      <point x="455" y="879" type="curve" smooth="yes"/>
      <point x="443" y="879"/>
      <point x="416" y="886"/>
      <point x="392" y="897" type="curve" smooth="yes"/>
      <point x="350" y="914"/>
      <point x="343" y="916"/>
      <point x="322" y="916" type="curve" smooth="yes"/>
      <point x="278" y="916"/>
      <point x="247" y="879"/>
      <point x="236" y="813" type="curve"/>
      <point x="294" y="813" type="line"/>
      <point x="300" y="836"/>
      <point x="312" y="850"/>
      <point x="327" y="850" type="curve" smooth="yes"/>
      <point x="338" y="850"/>
      <point x="352" y="846"/>
      <point x="376" y="837" type="curve" smooth="yes"/>
      <point x="430" y="816"/>
      <point x="442" y="812"/>
      <point x="461" y="812" type="curve" smooth="yes"/>
      <point x="510" y="812"/>
      <point x="540" y="847"/>
      <point x="550" y="916" type="curve"/>
    </contour>
  </outline>
</glyph>
<glyph name="multiply" format="1">
  <advance width="584"/>
  <unicode hex="00D7"/>
  <outline>
    <contour>
      <point x="438" y="427" type="line"/>
      <point x="291" y="281" type="line"/>
      <point x="145" y="426" type="line"/>
      <point x="96" y="377" type="line"/>
      <point x="242" y="231" type="line"/>
      <point x="95" y="84" type="line"/>
      <point x="145" y="35" type="line"/>
      <point x="291" y="181" type="line"/>
      <point x="438" y="34" type="line"/>
      <point x="488" y="84" type="line"/>
      <point x="341" y="231" type="line"/>
      <point x="487" y="377" type="line"/>
    </contour>
  </outline>
</glyph>
<glyph name="Oslash" format="1">
  <advance width="778"/>
  <unicode hex="00D8"/>
  <outline>
    <contour>
      <point x="30" y="19" type="line"/>
      <point x="69" y="-17" type="line"/>
      <point x="146" y="67" type="line"/>
      <point x="212" y="6"/>
      <point x="290" y="-23"/>
      <point x="387" y="-23" type="curve" smooth="yes"/>
      <point x="597" y="-23"/>
      <point x="739" y="131"/>
      <point x="739" y="358" type="curve" smooth="yes"/>
      <point x="739" y="460"/>
      <point x="709" y="554"/>
      <point x="655" y="622" type="curve"/>
      <point x="744" y="719" type="line"/>
      <point x="704" y="755" type="line"/>
      <point x="617" y="660" type="line"/>
      <point x="555" y="714"/>
      <point x="478" y="741"/>
      <point x="387" y="741" type="curve" smooth="yes"/>
      <point x="177" y="741"/>
      <point x="35" y="587"/>
      <point x="35" y="360" type="curve" smooth="yes"/>
      <point x="35" y="263"/>
      <point x="61" y="178"/>
      <point x="111" y="108" type="curve"/>
    </contour>
    <contour>
      <point x="174" y="176" type="line"/>
      <point x="144" y="228"/>
      <point x="128" y="291"/>
      <point x="128" y="360" type="curve" smooth="yes"/>
      <point x="128" y="539"/>
      <point x="232" y="659"/>
      <point x="387" y="659" type="curve" smooth="yes"/>
      <point x="452" y="659"/>
      <point x="510" y="637"/>
      <point x="558" y="595" type="curve"/>
    </contour>
    <contour>
      <point x="593" y="554" type="line"/>
      <point x="628" y="500"/>
      <point x="646" y="433"/>
      <point x="646" y="358" type="curve" smooth="yes"/>
      <point x="646" y="179"/>
      <point x="542" y="59"/>
      <point x="387" y="59" type="curve" smooth="yes"/>
      <point x="316" y="59"/>
      <point x="255" y="84"/>
      <point x="206" y="133" type="curve"/>
    </contour>
  </outline>
</glyph>
<glyph name="Ucircumflex" format="1">
  <advance width="722"/>
  <unicode hex="00DB"/>
  <outline>
    <contour>
      <point x="552" y="729" type="line"/>
      <point x="552" y="217" type="line" smooth="yes"/>
      <point x="552" y="119"/>
      <point x="481" y="59"/>
      <point x="364" y="59" type="curve" smooth="yes"/>
      <point x="310" y="59"/>
      <point x="266" y="72"/>
      <point x="231" y="97" type="curve" smooth="yes"/>
      <point x="195" y="125"/>
      <point x="178" y="162"/>
      <point x="178" y="217" type="curve" smooth="yes"/>
      <point x="178" y="729" type="line"/>
      <point x="85" y="729" type="line"/>
      <point x="85" y="217" type="line" smooth="yes"/>
      <point x="85" y="69"/>
      <point x="191" y="-23"/>
      <point x="364" y="-23" type="curve" smooth="yes"/>
      <point x="535" y="-23"/>
      <point x="645" y="71"/>
      <point x="645" y="217" type="curve" smooth="yes"/>
      <point x="645" y="729" type="line"/>
    </contour>
    <contour>
      <point x="318" y="940" type="line"/>
      <point x="222" y="790" type="line"/>
      <point x="286" y="790" type="line"/>
      <point x="365" y="886" type="line"/>
      <point x="446" y="790" type="line"/>
      <point x="509" y="790" type="line"/>
      <point x="413" y="940" type="line"/>
    </contour>
  </outline>
</glyph>
<glyph name="Udieresis" format="1">
  <advance width="722"/>
  <unicode hex="00DC"/>
  <outline>
    <contour>
      <point x="552" y="729" type="line"/>
      <point x="552" y="217" type="line" smooth="yes"/>
      <point x="552" y="119"/>
      <point x="481" y="59"/>
      <point x="364" y="59" type="curve" smooth="yes"/>
      <point x="310" y="59"/>
      <point x="266" y="72"/>
      <point x="231" y="97" type="curve" smooth="yes"/>
      <point x="195" y="125"/>
      <point x="178" y="162"/>
      <point x="178" y="217" type="curve" smooth="yes"/>
      <point x="178" y="729" type="line"/>
      <point x="85" y="729" type="line"/>
      <point x="85" y="217" type="line" smooth="yes"/>
      <point x="85" y="69"/>
      <point x="191" y="-23"/>
      <point x="364" y="-23" type="curve" smooth="yes"/>
      <point x="535" y="-23"/>
      <point x="645" y="71"/>
      <point x="645" y="217" type="curve" smooth="yes"/>
      <point x="645" y="729" type="line"/>
    </contour>
    <contour>
      <point x="336" y="914" type="line"/>
      <point x="232" y="914" type="line"/>
      <point x="232" y="811" type="line"/>
      <point x="336" y="811" type="line"/>
    </contour>
    <contour>
      <point x="498" y="914" type="line"/>
      <point x="394" y="914" type="line"/>
      <point x="394" y="811" type="line"/>
      <point x="498" y="811" type="line"/>
    </contour>
  </outline>
</glyph>
<glyph name="Yacute" format="1">
  <advance width="666"/>
  <unicode hex="00DD"/>
  <outline>
    <contour>
      <point x="387" y="286" type="line"/>
      <point x="661" y="729" type="line"/>
      <point x="550" y="729" type="line"/>
      <point x="342" y="374" type="line"/>
      <point x="128" y="729" type="line"/>
      <point x="13" y="729" type="line"/>
      <point x="294" y="286" type="line"/>
      <point x="294" y="0" type="line"/>
      <point x="387" y="0" type="line"/>
    </contour>
    <contour>
      <point x="365" y="939" type="line"/>
      <point x="269" y="791" type="line"/>
      <point x="329" y="791" type="line"/>
      <point x="478" y="939" type="line"/>
    </contour>
  </outline>
</glyph>
<glyph name="Thorn" format="1">
  <advance width="666"/>
  <unicode hex="00DE"/>
  <outline>
    <contour>
      <point x="184" y="189" type="line"/>
      <point x="413" y="189" type="line" smooth="yes"/>
      <point x="532" y="189"/>
      <point x="616" y="275"/>
      <point x="616" y="397" type="curve" smooth="yes"/>
      <point x="616" y="529"/>
      <point x="531" y="609"/>
      <point x="392" y="609" type="curve" smooth="yes"/>
      <point x="184" y="609" type="line"/>
      <point x="184" y="729" type="line"/>
      <point x="91" y="729" type="line"/>
      <point x="91" y="0" type="line"/>
      <point x="184" y="0" type="line"/>
    </contour>
    <contour>
      <point x="184" y="271" type="line"/>
      <point x="184" y="527" type="line"/>
      <point x="378" y="527" type="line" smooth="yes"/>
      <point x="465" y="527"/>
      <point x="516" y="479"/>
      <point x="516" y="399" type="curve" smooth="yes"/>
      <point x="516" y="319"/>
      <point x="465" y="271"/>
      <point x="378" y="271" type="curve" smooth="yes"/>
    </contour>
  </outline>
</glyph>
<glyph name="germandbls" format="1">
  <advance width="611"/>
  <unicode hex="00DF"/>
  <outline>
    <contour>
      <point x="302" y="349" type="line"/>
      <point x="360" y="349"/>
      <point x="362" y="348"/>
      <point x="388" y="343" type="curve" smooth="yes"/>
      <point x="445" y="330"/>
      <point x="479" y="281"/>
      <point x="479" y="213" type="curve" smooth="yes"/>
      <point x="479" y="124"/>
      <point x="420" y="62"/>
      <point x="334" y="62" type="curve" smooth="yes"/>
      <point x="306" y="62" type="line"/>
      <point x="298" y="62" type="line"/>
      <point x="298" y="-16" type="line"/>
      <point x="315" y="-19"/>
      <point x="325" y="-20"/>
      <point x="342" y="-20" type="curve" smooth="yes"/>
      <point x="479" y="-20"/>
      <point x="566" y="72"/>
      <point x="566" y="219" type="curve" smooth="yes"/>
      <point x="566" y="312"/>
      <point x="523" y="368"/>
      <point x="426" y="401" type="curve"/>
      <point x="500" y="428"/>
      <point x="535" y="474"/>
      <point x="535" y="545" type="curve" smooth="yes"/>
      <point x="535" y="655"/>
      <point x="455" y="729"/>
      <point x="337" y="729" type="curve" smooth="yes"/>
      <point x="276" y="729"/>
      <point x="219" y="709"/>
      <point x="178" y="674" type="curve" smooth="yes"/>
      <point x="142" y="642"/>
      <point x="126" y="601"/>
      <point x="126" y="538" type="curve" smooth="yes"/>
      <point x="126" y="0" type="line"/>
      <point x="209" y="0" type="line"/>
      <point x="209" y="538" type="line" smooth="yes"/>
      <point x="209" y="607"/>
      <point x="257" y="651"/>
      <point x="330" y="651" type="curve" smooth="yes"/>
      <point x="399" y="651"/>
      <point x="448" y="606"/>
      <point x="448" y="542" type="curve" smooth="yes"/>
      <point x="448" y="477"/>
      <point x="391" y="431"/>
      <point x="311" y="431" type="curve" smooth="yes"/>
      <point x="302" y="431" type="line"/>
    </contour>
  </outline>
</glyph>
<glyph name="acircumflex" format="1">
  <advance width="556"/>
  <unicode hex="00E2"/>
  <outline>
    <contour>
      <point x="535" y="49" type="line"/>
      <point x="526" y="47"/>
      <point x="522" y="47"/>
      <point x="517" y="47" type="curve" smooth="yes"/>
      <point x="488" y="47"/>
      <point x="472" y="62"/>
      <point x="472" y="88" type="curve" smooth="yes"/>
      <point x="472" y="396" type="line" smooth="yes"/>
      <point x="472" y="489"/>
      <point x="404" y="539"/>
      <point x="275" y="539" type="curve" smooth="yes"/>
      <point x="199" y="539"/>
      <point x="136" y="517"/>
      <point x="101" y="478" type="curve" smooth="yes"/>
      <point x="77" y="451"/>
      <point x="67" y="421"/>
      <point x="65" y="369" type="curve"/>
      <point x="149" y="369" type="line"/>
      <point x="156" y="433"/>
      <point x="194" y="462"/>
      <point x="272" y="462" type="curve" smooth="yes"/>
      <point x="347" y="462"/>
      <point x="389" y="434"/>
      <point x="389" y="384" type="curve" smooth="yes"/>
      <point x="389" y="362" type="line" smooth="yes"/>
      <point x="389" y="327"/>
      <point x="368" y="312"/>
      <point x="302" y="304" type="curve" smooth="yes"/>
      <point x="184" y="289"/>
      <point x="166" y="285"/>
      <point x="134" y="272" type="curve" smooth="yes"/>
      <point x="73" y="247"/>
      <point x="42" y="200"/>
      <point x="42" y="132" type="curve" smooth="yes"/>
      <point x="42" y="37"/>
      <point x="108" y="-23"/>
      <point x="214" y="-23" type="curve" smooth="yes"/>
      <point x="280" y="-23"/>
      <point x="333" y="0"/>
      <point x="392" y="54" type="curve"/>
      <point x="398" y="1"/>
      <point x="424" y="-23"/>
      <point x="478" y="-23" type="curve" smooth="yes"/>
      <point x="495" y="-23"/>
      <point x="508" y="-21"/>
      <point x="535" y="-14" type="curve"/>
    </contour>
    <contour>
      <point x="389" y="165" type="line" smooth="yes"/>
      <point x="389" y="137"/>
      <point x="381" y="120"/>
      <point x="356" y="97" type="curve" smooth="yes"/>
      <point x="322" y="66"/>
      <point x="281" y="50"/>
      <point x="232" y="50" type="curve" smooth="yes"/>
      <point x="167" y="50"/>
      <point x="129" y="81"/>
      <point x="129" y="134" type="curve" smooth="yes"/>
      <point x="129" y="189"/>
      <point x="166" y="217"/>
      <point x="255" y="230" type="curve" smooth="yes"/>
      <point x="343" y="242"/>
      <point x="361" y="246"/>
      <point x="389" y="259" type="curve"/>
    </contour>
    <contour>
      <point x="228" y="741" type="line"/>
      <point x="132" y="591" type="line"/>
      <point x="196" y="591" type="line"/>
      <point x="275" y="687" type="line"/>
      <point x="356" y="591" type="line"/>
      <point x="419" y="591" type="line"/>
      <point x="323" y="741" type="line"/>
    </contour>
  </outline>
</glyph>
<glyph name="atilde" format="1">
  <advance width="556"/>
  <unicode hex="00E3"/>
  <outline>
    <contour>
      <point x="535" y="49" type="line"/>
      <point x="526" y="47"/>
      <point x="522" y="47"/>
      <point x="517" y="47" type="curve" smooth="yes"/>
      <point x="488" y="47"/>
      <point x="472" y="62"/>
      <point x="472" y="88" type="curve" smooth="yes"/>
      <point x="472" y="396" type="line" smooth="yes"/>
      <point x="472" y="489"/>
      <point x="404" y="539"/>
      <point x="275" y="539" type="curve" smooth="yes"/>
      <point x="199" y="539"/>
      <point x="136" y="517"/>
      <point x="101" y="478" type="curve" smooth="yes"/>
      <point x="77" y="451"/>
      <point x="67" y="421"/>
      <point x="65" y="369" type="curve"/>
      <point x="149" y="369" type="line"/>
      <point x="156" y="433"/>
      <point x="194" y="462"/>
      <point x="272" y="462" type="curve" smooth="yes"/>
      <point x="347" y="462"/>
      <point x="389" y="434"/>
      <point x="389" y="384" type="curve" smooth="yes"/>
      <point x="389" y="362" type="line" smooth="yes"/>
      <point x="389" y="327"/>
      <point x="368" y="312"/>
      <point x="302" y="304" type="curve" smooth="yes"/>
      <point x="184" y="289"/>
      <point x="166" y="285"/>
      <point x="134" y="272" type="curve" smooth="yes"/>
      <point x="73" y="247"/>
      <point x="42" y="200"/>
      <point x="42" y="132" type="curve" smooth="yes"/>
      <point x="42" y="37"/>
      <point x="108" y="-23"/>
      <point x="214" y="-23" type="curve" smooth="yes"/>
      <point x="280" y="-23"/>
      <point x="333" y="0"/>
      <point x="392" y="54" type="curve"/>
      <point x="398" y="1"/>
      <point x="424" y="-23"/>
      <point x="478" y="-23" type="curve" smooth="yes"/>
      <point x="495" y="-23"/>
      <point x="508" y="-21"/>
      <point x="535" y="-14" type="curve"/>
    </contour>
    <contour>
      <point x="389" y="165" type="line" smooth="yes"/>
      <point x="389" y="137"/>
      <point x="381" y="120"/>
      <point x="356" y="97" type="curve" smooth="yes"/>
      <point x="322" y="66"/>
      <point x="281" y="50"/>
      <point x="232" y="50" type="curve" smooth="yes"/>
      <point x="167" y="50"/>
      <point x="129" y="81"/>
      <point x="129" y="134" type="curve" smooth="yes"/>
      <point x="129" y="189"/>
      <point x="166" y="217"/>
      <point x="255" y="230" type="curve" smooth="yes"/>
      <point x="343" y="242"/>
      <point x="361" y="246"/>
      <point x="389" y="259" type="curve"/>
    </contour>
    <contour>
      <point x="374" y="717" type="line"/>
      <point x="366" y="692"/>
      <point x="355" y="680"/>
      <point x="337" y="680" type="curve" smooth="yes"/>
      <point x="325" y="680"/>
      <point x="298" y="687"/>
      <point x="274" y="698" type="curve" smooth="yes"/>
      <point x="232" y="715"/>
      <point x="225" y="717"/>
      <point x="204" y="717" type="curve" smooth="yes"/>
      <point x="160" y="717"/>
      <point x="129" y="680"/>
      <point x="118" y="614" type="curve"/>
      <point x="176" y="614" type="line"/>
      <point x="182" y="637"/>
      <point x="194" y="651"/>
      <point x="209" y="651" type="curve" smooth="yes"/>
      <point x="220" y="651"/>
      <point x="234" y="647"/>
      <point x="258" y="638" type="curve" smooth="yes"/>
      <point x="312" y="617"/>
      <point x="324" y="613"/>
      <point x="343" y="613" type="curve" smooth="yes"/>
      <point x="392" y="613"/>
      <point x="422" y="648"/>
      <point x="432" y="717" type="curve"/>
    </contour>
  </outline>
</glyph>
<glyph name="ae" format="1">
  <advance width="889"/>
  <unicode hex="00E6"/>
  <outline>
    <contour>
      <point x="751" y="159" type="line"/>
      <point x="727" y="90"/>
      <point x="680" y="54"/>
      <point x="613" y="54" type="curve" smooth="yes"/>
      <point x="560" y="54"/>
      <point x="515" y="78"/>
      <point x="487" y="122" type="curve" smooth="yes"/>
      <point x="467" y="152"/>
      <point x="460" y="182"/>
      <point x="459" y="234" type="curve"/>
      <point x="845" y="234" type="line"/>
      <point x="845" y="314"/>
      <point x="839" y="362"/>
      <point x="824" y="401" type="curve" smooth="yes"/>
      <point x="790" y="486"/>
      <point x="710" y="539"/>
      <point x="613" y="539" type="curve" smooth="yes"/>
      <point x="541" y="539"/>
      <point x="476" y="508"/>
      <point x="440" y="457" type="curve"/>
      <point x="409" y="511"/>
      <point x="350" y="539"/>
      <point x="265" y="539" type="curve" smooth="yes"/>
      <point x="191" y="539"/>
      <point x="128" y="517"/>
      <point x="93" y="478" type="curve" smooth="yes"/>
      <point x="69" y="451"/>
      <point x="59" y="421"/>
      <point x="57" y="369" type="curve"/>
      <point x="141" y="369" type="line"/>
      <point x="148" y="433"/>
      <point x="186" y="462"/>
      <point x="263" y="462" type="curve" smooth="yes"/>
      <point x="340" y="462"/>
      <point x="381" y="435"/>
      <point x="381" y="384" type="curve" smooth="yes"/>
      <point x="381" y="362" type="line" smooth="yes"/>
      <point x="381" y="323"/>
      <point x="362" y="309"/>
      <point x="294" y="303" type="curve" smooth="yes"/>
      <point x="210" y="296"/>
      <point x="159" y="286"/>
      <point x="127" y="272" type="curve" smooth="yes"/>
      <point x="65" y="246"/>
      <point x="34" y="200"/>
      <point x="34" y="132" type="curve" smooth="yes"/>
      <point x="34" y="38"/>
      <point x="100" y="-23"/>
      <point x="202" y="-23" type="curve" smooth="yes"/>
      <point x="280" y="-23"/>
      <point x="343" y="9"/>
      <point x="418" y="87" type="curve"/>
      <point x="425" y="75"/>
      <point x="429" y="68"/>
      <point x="434" y="60" type="curve" smooth="yes"/>
      <point x="469" y="8"/>
      <point x="535" y="-23"/>
      <point x="612" y="-23" type="curve" smooth="yes"/>
      <point x="730" y="-23"/>
      <point x="814" y="45"/>
      <point x="835" y="159" type="curve"/>
    </contour>
    <contour>
      <point x="381" y="157" type="line" smooth="yes"/>
      <point x="381" y="138"/>
      <point x="362" y="111"/>
      <point x="332" y="88" type="curve" smooth="yes"/>
      <point x="299" y="63"/>
      <point x="261" y="50"/>
      <point x="221" y="50" type="curve" smooth="yes"/>
      <point x="159" y="50"/>
      <point x="121" y="82"/>
      <point x="121" y="134" type="curve" smooth="yes"/>
      <point x="121" y="189"/>
      <point x="157" y="216"/>
      <point x="247" y="229" type="curve" smooth="yes"/>
      <point x="336" y="242"/>
      <point x="353" y="246"/>
      <point x="381" y="258" type="curve"/>
    </contour>
    <contour>
      <point x="461" y="302" type="line"/>
      <point x="468" y="399"/>
      <point x="527" y="462"/>
      <point x="611" y="462" type="curve" smooth="yes"/>
      <point x="696" y="462"/>
      <point x="755" y="397"/>
      <point x="755" y="302" type="curve"/>
    </contour>
  </outline>
</glyph>
<glyph name="ccedilla" format="1">
  <advance width="500"/>
  <unicode hex="00E7"/>
  <outline>
    <contour>
      <point x="264" y="-23" type="line"/>
      <point x="387" y="-23"/>
      <point x="470" y="55"/>
      <point x="477" y="180" type="curve"/>
      <point x="393" y="180" type="line"/>
      <point x="379" y="96"/>
      <point x="336" y="53"/>
      <point x="265" y="53" type="curve" smooth="yes"/>
      <point x="173" y="53"/>
      <point x="118" y="128"/>
      <point x="118" y="252" type="curve" smooth="yes"/>
      <point x="118" y="384"/>
      <point x="172" y="462"/>
      <point x="263" y="462" type="curve" smooth="yes"/>
      <point x="333" y="462"/>
      <point x="377" y="421"/>
      <point x="387" y="348" type="curve"/>
      <point x="471" y="348" type="line"/>
      <point x="467" y="399"/>
      <point x="456" y="432"/>
      <point x="436" y="461" type="curve" smooth="yes"/>
      <point x="400" y="510"/>
      <point x="337" y="539"/>
      <point x="264" y="539" type="curve" smooth="yes"/>
      <point x="123" y="539"/>
      <point x="31" y="427"/>
      <point x="31" y="253" type="curve" smooth="yes"/>
      <point x="31" y="148"/>
      <point x="67" y="62"/>
      <point x="132" y="16" type="curve" smooth="yes"/>
      <point x="159" y="-4"/>
      <point x="182" y="-13"/>
      <point x="225" y="-21" type="curve"/>
      <point x="194" y="-92" type="line"/>
      <point x="206" y="-99" type="line"/>
      <point x="218" y="-93"/>
      <point x="225" y="-91"/>
      <point x="237" y="-91" type="curve" smooth="yes"/>
      <point x="266" y="-91"/>
      <point x="283" y="-105"/>
      <point x="283" y="-128" type="curve" smooth="yes"/>
      <point x="283" y="-154"/>
      <point x="260" y="-173"/>
      <point x="229" y="-173" type="curve" smooth="yes"/>
      <point x="204" y="-173"/>
      <point x="184" y="-167"/>
      <point x="140" y="-144" type="curve"/>
      <point x="131" y="-140" type="line"/>
      <point x="110" y="-181" type="line"/>
      <point x="174" y="-208"/>
      <point x="196" y="-214"/>
      <point x="235" y="-214" type="curve" smooth="yes"/>
      <point x="311" y="-214"/>
      <point x="358" y="-178"/>
      <point x="358" y="-121" type="curve" smooth="yes"/>
      <point x="358" y="-79"/>
      <point x="329" y="-54"/>
      <point x="279" y="-54" type="curve" smooth="yes"/>
      <point x="271" y="-54"/>
      <point x="265" y="-54"/>
      <point x="251" y="-56" type="curve"/>
    </contour>
  </outline>
</glyph>
<glyph name="igrave" format="1">
  <advance width="278"/>
  <unicode hex="00EC"/>
  <outline>
    <contour>
      <point x="177" y="524" type="line"/>
      <point x="94" y="524" type="line"/>
      <point x="94" y="0" type="line"/>
      <point x="177" y="0" type="line"/>
    </contour>
    <contour>
      <point x="108" y="740" type="line"/>
      <point x="-5" y="740" type="line"/>
      <point x="144" y="592" type="line"/>
      <point x="204" y="592" type="line"/>
    </contour>
  </outline>
</glyph>
<glyph name="iacute" format="1">
  <advance width="278"/>
  <unicode hex="00ED"/>
  <outline>
    <contour>
      <point x="177" y="524" type="line"/>
      <point x="94" y="524" type="line"/>
      <point x="94" y="0" type="line"/>
      <point x="177" y="0" type="line"/>
    </contour>
    <contour>
      <point x="161" y="740" type="line"/>
      <point x="65" y="592" type="line"/>
      <point x="125" y="592" type="line"/>
      <point x="274" y="740" type="line"/>
    </contour>
  </outline>
</glyph>
<glyph name="icircumflex" format="1">
  <advance width="278"/>
  <unicode hex="00EE"/>
  <outline>
    <contour>
      <point x="177" y="524" type="line"/>
      <point x="94" y="524" type="line"/>
      <point x="94" y="0" type="line"/>
      <point x="177" y="0" type="line"/>
    </contour>
    <contour>
      <point x="89" y="741" type="line"/>
      <point x="-7" y="591" type="line"/>
      <point x="57" y="591" type="line"/>
      <point x="136" y="687" type="line"/>
      <point x="217" y="591" type="line"/>
      <point x="280" y="591" type="line"/>
      <point x="184" y="741" type="line"/>
    </contour>
  </outline>
</glyph>
<glyph name="idieresis" format="1">
  <advance width="278"/>
  <unicode hex="00EF"/>
  <outline>
    <contour>
      <point x="177" y="524" type="line"/>
      <point x="94" y="524" type="line"/>
      <point x="94" y="0" type="line"/>
      <point x="177" y="0" type="line"/>
    </contour>
    <contour>
      <point x="107" y="708" type="line"/>
      <point x="3" y="708" type="line"/>
      <point x="3" y="605" type="line"/>
      <point x="107" y="605" type="line"/>
    </contour>
    <contour>
      <point x="269" y="708" type="line"/>
      <point x="165" y="708" type="line"/>
      <point x="165" y="605" type="line"/>
      <point x="269" y="605" type="line"/>
    </contour>
  </outline>
</glyph>
<glyph name="eth" format="1">
  <advance width="556"/>
  <unicode hex="00F0"/>
  <outline>
    <contour>
      <point x="219" y="613" type="line"/>
      <point x="271" y="569"/>
      <point x="282" y="559"/>
      <point x="317" y="524" type="curve"/>
      <point x="287" y="534"/>
      <point x="273" y="537"/>
      <point x="254" y="537" type="curve" smooth="yes"/>
      <point x="214" y="537"/>
      <point x="174" y="525"/>
      <point x="140" y="502" type="curve" smooth="yes"/>
      <point x="71" y="458"/>
      <point x="36" y="375"/>
      <point x="36" y="258" type="curve" smooth="yes"/>
      <point x="36" y="79"/>
      <point x="122" y="-23"/>
      <point x="273" y="-23" type="curve" smooth="yes"/>
      <point x="424" y="-23"/>
      <point x="510" y="79"/>
      <point x="510" y="259" type="curve" smooth="yes"/>
      <point x="510" y="351"/>
      <point x="489" y="419"/>
      <point x="438" y="497" type="curve" smooth="yes"/>
      <point x="400" y="554"/>
      <point x="363" y="592"/>
      <point x="291" y="647" type="curve"/>
      <point x="381" y="688" type="line"/>
      <point x="341" y="725" type="line"/>
      <point x="244" y="680" type="line"/>
      <point x="177" y="723"/>
      <point x="164" y="730"/>
      <point x="133" y="743" type="curve"/>
      <point x="89" y="699" type="line"/>
      <point x="132" y="675"/>
      <point x="145" y="667"/>
      <point x="171" y="647" type="curve"/>
      <point x="86" y="607" type="line"/>
      <point x="122" y="568" type="line"/>
    </contour>
    <contour>
      <point x="273" y="462" type="curve" smooth="yes"/>
      <point x="367" y="462"/>
      <point x="423" y="385"/>
      <point x="423" y="255" type="curve" smooth="yes"/>
      <point x="423" y="132"/>
      <point x="365" y="54"/>
      <point x="273" y="54" type="curve" smooth="yes"/>
      <point x="180" y="54"/>
      <point x="123" y="132"/>
      <point x="123" y="258" type="curve" smooth="yes"/>
      <point x="123" y="384"/>
      <point x="180" y="462"/>
    </contour>
  </outline>
</glyph>
<glyph name="ntilde" format="1">
  <advance width="556"/>
  <unicode hex="00F1"/>
  <outline>
    <contour>
      <point x="70" y="524" type="line"/>
      <point x="70" y="0" type="line"/>
      <point x="154" y="0" type="line"/>
      <point x="154" y="289" type="line" smooth="yes"/>
      <point x="154" y="396"/>
      <point x="210" y="466"/>
      <point x="296" y="466" type="curve" smooth="yes"/>
      <point x="362" y="466"/>
      <point x="404" y="426"/>
      <point x="404" y="363" type="curve" smooth="yes"/>
      <point x="404" y="0" type="line"/>
      <point x="487" y="0" type="line"/>
      <point x="487" y="396" type="line" smooth="yes"/>
      <point x="487" y="483"/>
      <point x="422" y="539"/>
      <point x="321" y="539" type="curve" smooth="yes"/>
      <point x="243" y="539"/>
      <point x="193" y="509"/>
      <point x="147" y="436" type="curve"/>
      <point x="147" y="524" type="line"/>
    </contour>
    <contour>
      <point x="378" y="717" type="line"/>
      <point x="370" y="692"/>
      <point x="359" y="680"/>
      <point x="341" y="680" type="curve" smooth="yes"/>
      <point x="329" y="680"/>
      <point x="302" y="687"/>
      <point x="278" y="698" type="curve" smooth="yes"/>
      <point x="236" y="715"/>
      <point x="229" y="717"/>
      <point x="208" y="717" type="curve" smooth="yes"/>
      <point x="164" y="717"/>
      <point x="133" y="680"/>
      <point x="122" y="614" type="curve"/>
      <point x="180" y="614" type="line"/>
      <point x="186" y="637"/>
      <point x="198" y="651"/>
      <point x="213" y="651" type="curve" smooth="yes"/>
      <point x="224" y="651"/>
      <point x="238" y="647"/>
      <point x="262" y="638" type="curve" smooth="yes"/>
      <point x="316" y="617"/>
      <point x="328" y="613"/>
      <point x="347" y="613" type="curve" smooth="yes"/>
      <point x="396" y="613"/>
      <point x="426" y="648"/>
      <point x="436" y="717" type="curve"/>
    </contour>
  </outline>
</glyph>
<glyph name="otilde" format="1">
  <advance width="556"/>
  <unicode hex="00F5"/>
  <outline>
    <contour>
      <point x="272" y="539" type="curve" smooth="yes"/>
      <point x="125" y="539"/>
      <point x="36" y="434"/>
      <point x="36" y="258" type="curve" smooth="yes"/>
      <point x="36" y="82"/>
      <point x="124" y="-23"/>
      <point x="273" y="-23" type="curve" smooth="yes"/>
      <point x="420" y="-23"/>
      <point x="510" y="82"/>
      <point x="510" y="254" type="curve" smooth="yes"/>
      <point x="510" y="435"/>
      <point x="423" y="539"/>
    </contour>
    <contour>
      <point x="273" y="462" type="curve" smooth="yes"/>
      <point x="367" y="462"/>
      <point x="423" y="385"/>
      <point x="423" y="255" type="curve" smooth="yes"/>
      <point x="423" y="132"/>
      <point x="365" y="54"/>
      <point x="273" y="54" type="curve" smooth="yes"/>
      <point x="180" y="54"/>
      <point x="123" y="131"/>
      <point x="123" y="258" type="curve" smooth="yes"/>
      <point x="123" y="384"/>
      <point x="180" y="462"/>
    </contour>
    <contour>
      <point x="375" y="717" type="line"/>
      <point x="367" y="692"/>
      <point x="356" y="680"/>
      <point x="338" y="680" type="curve" smooth="yes"/>
      <point x="326" y="680"/>
      <point x="299" y="687"/>
      <point x="275" y="698" type="curve" smooth="yes"/>
      <point x="233" y="715"/>
      <point x="226" y="717"/>
      <point x="205" y="717" type="curve" smooth="yes"/>
      <point x="161" y="717"/>
      <point x="130" y="680"/>
      <point x="119" y="614" type="curve"/>
      <point x="177" y="614" type="line"/>
      <point x="183" y="637"/>
      <point x="195" y="651"/>
      <point x="210" y="651" type="curve" smooth="yes"/>
      <point x="221" y="651"/>
      <point x="235" y="647"/>
      <point x="259" y="638" type="curve" smooth="yes"/>
      <point x="313" y="617"/>
      <point x="325" y="613"/>
      <point x="344" y="613" type="curve" smooth="yes"/>
      <point x="393" y="613"/>
      <point x="423" y="648"/>
      <point x="433" y="717" type="curve"/>
    </contour>
  </outline>
</glyph>
<glyph name="divide" format="1">
  <advance width="584"/>
  <unicode hex="00F7"/>
  <outline>
    <contour>
      <point x="534" y="271" type="line"/>
      <point x="50" y="271" type="line"/>
      <point x="50" y="201" type="line"/>
      <point x="534" y="201" type="line"/>
    </contour>
    <contour>
      <point x="344" y="104" type="line"/>
      <point x="240" y="104" type="line"/>
      <point x="240" y="0" type="line"/>
      <point x="344" y="0" type="line"/>
    </contour>
    <contour>
      <point x="344" y="472" type="line"/>
      <point x="240" y="472" type="line"/>
      <point x="240" y="368" type="line"/>
      <point x="344" y="368" type="line"/>
    </contour>
  </outline>
</glyph>
<glyph name="oslash" format="1">
  <advance width="611"/>
  <unicode hex="00F8"/>
  <outline>
    <contour>
      <point x="529" y="511" type="line"/>
      <point x="497" y="539" type="line"/>
      <point x="439" y="474" type="line"/>
      <point x="394" y="519"/>
      <point x="342" y="539"/>
      <point x="273" y="539" type="curve" smooth="yes"/>
      <point x="125" y="539"/>
      <point x="36" y="434"/>
      <point x="36" y="258" type="curve" smooth="yes"/>
      <point x="36" y="180"/>
      <point x="51" y="121"/>
      <point x="84" y="72" type="curve"/>
      <point x="18" y="-2" type="line"/>
      <point x="50" y="-30" type="line"/>
      <point x="111" y="39" type="line"/>
      <point x="151" y="-2"/>
      <point x="207" y="-23"/>
      <point x="274" y="-23" type="curve" smooth="yes"/>
      <point x="422" y="-23"/>
      <point x="510" y="82"/>
      <point x="510" y="258" type="curve" smooth="yes"/>
      <point x="510" y="334"/>
      <point x="496" y="390"/>
      <point x="466" y="440" type="curve"/>
    </contour>
    <contour>
      <point x="405" y="371" type="line"/>
      <point x="417" y="340"/>
      <point x="423" y="302"/>
      <point x="423" y="258" type="curve" smooth="yes"/>
      <point x="423" y="132"/>
      <point x="366" y="54"/>
      <point x="273" y="54" type="curve" smooth="yes"/>
      <point x="231" y="54"/>
      <point x="196" y="70"/>
      <point x="167" y="102" type="curve"/>
    </contour>
    <contour>
      <point x="144" y="141" type="line"/>
      <point x="130" y="174"/>
      <point x="123" y="211"/>
      <point x="123" y="258" type="curve" smooth="yes"/>
      <point x="123" y="384"/>
      <point x="180" y="462"/>
      <point x="273" y="462" type="curve" smooth="yes"/>
      <point x="317" y="462"/>
      <point x="357" y="443"/>
      <point x="383" y="410" type="curve"/>
    </contour>
  </outline>
</glyph>
<glyph name="ugrave" format="1">
  <advance width="556"/>
  <unicode hex="00F9"/>
  <outline>
    <contour>
      <point x="482" y="0" type="line"/>
      <point x="482" y="524" type="line"/>
      <point x="399" y="524" type="line"/>
      <point x="399" y="227" type="line" smooth="yes"/>
      <point x="399" y="120"/>
      <point x="343" y="50"/>
      <point x="256" y="50" type="curve" smooth="yes"/>
      <point x="190" y="50"/>
      <point x="148" y="90"/>
      <point x="148" y="153" type="curve" smooth="yes"/>
      <point x="148" y="524" type="line"/>
      <point x="65" y="524" type="line"/>
      <point x="65" y="120" type="line" smooth="yes"/>
      <point x="65" y="33"/>
      <point x="130" y="-23"/>
      <point x="232" y="-23" type="curve" smooth="yes"/>
      <point x="309" y="-23"/>
      <point x="358" y="4"/>
      <point x="407" y="73" type="curve"/>
      <point x="407" y="0" type="line"/>
    </contour>
    <contour>
      <point x="243" y="740" type="line"/>
      <point x="130" y="740" type="line"/>
      <point x="279" y="592" type="line"/>
      <point x="339" y="592" type="line"/>
    </contour>
  </outline>
</glyph>
<glyph name="ucircumflex" format="1">
  <advance width="556"/>
  <unicode hex="00FB"/>
  <outline>
    <contour>
      <point x="482" y="0" type="line"/>
      <point x="482" y="524" type="line"/>
      <point x="399" y="524" type="line"/>
      <point x="399" y="227" type="line" smooth="yes"/>
      <point x="399" y="120"/>
      <point x="343" y="50"/>
      <point x="256" y="50" type="curve" smooth="yes"/>
      <point x="190" y="50"/>
      <point x="148" y="90"/>
      <point x="148" y="153" type="curve" smooth="yes"/>
      <point x="148" y="524" type="line"/>
      <point x="65" y="524" type="line"/>
      <point x="65" y="120" type="line" smooth="yes"/>
      <point x="65" y="33"/>
      <point x="130" y="-23"/>
      <point x="232" y="-23" type="curve" smooth="yes"/>
      <point x="309" y="-23"/>
      <point x="358" y="4"/>
      <point x="407" y="73" type="curve"/>
      <point x="407" y="0" type="line"/>
    </contour>
    <contour>
      <point x="227" y="741" type="line"/>
      <point x="131" y="591" type="line"/>
      <point x="195" y="591" type="line"/>
      <point x="274" y="687" type="line"/>
      <point x="355" y="591" type="line"/>
      <point x="418" y="591" type="line"/>
      <point x="322" y="741" type="line"/>
    </contour>
  </outline>
</glyph>
<glyph name="thorn" format="1">
  <advance width="555"/>
  <unicode hex="00FE"/>
  <outline>
    <contour>
      <point x="54" y="-218" type="line"/>
      <point x="137" y="-218" type="line"/>
      <point x="137" y="55" type="line"/>
      <point x="181" y="1"/>
      <point x="230" y="-23"/>
      <point x="298" y="-23" type="curve" smooth="yes"/>
      <point x="433" y="-23"/>
      <point x="522" y="86"/>
      <point x="522" y="253" type="curve" smooth="yes"/>
      <point x="522" y="427"/>
      <point x="434" y="539"/>
      <point x="298" y="539" type="curve" smooth="yes"/>
      <point x="231" y="539"/>
      <point x="173" y="510"/>
      <point x="137" y="459" type="curve"/>
      <point x="137" y="714" type="line"/>
      <point x="54" y="714" type="line"/>
    </contour>
    <contour>
      <point x="283" y="461" type="curve" smooth="yes"/>
      <point x="375" y="461"/>
      <point x="435" y="380"/>
      <point x="435" y="255" type="curve" smooth="yes"/>
      <point x="435" y="136"/>
      <point x="374" y="55"/>
      <point x="283" y="55" type="curve" smooth="yes"/>
      <point x="195" y="55"/>
      <point x="137" y="135"/>
      <point x="137" y="258" type="curve" smooth="yes"/>
      <point x="137" y="381"/>
      <point x="195" y="461"/>
    </contour>
  </outline>
</glyph>
<glyph name="ydieresis" format="1">
  <advance width="500"/>
  <unicode hex="00FF"/>
  <outline>
    <contour>
      <point x="388" y="524" type="line"/>
      <point x="243" y="116" type="line"/>
      <point x="109" y="524" type="line"/>
      <point x="20" y="524" type="line"/>
      <point x="197" y="-2" type="line"/>
      <point x="165" y="-85" type="line" smooth="yes"/>
      <point x="152" y="-122"/>
      <point x="133" y="-136"/>
      <point x="98" y="-136" type="curve" smooth="yes"/>
      <point x="86" y="-136"/>
      <point x="72" y="-134"/>
      <point x="54" y="-130" type="curve"/>
      <point x="54" y="-205" type="line"/>
      <point x="71" y="-214"/>
      <point x="88" y="-218"/>
      <point x="110" y="-218" type="curve" smooth="yes"/>
      <point x="137" y="-218"/>
      <point x="166" y="-209"/>
      <point x="188" y="-193" type="curve" smooth="yes"/>
      <point x="214" y="-174"/>
      <point x="229" y="-152"/>
      <point x="245" y="-110" type="curve" smooth="yes"/>
      <point x="478" y="524" type="line"/>
    </contour>
    <contour>
      <point x="217" y="715" type="line"/>
      <point x="113" y="715" type="line"/>
      <point x="113" y="612" type="line"/>
      <point x="217" y="612" type="line"/>
    </contour>
    <contour>
      <point x="379" y="715" type="line"/>
      <point x="275" y="715" type="line"/>
      <point x="275" y="612" type="line"/>
      <point x="379" y="612" type="line"/>
    </contour>
  </outline>
</glyph>
<glyph name="Abreve" format="1">
  <advance width="667"/>
  <unicode hex="0102"/>
  <outline>
    <contour>
      <point x="474" y="219" type="line"/>
      <point x="549" y="0" type="line"/>
      <point x="653" y="0" type="line"/>
      <point x="397" y="729" type="line"/>
      <point x="277" y="729" type="line"/>
      <point x="17" y="0" type="line"/>
      <point x="116" y="0" type="line"/>
      <point x="193" y="219" type="line"/>
    </contour>
    <contour>
      <point x="448" y="297" type="line"/>
      <point x="216" y="297" type="line"/>
      <point x="336" y="629" type="line"/>
    </contour>
    <contour>
      <point x="185" y="931" type="line"/>
      <point x="186" y="892"/>
      <point x="191" y="873"/>
      <point x="206" y="853" type="curve" smooth="yes"/>
      <point x="233" y="816"/>
      <point x="278" y="796"/>
      <point x="334" y="796" type="curve" smooth="yes"/>
      <point x="427" y="796"/>
      <point x="479" y="842"/>
      <point x="486" y="931" type="curve"/>
      <point x="427" y="931" type="line"/>
      <point x="423" y="889"/>
      <point x="390" y="865"/>
      <point x="336" y="865" type="curve" smooth="yes"/>
      <point x="279" y="865"/>
      <point x="249" y="887"/>
      <point x="244" y="931" type="curve"/>
    </contour>
  </outline>
</glyph>
<glyph name="Aogonek" format="1">
  <advance width="667"/>
  <unicode hex="0104"/>
  <outline>
    <contour>
      <point x="474" y="219" type="line"/>
      <point x="549" y="0" type="line"/>
      <point x="585" y="0" type="line"/>
      <point x="514" y="-31"/>
      <point x="484" y="-63"/>
      <point x="484" y="-111" type="curve" smooth="yes"/>
      <point x="484" y="-150"/>
      <point x="505" y="-176"/>
      <point x="547" y="-192" type="curve" smooth="yes"/>
      <point x="569" y="-200"/>
      <point x="594" y="-205"/>
      <point x="616" y="-205" type="curve" smooth="yes"/>
      <point x="635" y="-205"/>
      <point x="668" y="-200"/>
      <point x="692" y="-195" type="curve"/>
      <point x="692" y="-150" type="line"/>
      <point x="674" y="-157"/>
      <point x="653" y="-160"/>
      <point x="629" y="-160" type="curve" smooth="yes"/>
      <point x="582" y="-160"/>
      <point x="557" y="-141"/>
      <point x="557" y="-105" type="curve" smooth="yes"/>
      <point x="557" y="-64"/>
      <point x="588" y="-31"/>
      <point x="653" y="0" type="curve"/>
      <point x="397" y="729" type="line"/>
      <point x="277" y="729" type="line"/>
      <point x="17" y="0" type="line"/>
      <point x="116" y="0" type="line"/>
      <point x="193" y="219" type="line"/>
    </contour>
    <contour>
      <point x="448" y="297" type="line"/>
      <point x="216" y="297" type="line"/>
      <point x="336" y="629" type="line"/>
    </contour>
  </outline>
</glyph>
<glyph name="aogonek" format="1">
  <advance width="556"/>
  <unicode hex="0105"/>
  <outline>
    <contour>
      <point x="536" y="49" type="line"/>
      <point x="527" y="47"/>
      <point x="523" y="47"/>
      <point x="518" y="47" type="curve" smooth="yes"/>
      <point x="489" y="47"/>
      <point x="473" y="62"/>
      <point x="473" y="88" type="curve" smooth="yes"/>
      <point x="473" y="396" type="line" smooth="yes"/>
      <point x="473" y="489"/>
      <point x="405" y="539"/>
      <point x="276" y="539" type="curve" smooth="yes"/>
      <point x="200" y="539"/>
      <point x="138" y="517"/>
      <point x="102" y="478" type="curve" smooth="yes"/>
      <point x="79" y="451"/>
      <point x="69" y="421"/>
      <point x="67" y="369" type="curve"/>
      <point x="151" y="369" type="line"/>
      <point x="157" y="433"/>
      <point x="195" y="462"/>
      <point x="273" y="462" type="curve" smooth="yes"/>
      <point x="349" y="462"/>
      <point x="390" y="435"/>
      <point x="390" y="384" type="curve" smooth="yes"/>
      <point x="390" y="362" type="line" smooth="yes"/>
      <point x="390" y="326"/>
      <point x="369" y="312"/>
      <point x="304" y="304" type="curve" smooth="yes"/>
      <point x="185" y="289"/>
      <point x="167" y="285"/>
      <point x="136" y="272" type="curve" smooth="yes"/>
      <point x="74" y="246"/>
      <point x="43" y="200"/>
      <point x="43" y="132" type="curve" smooth="yes"/>
      <point x="43" y="37"/>
      <point x="109" y="-23"/>
      <point x="215" y="-23" type="curve" smooth="yes"/>
      <point x="281" y="-23"/>
      <point x="337" y="1"/>
      <point x="393" y="54" type="curve"/>
      <point x="397" y="10"/>
      <point x="418" y="-16"/>
      <point x="456" y="-23" type="curve"/>
      <point x="406" y="-50"/>
      <point x="388" y="-74"/>
      <point x="388" y="-112" type="curve" smooth="yes"/>
      <point x="388" y="-150"/>
      <point x="411" y="-179"/>
      <point x="451" y="-192" type="curve" smooth="yes"/>
      <point x="474" y="-199"/>
      <point x="505" y="-205"/>
      <point x="525" y="-205" type="curve" smooth="yes"/>
      <point x="541" y="-205"/>
      <point x="571" y="-201"/>
      <point x="596" y="-195" type="curve"/>
      <point x="596" y="-150" type="line"/>
      <point x="578" y="-157"/>
      <point x="557" y="-160"/>
      <point x="532" y="-160" type="curve" smooth="yes"/>
      <point x="485" y="-160"/>
      <point x="460" y="-141"/>
      <point x="460" y="-105" type="curve" smooth="yes"/>
      <point x="460" y="-66"/>
      <point x="488" y="-33"/>
      <point x="536" y="-14" type="curve"/>
    </contour>
    <contour>
      <point x="389" y="165" type="line" smooth="yes"/>
      <point x="389" y="137"/>
      <point x="381" y="120"/>
      <point x="356" y="97" type="curve" smooth="yes"/>
      <point x="322" y="66"/>
      <point x="281" y="50"/>
      <point x="232" y="50" type="curve" smooth="yes"/>
      <point x="167" y="50"/>
      <point x="129" y="81"/>
      <point x="129" y="134" type="curve" smooth="yes"/>
      <point x="129" y="189"/>
      <point x="166" y="217"/>
      <point x="255" y="230" type="curve" smooth="yes"/>
      <point x="343" y="242"/>
      <point x="361" y="246"/>
      <point x="389" y="259" type="curve"/>
    </contour>
  </outline>
</glyph>
<glyph name="Ccaron" format="1">
  <advance width="722"/>
  <unicode hex="010C"/>
  <outline>
    <contour>
      <point x="662" y="503" type="line"/>
      <point x="633" y="663"/>
      <point x="541" y="741"/>
      <point x="381" y="741" type="curve" smooth="yes"/>
      <point x="283" y="741"/>
      <point x="204" y="710"/>
      <point x="150" y="650" type="curve" smooth="yes"/>
      <point x="84" y="578"/>
      <point x="48" y="474"/>
      <point x="48" y="356" type="curve" smooth="yes"/>
      <point x="48" y="236"/>
      <point x="85" y="133"/>
      <point x="154" y="62" type="curve" smooth="yes"/>
      <point x="210" y="4"/>
      <point x="282" y="-23"/>
      <point x="377" y="-23" type="curve" smooth="yes"/>
      <point x="555" y="-23"/>
      <point x="655" y="73"/>
      <point x="677" y="266" type="curve"/>
      <point x="581" y="266" type="line"/>
      <point x="573" y="216"/>
      <point x="563" y="182"/>
      <point x="548" y="153" type="curve" smooth="yes"/>
      <point x="518" y="93"/>
      <point x="456" y="59"/>
      <point x="378" y="59" type="curve" smooth="yes"/>
      <point x="233" y="59"/>
      <point x="141" y="175"/>
      <point x="141" y="357" type="curve" smooth="yes"/>
      <point x="141" y="544"/>
      <point x="229" y="659"/>
      <point x="370" y="659" type="curve" smooth="yes"/>
      <point x="429" y="659"/>
      <point x="484" y="641"/>
      <point x="514" y="613" type="curve" smooth="yes"/>
      <point x="541" y="588"/>
      <point x="556" y="557"/>
      <point x="567" y="503" type="curve"/>
    </contour>
    <contour>
      <point x="428" y="790" type="line"/>
      <point x="524" y="940" type="line"/>
      <point x="460" y="940" type="line"/>
      <point x="381" y="844" type="line"/>
      <point x="300" y="940" type="line"/>
      <point x="237" y="940" type="line"/>
      <point x="333" y="790" type="line"/>
    </contour>
  </outline>
</glyph>
<glyph name="ccaron" format="1">
  <advance width="500"/>
  <unicode hex="010D"/>
  <outline>
    <contour>
      <point x="471" y="348" type="line"/>
      <point x="467" y="399"/>
      <point x="456" y="432"/>
      <point x="436" y="461" type="curve" smooth="yes"/>
      <point x="400" y="510"/>
      <point x="337" y="539"/>
      <point x="264" y="539" type="curve" smooth="yes"/>
      <point x="123" y="539"/>
      <point x="31" y="427"/>
      <point x="31" y="253" type="curve" smooth="yes"/>
      <point x="31" y="84"/>
      <point x="121" y="-23"/>
      <point x="263" y="-23" type="curve" smooth="yes"/>
      <point x="388" y="-23"/>
      <point x="467" y="52"/>
      <point x="477" y="180" type="curve"/>
      <point x="393" y="180" type="line"/>
      <point x="379" y="96"/>
      <point x="336" y="54"/>
      <point x="265" y="54" type="curve" smooth="yes"/>
      <point x="173" y="54"/>
      <point x="118" y="129"/>
      <point x="118" y="253" type="curve" smooth="yes"/>
      <point x="118" y="384"/>
      <point x="172" y="462"/>
      <point x="263" y="462" type="curve" smooth="yes"/>
      <point x="333" y="462"/>
      <point x="377" y="421"/>
      <point x="387" y="348" type="curve"/>
    </contour>
    <contour>
      <point x="313" y="591" type="line"/>
      <point x="409" y="741" type="line"/>
      <point x="345" y="741" type="line"/>
      <point x="266" y="645" type="line"/>
      <point x="185" y="741" type="line"/>
      <point x="122" y="741" type="line"/>
      <point x="218" y="591" type="line"/>
    </contour>
  </outline>
</glyph>
<glyph name="Dcaron" format="1">
  <advance width="722"/>
  <unicode hex="010E"/>
  <outline>
    <contour>
      <point x="89" y="0" type="line"/>
      <point x="370" y="0" type="line" smooth="yes"/>
      <point x="554" y="0"/>
      <point x="667" y="138"/>
      <point x="667" y="365" type="curve" smooth="yes"/>
      <point x="667" y="591"/>
      <point x="555" y="729"/>
      <point x="370" y="729" type="curve" smooth="yes"/>
      <point x="89" y="729" type="line"/>
    </contour>
    <contour>
      <point x="182" y="82" type="line"/>
      <point x="182" y="647" type="line"/>
      <point x="354" y="647" type="line" smooth="yes"/>
      <point x="498" y="647"/>
      <point x="574" y="550"/>
      <point x="574" y="364" type="curve" smooth="yes"/>
      <point x="574" y="180"/>
      <point x="498" y="82"/>
      <point x="354" y="82" type="curve" smooth="yes"/>
    </contour>
    <contour>
      <point x="386" y="790" type="line"/>
      <point x="482" y="940" type="line"/>
      <point x="418" y="940" type="line"/>
      <point x="339" y="844" type="line"/>
      <point x="258" y="940" type="line"/>
      <point x="195" y="940" type="line"/>
      <point x="291" y="790" type="line"/>
    </contour>
  </outline>
</glyph>
<glyph name="dcaron" format="1">
  <advance width="635"/>
  <unicode hex="010F"/>
  <outline>
    <contour>
      <point x="495" y="729" type="line"/>
      <point x="412" y="729" type="line"/>
      <point x="412" y="458" type="line"/>
      <point x="377" y="511"/>
      <point x="321" y="539"/>
      <point x="251" y="539" type="curve" smooth="yes"/>
      <point x="115" y="539"/>
      <point x="26" y="430"/>
      <point x="26" y="263" type="curve" smooth="yes"/>
      <point x="26" y="86"/>
      <point x="113" y="-23"/>
      <point x="254" y="-23" type="curve" smooth="yes"/>
      <point x="326" y="-23"/>
      <point x="376" y="4"/>
      <point x="421" y="69" type="curve"/>
      <point x="421" y="0" type="line"/>
      <point x="495" y="0" type="line"/>
    </contour>
    <contour>
      <point x="265" y="461" type="curve" smooth="yes"/>
      <point x="355" y="461"/>
      <point x="412" y="381"/>
      <point x="412" y="256" type="curve" smooth="yes"/>
      <point x="412" y="135"/>
      <point x="354" y="55"/>
      <point x="266" y="55" type="curve" smooth="yes"/>
      <point x="174" y="55"/>
      <point x="113" y="136"/>
      <point x="113" y="258" type="curve" smooth="yes"/>
      <point x="113" y="380"/>
      <point x="174" y="461"/>
    </contour>
    <contour>
      <point x="548" y="729" type="line"/>
      <point x="548" y="629" type="line"/>
      <point x="603" y="629" type="line"/>
      <point x="605" y="574"/>
      <point x="586" y="543"/>
      <point x="548" y="543" type="curve"/>
      <point x="548" y="505" type="line"/>
      <point x="556" y="505" type="line" smooth="yes"/>
      <point x="610" y="505"/>
      <point x="648" y="556"/>
      <point x="648" y="626" type="curve" smooth="yes"/>
      <point x="648" y="729" type="line"/>
    </contour>
  </outline>
</glyph>
<glyph name="dcroat" format="1">
  <advance width="556"/>
  <unicode hex="0111"/>
  <outline>
    <contour>
      <point x="494" y="653" type="line"/>
      <point x="494" y="729" type="line"/>
      <point x="411" y="729" type="line"/>
      <point x="411" y="653" type="line"/>
      <point x="261" y="653" type="line"/>
      <point x="261" y="600" type="line"/>
      <point x="411" y="600" type="line"/>
      <point x="411" y="461" type="line"/>
      <point x="367" y="515"/>
      <point x="318" y="539"/>
      <point x="250" y="539" type="curve" smooth="yes"/>
      <point x="115" y="539"/>
      <point x="26" y="430"/>
      <point x="26" y="264" type="curve" smooth="yes"/>
      <point x="26" y="91"/>
      <point x="116" y="-23"/>
      <point x="252" y="-23" type="curve" smooth="yes"/>
      <point x="319" y="-23"/>
      <point x="372" y="3"/>
      <point x="420" y="59" type="curve"/>
      <point x="420" y="0" type="line"/>
      <point x="494" y="0" type="line"/>
      <point x="494" y="600" type="line"/>
      <point x="557" y="600" type="line"/>
      <point x="557" y="653" type="line"/>
    </contour>
    <contour>
      <point x="265" y="457" type="curve" smooth="yes"/>
      <point x="354" y="457"/>
      <point x="411" y="379"/>
      <point x="411" y="256" type="curve" smooth="yes"/>
      <point x="411" y="137"/>
      <point x="353" y="59"/>
      <point x="265" y="59" type="curve" smooth="yes"/>
      <point x="174" y="59"/>
      <point x="113" y="139"/>
      <point x="113" y="258" type="curve" smooth="yes"/>
      <point x="113" y="377"/>
      <point x="174" y="457"/>
    </contour>
  </outline>
</glyph>
<glyph name="Emacron" format="1">
  <advance width="667"/>
  <unicode hex="0112"/>
  <outline>
    <contour>
      <point x="183" y="332" type="line"/>
      <point x="580" y="332" type="line"/>
      <point x="580" y="414" type="line"/>
      <point x="183" y="414" type="line"/>
      <point x="183" y="647" type="line"/>
      <point x="595" y="647" type="line"/>
      <point x="595" y="729" type="line"/>
      <point x="90" y="729" type="line"/>
      <point x="90" y="0" type="line"/>
      <point x="613" y="0" type="line"/>
      <point x="613" y="82" type="line"/>
      <point x="183" y="82" type="line"/>
    </contour>
    <contour>
      <point x="482" y="900" type="line"/>
      <point x="208" y="900" type="line"/>
      <point x="208" y="830" type="line"/>
      <point x="482" y="830" type="line"/>
    </contour>
  </outline>
</glyph>
<glyph name="Edotaccent" format="1">
  <advance width="667"/>
  <unicode hex="0116"/>
  <outline>
    <contour>
      <point x="183" y="332" type="line"/>
      <point x="580" y="332" type="line"/>
      <point x="580" y="414" type="line"/>
      <point x="183" y="414" type="line"/>
      <point x="183" y="647" type="line"/>
      <point x="595" y="647" type="line"/>
      <point x="595" y="729" type="line"/>
      <point x="90" y="729" type="line"/>
      <point x="90" y="0" type="line"/>
      <point x="613" y="0" type="line"/>
      <point x="613" y="82" type="line"/>
      <point x="183" y="82" type="line"/>
    </contour>
    <contour>
      <point x="397" y="915" type="line"/>
      <point x="293" y="915" type="line"/>
      <point x="293" y="811" type="line"/>
      <point x="397" y="811" type="line"/>
    </contour>
  </outline>
</glyph>
<glyph name="Eogonek" format="1">
  <advance width="667"/>
  <unicode hex="0118"/>
  <outline>
    <contour>
      <point x="183" y="332" type="line"/>
      <point x="580" y="332" type="line"/>
      <point x="580" y="414" type="line"/>
      <point x="183" y="414" type="line"/>
      <point x="183" y="647" type="line"/>
      <point x="595" y="647" type="line"/>
      <point x="595" y="729" type="line"/>
      <point x="90" y="729" type="line"/>
      <point x="90" y="0" type="line"/>
      <point x="545" y="0" type="line"/>
      <point x="474" y="-30"/>
      <point x="444" y="-63"/>
      <point x="444" y="-111" type="curve" smooth="yes"/>
      <point x="444" y="-150"/>
      <point x="465" y="-176"/>
      <point x="507" y="-192" type="curve" smooth="yes"/>
      <point x="530" y="-200"/>
      <point x="555" y="-205"/>
      <point x="577" y="-205" type="curve" smooth="yes"/>
      <point x="595" y="-205"/>
      <point x="629" y="-200"/>
      <point x="652" y="-195" type="curve"/>
      <point x="652" y="-150" type="line"/>
      <point x="634" y="-157"/>
      <point x="613" y="-160"/>
      <point x="589" y="-160" type="curve" smooth="yes"/>
      <point x="542" y="-160"/>
      <point x="517" y="-141"/>
      <point x="517" y="-106" type="curve" smooth="yes"/>
      <point x="517" y="-65"/>
      <point x="549" y="-30"/>
      <point x="613" y="0" type="curve"/>
      <point x="613" y="82" type="line"/>
      <point x="183" y="82" type="line"/>
    </contour>
  </outline>
</glyph>
<glyph name="eogonek" format="1">
  <advance width="556"/>
  <unicode hex="0119"/>
  <outline>
    <contour>
      <point x="513" y="234" type="line"/>
      <point x="514" y="314"/>
      <point x="507" y="363"/>
      <point x="492" y="401" type="curve" smooth="yes"/>
      <point x="459" y="487"/>
      <point x="378" y="539"/>
      <point x="280" y="539" type="curve" smooth="yes"/>
      <point x="134" y="539"/>
      <point x="40" y="427"/>
      <point x="40" y="254" type="curve" smooth="yes"/>
      <point x="40" y="81"/>
      <point x="130" y="-23"/>
      <point x="279" y="-23" type="curve" smooth="yes"/>
      <point x="302" y="-23"/>
      <point x="317" y="-21"/>
      <point x="347" y="-15" type="curve"/>
      <point x="321" y="-35"/>
      <point x="314" y="-41"/>
      <point x="307" y="-48" type="curve"/>
      <point x="290" y="-67"/>
      <point x="279" y="-93"/>
      <point x="279" y="-116" type="curve" smooth="yes"/>
      <point x="279" y="-169"/>
      <point x="334" y="-204"/>
      <point x="418" y="-204" type="curve" smooth="yes"/>
      <point x="440" y="-204"/>
      <point x="460" y="-201"/>
      <point x="487" y="-195" type="curve"/>
      <point x="487" y="-150" type="line"/>
      <point x="469" y="-157"/>
      <point x="448" y="-160"/>
      <point x="423" y="-160" type="curve" smooth="yes"/>
      <point x="378" y="-160"/>
      <point x="351" y="-141"/>
      <point x="351" y="-109" type="curve" smooth="yes"/>
      <point x="351" y="-71"/>
      <point x="368" y="-41"/>
      <point x="422" y="15" type="curve" smooth="yes"/>
      <point x="468" y="61"/>
      <point x="493" y="104"/>
      <point x="503" y="159" type="curve"/>
      <point x="419" y="159" type="line"/>
      <point x="395" y="90"/>
      <point x="348" y="54"/>
      <point x="281" y="54" type="curve" smooth="yes"/>
      <point x="229" y="54"/>
      <point x="184" y="78"/>
      <point x="155" y="122" type="curve" smooth="yes"/>
      <point x="136" y="152"/>
      <point x="128" y="182"/>
      <point x="127" y="234" type="curve"/>
    </contour>
    <contour>
      <point x="424" y="302" type="line"/>
      <point x="130" y="302" type="line"/>
      <point x="136" y="399"/>
      <point x="195" y="462"/>
      <point x="279" y="462" type="curve" smooth="yes"/>
      <point x="361" y="462"/>
      <point x="424" y="394"/>
      <point x="424" y="308" type="curve" smooth="yes"/>
    </contour>
  </outline>
</glyph>
<glyph name="Ecaron" format="1">
  <advance width="667"/>
  <unicode hex="011A"/>
  <outline>
    <contour>
      <point x="183" y="332" type="line"/>
      <point x="580" y="332" type="line"/>
      <point x="580" y="414" type="line"/>
      <point x="183" y="414" type="line"/>
      <point x="183" y="647" type="line"/>
      <point x="595" y="647" type="line"/>
      <point x="595" y="729" type="line"/>
      <point x="90" y="729" type="line"/>
      <point x="90" y="0" type="line"/>
      <point x="613" y="0" type="line"/>
      <point x="613" y="82" type="line"/>
      <point x="183" y="82" type="line"/>
    </contour>
    <contour>
      <point x="392" y="790" type="line"/>
      <point x="488" y="940" type="line"/>
      <point x="424" y="940" type="line"/>
      <point x="345" y="844" type="line"/>
      <point x="264" y="940" type="line"/>
      <point x="201" y="940" type="line"/>
      <point x="297" y="790" type="line"/>
    </contour>
  </outline>
</glyph>
<glyph name="Gbreve" format="1">
  <advance width="778"/>
  <unicode hex="011E"/>
  <outline>
    <contour>
      <point x="709" y="385" type="line"/>
      <point x="405" y="385" type="line"/>
      <point x="405" y="303" type="line"/>
      <point x="627" y="303" type="line"/>
      <point x="627" y="283" type="line" smooth="yes"/>
      <point x="627" y="153"/>
      <point x="531" y="59"/>
      <point x="398" y="59" type="curve" smooth="yes"/>
      <point x="324" y="59"/>
      <point x="257" y="86"/>
      <point x="214" y="133" type="curve" smooth="yes"/>
      <point x="166" y="185"/>
      <point x="137" y="272"/>
      <point x="137" y="362" type="curve" smooth="yes"/>
      <point x="137" y="541"/>
      <point x="239" y="659"/>
      <point x="393" y="659" type="curve" smooth="yes"/>
      <point x="504" y="659"/>
      <point x="584" y="602"/>
      <point x="604" y="508" type="curve"/>
      <point x="699" y="508" type="line"/>
      <point x="673" y="656"/>
      <point x="561" y="741"/>
      <point x="394" y="741" type="curve" smooth="yes"/>
      <point x="305" y="741"/>
      <point x="233" y="718"/>
      <point x="176" y="671" type="curve" smooth="yes"/>
      <point x="92" y="601"/>
      <point x="44" y="488"/>
      <point x="44" y="357" type="curve" smooth="yes"/>
      <point x="44" y="133"/>
      <point x="181" y="-23"/>
      <point x="378" y="-23" type="curve" smooth="yes"/>
      <point x="477" y="-23"/>
      <point x="556" y="14"/>
      <point x="627" y="93" type="curve"/>
      <point x="650" y="-4" type="line"/>
      <point x="709" y="-4" type="line"/>
    </contour>
    <contour>
      <point x="249" y="931" type="line"/>
      <point x="250" y="892"/>
      <point x="255" y="873"/>
      <point x="270" y="853" type="curve" smooth="yes"/>
      <point x="297" y="816"/>
      <point x="342" y="796"/>
      <point x="398" y="796" type="curve" smooth="yes"/>
      <point x="491" y="796"/>
      <point x="543" y="842"/>
      <point x="550" y="931" type="curve"/>
      <point x="491" y="931" type="line"/>
      <point x="487" y="889"/>
      <point x="454" y="865"/>
      <point x="400" y="865" type="curve" smooth="yes"/>
      <point x="343" y="865"/>
      <point x="313" y="887"/>
      <point x="308" y="931" type="curve"/>
    </contour>
  </outline>
</glyph>
<glyph name="hbar" format="1">
  <advance width="556"/>
  <unicode hex="0127"/>
  <outline>
    <contour>
      <point x="70" y="729" type="line"/>
      <point x="70" y="0" type="line"/>
      <point x="153" y="0" type="line"/>
      <point x="153" y="289" type="line" smooth="yes"/>
      <point x="153" y="396"/>
      <point x="209" y="466"/>
      <point x="295" y="466" type="curve" smooth="yes"/>
      <point x="322" y="466"/>
      <point x="349" y="457"/>
      <point x="369" y="442" type="curve" smooth="yes"/>
      <point x="393" y="425"/>
      <point x="403" y="400"/>
      <point x="403" y="363" type="curve" smooth="yes"/>
      <point x="403" y="0" type="line"/>
      <point x="486" y="0" type="line"/>
      <point x="486" y="396" type="line" smooth="yes"/>
      <point x="486" y="484"/>
      <point x="423" y="539"/>
      <point x="321" y="539" type="curve" smooth="yes"/>
      <point x="247" y="539"/>
      <point x="202" y="516"/>
      <point x="153" y="452" type="curve"/>
      <point x="153" y="729" type="line"/>
    </contour>
  </outline>
</glyph>
<glyph name="Imacron" format="1">
  <advance width="278"/>
  <unicode hex="012A"/>
  <outline>
    <contour>
      <point x="194" y="729" type="line"/>
      <point x="100" y="729" type="line"/>
      <point x="100" y="0" type="line"/>
      <point x="194" y="0" type="line"/>
    </contour>
    <contour>
      <point x="274" y="900" type="line"/>
      <point x="20" y="900" type="line"/>
      <point x="20" y="830" type="line"/>
      <point x="274" y="830" type="line"/>
    </contour>
  </outline>
</glyph>
<glyph name="imacron" format="1">
  <advance width="222"/>
  <unicode hex="012B"/>
  <outline>
    <contour>
      <point x="149" y="524" type="line"/>
      <point x="66" y="524" type="line"/>
      <point x="66" y="0" type="line"/>
      <point x="149" y="0" type="line"/>
    </contour>
    <contour>
      <point x="231" y="701" type="line"/>
      <point x="-16" y="701" type="line"/>
      <point x="-16" y="631" type="line"/>
      <point x="231" y="631" type="line"/>
    </contour>
  </outline>
</glyph>
<glyph name="Iogonek" format="1">
  <advance width="278"/>
  <unicode hex="012E"/>
  <outline>
    <contour>
      <point x="194" y="729" type="line"/>
      <point x="100" y="729" type="line"/>
      <point x="100" y="0" type="line"/>
      <point x="143" y="0" type="line"/>
      <point x="86" y="-41"/>
      <point x="66" y="-72"/>
      <point x="66" y="-116" type="curve" smooth="yes"/>
      <point x="66" y="-169"/>
      <point x="110" y="-204"/>
      <point x="175" y="-204" type="curve" smooth="yes"/>
      <point x="193" y="-204"/>
      <point x="216" y="-200"/>
      <point x="234" y="-195" type="curve"/>
      <point x="234" y="-150" type="line"/>
      <point x="216" y="-156"/>
      <point x="203" y="-159"/>
      <point x="189" y="-159" type="curve" smooth="yes"/>
      <point x="158" y="-159"/>
      <point x="138" y="-138"/>
      <point x="138" y="-107" type="curve" smooth="yes"/>
      <point x="138" y="-71"/>
      <point x="158" y="-33"/>
      <point x="194" y="0" type="curve"/>
    </contour>
  </outline>
</glyph>
